<?xml version="1.0" encoding="utf-8"?>
<!-- Generator: Adobe Illustrator 16.0.0, SVG Export Plug-In . SVG Version: 6.00 Build 0)  -->
<!DOCTYPE svg PUBLIC "-//W3C//DTD SVG 1.1//EN" "http://www.w3.org/Graphics/SVG/1.1/DTD/svg11.dtd">
<svg version="1.1" id="Layer_1" xmlns="http://www.w3.org/2000/svg" xmlns:xlink="http://www.w3.org/1999/xlink" x="0px" y="0px"
	 width="550px" height="118px" viewBox="0 0 550 118" enable-background="new 0 0 550 118" xml:space="preserve">
<path fill="#FFFFFF" d="M69.783,57.117c0.517,0.563,1.236,0.961,1.956,1.281c1.44,0.481,2.878,1.123,4.01,1.768
	c2.262,1.441,4.115,3.053,5.348,5.135c1.542,2.73,3.087,5.543,3.393,8.513c0.206,1.36-0.306,2.567-0.514,3.771
	c-0.616,2.167-1.338,4.175-2.159,6.259c-0.826,1.929-2.367,3.614-4.423,4.819c-5.76,3.61-12.34,6.419-19.95,6.419
	c-0.31,0-0.722-0.081-1.031-0.081c-1.336-0.075-2.878-0.075-4.419-0.24c-1.439-0.158-2.882-0.321-4.32-0.559
	c-1.854-0.161-3.703-0.402-5.451-0.885c-1.237-0.32-1.852-1.044-1.954-1.925c-0.104-0.483,0.102-0.965,0.204-1.524
	c0.513-1.85,1.028-3.693,1.544-5.62c0.311-0.803,0.311-1.443,0.411-2.171c0.102-1.039,0.307-2.004,0.515-2.887
	c0.102-0.959,0.307-1.846,0.409-2.731c0.104-1.043,0.206-2.005,0.206-3.049c0.207-2.007,0.207-4.092,0.413-6.101
	c0.308-2.085,0-4.175,0.1-6.342c0.309-3.371,0.309-6.661,0.309-10.035c0-1.604-0.309-3.206-0.409-4.813
	c-0.104-0.242-0.104-0.645-0.104-0.963c0-1.689-0.309-3.535-0.617-5.216c-1.027-4.021-2.057-7.869-3.908-11.723
	c-0.102-0.398-0.206-0.642-0.409-1.041c-0.31-0.967,0-1.767,1.336-2.173c0.924-0.315,2.059-0.559,3.083-0.642
	c2.468-0.478,5.041-0.398,7.613-0.478c1.645,0,3.393-0.242,5.142-0.321h2.158c0.719,0,1.44,0,2.161,0.08
	c0.925,0.242,1.85,0.242,2.671,0.242c1.958,0.161,3.912,0.4,5.658,0.884c2.059,0.4,3.806,1.441,4.937,2.728
	c1.131,0.963,1.954,2.168,2.776,3.372c2.571,3.372,4.321,5.779,4.524,9.871c0.105,1.687,0,3.289-0.616,4.896
	c-0.823,2.01-2.159,3.852-4.009,5.297c-1.544,1.366-3.086,2.569-5.041,3.533c-0.615,0.4-1.233,0.722-1.543,1.524V57.117z
	 M71.533,38.895c-0.206-0.406-0.31-0.803-0.413-1.045c-2.672-4.175-6.271-8.509-13.06-8.509c-0.513,0-0.925,0-1.44,0.082
	c-0.926,0.079-1.852,0.4-2.467,0.961c-2.056,1.608-2.778,4.017-3.085,6.263c-0.311,1.766,0.103,3.453,0.207,5.216
	c0.306,1.285,0.513,2.49,0.72,3.691c0.103,1.205,0.103,2.409,0.206,3.614c0,0.561,0.1,1.128,0.306,1.687
	c0.206,0.722,0.514,1.527,1.029,2.248c0.927,1.124,2.159,1.283,3.805,1.283c1.645-0.321,3.188-1.044,4.732-1.602
	C69.168,49.729,71.533,44.995,71.533,38.895 M74.721,70.521c-0.514-1.767-1.439-3.612-3.085-5.136
	c-0.516-0.403-0.924-0.81-1.335-1.287c-2.674-2.406-5.762-4.094-9.874-4.413c-3.19,0-6.995,0.077-7.816,3.051
	c-0.31,0.398-0.31,0.88-0.41,1.28c-0.103,1.608-0.413,3.129-0.517,4.738c-0.103,2.648-0.205,5.379-0.205,8.027
	c-0.204,0.803-0.308,1.605-0.204,2.408c0.204,1.686,0.306,3.373,0.72,5.058c0.206,2.09,1.541,4.173,4.317,4.736
	c0.309,0.079,0.722,0.079,1.029,0.079c0.822,0,1.645-0.16,2.467-0.24c9.667-2.485,15.119-6.504,15.429-15.09
	C75.133,73.007,74.927,71.725,74.721,70.521"/>
<path fill="#FFFFFF" d="M144.648,93.478c-2.775,0-5.347,0.235-8.022,0.722c-0.206,0.081-0.513,0.081-0.718,0.081
	c-1.236,0-2.366-0.567-2.779-1.445c-0.203-0.563-0.513-1.043-0.513-1.524c-0.205-0.884-0.515-1.846-0.615-2.81
	c-0.415-1.848-0.518-3.528-1.03-5.301c-1.132-4.976-2.882-9.71-5.246-14.366c-0.927-1.689-2.365-3.291-4.421-4.332
	c-0.926-0.404-1.852-0.724-2.881-0.724c-0.409,0-0.822,0.079-1.232,0.159c-2.366,0.723-3.291,2.892-3.704,4.656
	c-0.206,1.205-0.206,2.327,0,3.531c0.104,0.805,0,1.525,0,2.328c0.104,1.928,0.104,3.771,0.31,5.698
	c0.103,1.205,0.513,2.488,0.72,3.854c0.41,2.648,1.335,5.379,2.159,8.029c0.206,0.479,0.206,0.962,0.206,1.362
	c-0.719,0.884-1.542,1.046-2.572,1.046h-0.823c-1.03-0.162-2.158-0.243-3.29-0.243c-1.134,0-2.365,0.081-3.498,0.323
	c-0.824,0.079-1.439,0.237-2.158,0.237c-1.441,0-2.469-0.64-2.572-1.844c0-0.402,0-0.805,0.103-1.207
	c0.205-1.443,0.513-2.807,0.615-4.332c0.103-1.284,0.517-2.731,0.62-4.014c0.515-2.165,0.821-4.574,0.925-6.742
	c0.31-1.604,0.31-3.289,0.31-4.979c0-1.443,0.205-2.726,0.309-4.09v-0.564c0.203-4.416,0.307-8.67,0.307-13.083
	c0.102-1.047,0.102-1.929,0-2.97c-0.104-1.769-0.307-3.618-0.411-5.301c0-2.085-0.31-4.092-0.718-6.1
	c-0.207-0.803-0.311-1.605-0.311-2.327c-0.103-1.769-0.103-3.533-0.207-5.301c-0.204-1.283-0.411-2.728-0.513-4.01
	c0-0.72-0.208-1.443,0-2.087c0.102-0.805,0.72-1.364,1.646-1.525c0.718-0.24,1.541-0.24,2.261-0.24c1.339,0,2.57,0.161,3.907,0.161
	c3.088,0,6.07-0.08,9.154-0.242c4.937,0,10.079,1.122,14.502,2.807c1.75,0.805,3.291,1.848,4.73,3.132
	c1.13,1.284,2.365,2.49,3.395,3.933c1.952,3.051,2.571,6.661,2.775,10.037c0.103,1.846-0.204,3.772-0.925,5.693
	c-1.441,4.74-3.498,7.869-8.225,11.159c-1.03,0.563-1.854,1.367-2.268,2.409c-0.305,0.804-0.101,1.606,0.105,2.409
	c2.263,8.107,5.759,16.379,10.901,23.68c0.823,0.881,1.542,1.767,1.851,2.97C146.396,93.235,145.884,93.478,144.648,93.478
	 M114.31,52.942c0.413,3.533,3.704,4.731,7.713,4.731c0.515,0,1.13,0,1.749-0.078c1.027-0.08,2.16-0.32,3.085-0.722
	c2.674-1.364,4.936-3.13,6.069-5.539c0.41-0.961,0.72-2.006,1.13-2.966c0.308-0.807,0.616-1.612,0.616-2.492
	c0.309-2.569,0.206-5.054-0.616-7.545c-0.72-2.087-1.645-4.256-3.601-5.939c-2.056-2.169-4.419-2.809-7.711-2.809
	c-3.394,0-7.613,1.683-8.227,4.492c-0.414,1.447-0.617,2.972-0.72,4.337c-0.206,2.326-0.206,4.493,0.202,6.743
	c0.104,1.122,0,2.163,0,3.289C113.999,49.971,114.103,51.495,114.31,52.942"/>
<path fill="#FFFFFF" d="M159.656,92.111c2.774-6.019,5.346-11.877,7.609-18.061c1.234-3.286,2.263-6.66,3.598-9.872
	c1.237-3.212,2.161-6.499,2.883-9.793c0.718-2.089,1.335-4.254,1.848-6.342c0.413-1.201,0.618-2.49,1.029-3.695
	c0.206-1.443,0.615-2.884,0.926-4.409c0.308-1.848,0.618-3.614,0.721-5.464c0.103-1.041,0.31-2.165,0.31-3.289
	c0.103-1.522-0.31-2.89-0.515-4.417c-0.309-0.799-0.309-1.521-0.208-2.326c0.516-0.803,1.545-1.205,2.775-1.205
	c0.825,0.079,1.545,0.079,2.267,0.079c0.72,0,1.438,0,2.159-0.079c0.513,0,1.234,0,1.851-0.076c1.851,0,4.012,0.155,4.012,2.004
	c0,0.72-0.207,1.285-0.312,1.927c-0.409,1.364-0.206,2.889-0.206,4.332c0,1.042,0.206,2.087,0.518,3.049
	c0.822,4.978,1.954,9.958,3.291,14.853c0.309,1.604,0.616,3.128,1.029,4.657c0.305,1.202,0.615,2.409,0.924,3.611
	c0.308,2.489,2.57,8.348,3.598,10.838c2.16,6.66,4.322,11.396,7.922,17.659c1.232,1.763,2.365,3.695,3.494,5.62
	c0.104,0.161,0.104,0.483,0.31,0.72c0.719,0.964-0.513,2.09-1.853,2.169h-1.028c-1.131-0.079-2.263-0.163-3.494-0.321
	c-0.413-0.079-0.822-0.079-1.338-0.079c-0.411,0-0.824,0-1.337,0.079c-0.926,0-1.748,0.242-2.676,0.321
	c-2.26,0-3.084-0.321-3.598-2.405c-0.309-1.688-0.515-3.374-0.824-5.14c-0.307-1.443-0.307-2.968-0.513-4.576
	c-0.104-1.605-0.308-3.128-0.72-4.735c-0.618-2.808-3.499-3.05-6.582-3.05c-3.907,0-9.669,0.881-11.313,4.094
	c-0.413,0.563-0.514,1.283-0.618,1.846c-0.409,1.606-0.308,3.133-0.308,4.734c0.209,1.927,0.412,3.854,0.412,5.699
	c0.101,0.645,0,1.204-0.203,1.767c-0.518,0.964-1.341,1.366-2.571,1.366c-1.235,0-2.267-0.081-3.396-0.081
	c-0.31-0.082-0.615-0.082-1.028-0.082c-0.309,0-0.722,0-1.031,0.082c-1.644,0.081-3.493,0.402-5.242,0.64
	c-0.311,0.082-0.517,0.082-0.822,0.082c-0.823,0-1.542-0.24-2.161-0.962C159.14,93.239,159.346,92.591,159.656,92.111
	 M182.898,45.155c-0.206,0.963-0.413,2.008-0.516,2.888c-0.513,2.246-0.926,4.338-1.234,6.421c-0.308,1.124-0.412,2.248-0.821,3.291
	c-0.104,0.967-0.517,1.929-0.72,2.971c-0.31,1.287-0.723,2.57-0.926,4.014c-0.31,1.047-0.31,2.248-0.412,3.373
	c0,0.32,0.103,0.641,0.31,0.881c0.514,1.443,1.851,1.927,3.598,2.006c0.516,0.082,1.027,0.163,1.644,0.163
	c1.75,0,5.041-0.726,6.379-1.526c0.823-0.4,1.338-1.125,1.338-1.844c0.102-0.964,0.102-2.006,0-2.972
	c-0.308-1.124-0.617-2.249-0.929-3.293c-0.513-1.927-1.025-3.849-1.747-5.779c-0.822-2.006-1.129-4.013-1.441-6.098
	c-0.102-0.965-0.409-2.006-0.614-2.972c-0.206-0.722-0.413-1.524-0.72-2.246c-0.206-0.565-0.619-1.126-1.541-1.287
	C183.411,43.549,183.204,44.348,182.898,45.155"/>
<path fill="#FFFFFF" d="M242.336,51.576v1.366c-0.103,1.203-0.31,2.567-0.31,3.771v9.875c0,1.047-0.103,1.924-0.206,2.809
	c0,0.803,0.104,1.524,0.104,2.248c0,0.722,0.103,1.285,0.103,2.006c0,1.523-0.103,2.971,0,4.495
	c0.207,1.444,0.413,2.809,0.413,4.335c0.103,1.128,0.306,2.086,0.616,3.21c0.308,0.966,0.719,2.004,1.031,2.972
	c0.511,1.126,1.024,2.167,1.437,3.13c-0.103,0.404-0.103,0.641-0.206,0.799c-0.31,0.726-0.821,1.128-1.75,1.208
	c-0.615,0.079-1.231,0.241-1.851,0.241c-2.262,0-4.421,0.08-6.682,0.482c-0.31,0.079-0.618,0.16-1.031,0.16
	c-0.515,0-1.026-0.16-1.438-0.244c-1.131-0.318-1.852-1.044-1.852-1.925c-0.103-1.282,0-2.489,0.31-3.852
	c0.411-1.605,0.618-3.214,0.721-4.895c0-1.612,0.307-3.214,0.41-4.819c0.103-1.285,0.311-2.569,0.311-4.011
	c0.101-1.124,0.205-2.169,0.205-3.293c-0.205-1.045-0.205-2.006,0-3.133c0.1-0.723,0.308-1.367,0.308-2.089V61.13
	c0-1.124-0.208-2.25-0.208-3.374c0-0.882,0.208-1.848,0.208-2.806c0-1.207-0.308-2.49-0.412-3.697v-0.158
	c-0.101-1.045-0.309-2.169-0.309-3.132c-0.103-2.248-0.206-4.497-0.311-6.743c0-1.12-0.305-2.085-0.409-3.209
	c-0.308-3.854-1.133-7.864-2.467-11.558c-0.103-0.482-0.209-0.965-0.209-1.445c0-1.85,2.162-1.85,3.908-1.85h2.571
	c1.543,0,3.085-0.157,4.63-0.478c0.719-0.082,1.441-0.325,2.056-0.325c0.103,0,0.31,0.083,0.413,0.083
	c1.025,0.403,1.85,1.043,1.85,1.846c0.102,0.724,0.102,1.525,0,2.169c-1.337,14.446,2.057,16.453,9.566,27.85
	c0.82,1.287,1.85,2.492,2.57,3.776c0.41,0.643,0.72,1.204,1.232,1.848c1.851,2.484,2.573,5.702,5.143,7.709
	c0.206,0.314,0.719,0.479,1.232,0.717c0.207,0.082,0.519,0.082,0.721,0.082c0.723,0,1.441-0.24,1.749-0.799
	c0.412-0.49,0.514-1.129,0.619-1.61c0.307-0.882,0.922-7.866,0.922-9.23c0-1.285,0-2.648-0.101-4.016v-1.683
	c0-2.169,0-4.177-0.206-6.184c0-1.604-0.206-3.049-0.309-4.651c-0.204-1.366-0.307-2.729-0.307-4.179
	c-0.207-1.844-0.415-3.771-0.517-5.698c-0.103-0.882-0.103-1.925-0.205-2.888c0-0.24-0.205-0.401-0.205-0.726
	c-0.104-0.561-0.104-1.204,0.205-1.763c0.205-0.803,1.028-1.285,2.058-1.285c0.206,0,0.412,0,0.615,0.076
	c1.544,0.246,2.262,0.485,3.807,0.563c1.438,0,2.983,0.083,4.421,0.083c2.056,0.163,3.602,1.122,3.291,2.65v1.12
	c-0.104,0.886-0.202,1.769-0.514,2.653c-0.204,1.364-0.516,2.646-0.722,3.931c-0.306,1.124-0.512,2.248-0.614,3.293
	c-0.308,1.526-0.518,3.049-0.825,4.417c-0.101,0.958-0.101,1.844-0.204,2.805c-0.206,1.124-0.412,2.332-0.516,3.452
	c0,2.488-0.202,4.817-0.511,7.305v1.525c0,1.604,0.104,3.213,0,4.814c-0.31,1.689-0.31,3.533-0.31,5.225
	c0,1.762,0.31,3.607,0.31,5.374c0.104,1.203,0.206,2.406,0.206,3.612c0.305,4.577,0.614,8.992,2.056,13.482
	c0.307,0.726,0.307,1.528,0.103,2.329c-0.206,0.962-1.75,1.688-3.292,1.769c-1.644,0.079-2.675,0.237-4.424,0.237
	c-0.204,0-0.616,0-0.82,0.084c-0.412,0.079-0.72,0.079-1.027,0.079c-0.823,0-1.646-0.163-2.365-0.321
	c-1.646-0.24-2.267-1.203-2.57-2.567v-0.884c0-14.45-4.012-14.851-11.417-28.896c-0.721-1.528-2.881-5.22-3.91-6.665
	c-0.822-1.524-1.849-2.886-2.879-4.413c-0.205-0.081-0.309-0.16-0.413-0.323c-0.409-0.482-1.024-0.803-1.846-0.803
	c-0.313,0-0.724,0.082-1.031,0.161C242.542,50.373,242.233,50.932,242.336,51.576"/>
<path fill="#FFFFFF" d="M300.127,90.908c-0.208-0.643,0.101-1.283,0.204-2.088c0.616-2.809,1.441-5.539,2.158-8.427
	c0.825-3.133,1.029-7.71,1.029-10.839c0-5.455,0-10.915-0.204-16.375c-0.104-1.045-0.41-2.006-0.514-3.049v-0.559
	c0-1.449-0.412-2.815-0.516-4.098c-0.307-1.443-0.41-2.728-0.513-4.01c-0.102-1.61-0.312-3.134-0.512-4.738
	c-0.414-2.087-0.623-4.096-1.342-6.022c-0.306-1.12-0.615-2.085-0.823-3.208c-0.206-0.805,0.208-1.525,0.823-2.008
	c0.515-0.402,1.342-0.801,1.956-1.126c3.089-1.043,6.064-1.604,9.254-1.604c6.892,0,12.65,0.724,18.001,4.337
	c1.126,0.882,2.468,1.683,3.699,2.569c4.831,3.531,6.374,9.068,7.406,14.046c0.206,1.524,0.518,3.047,0.718,4.413
	c0.104,0.724,0.104,1.528,0.31,2.25c0.307,2.087,0,4.173,0.206,6.34c0.412,2.648,0.306,5.379,0.306,8.188
	c0,4.252-0.102,9.072-1.747,13.169c-0.308,2.405-1.13,4.411-2.67,6.497c-2.677,3.935-5.146,7.065-10.803,8.75
	c-1.233,0.402-2.569,0.804-3.803,1.206c-1.748,0.398-3.292,0.72-5.142,0.72h-2.369C311.026,95.242,300.847,94.842,300.127,90.908
	 M331.8,49.572c-0.513-3.858-1.232-5.462-2.876-9.153c-1.751-3.293-5.557-10.031-11.215-10.031c-1.644,0-2.979,0.641-3.699,1.604
	c-0.825,0.882-1.031,1.925-1.233,2.888c0,1.202-0.103,2.328-0.208,3.45c-0.103,1.524-0.41,2.89-0.41,4.417
	c-0.102,1.122,0.104,2.327,0.104,3.372v5.938v0.485c-0.206,1.523-0.206,2.97,0,4.25c0.203,0.964,0.306,1.929,0.306,2.81
	c0,3.211,0.105,6.342-0.103,9.393c-0.308,2.248,0,4.576-0.203,6.74c0,2.25-0.104,4.5-0.104,6.828c-0.102,0.398,0,0.882-0.102,1.28
	c-0.309,0.807-0.309,1.771-0.103,2.65c0.103,1.607,1.23,2.409,2.878,2.729c0.926,0,1.854-0.079,2.778-0.16
	c2.26-0.4,4.319-1.207,5.963-2.569c2.367-2.165,5.039-4.813,5.86-7.626c0.208-0.798,0.309-1.686,0.618-2.488
	c0.62-2.167,1.027-4.254,1.235-6.582c0.41-1.766,0.822-4.094,0.822-5.859c0.102-2.246,0-4.336,0-7.146
	C332.007,54.865,332.313,52.135,331.8,49.572"/>
<path fill="#FFFFFF" d="M364.707,62.494c0-2.328,0-4.738,0.202-6.983c0.31-3.051,0.31-5.86,0.105-8.669
	c-0.105-2.167-0.105-4.417-0.204-6.504c-0.207-3.053-0.413-6.021-1.547-8.911c-0.514-1.443-1.128-2.728-1.646-4.171
	c-0.202-0.161-0.307-0.565-0.307-0.803c-0.823-1.528,0.511-2.65,2.262-2.65c0.208,0,0.416,0.081,0.618,0.081
	c1.545,0.242,3.189,0.321,4.73,0.321c1.544,0,2.777-0.08,4.317-0.24c0.823-0.082,1.443-0.163,2.267-0.163
	c1.232,0.081,2.26,0.965,2.054,2.006c-0.306,1.605-0.718,3.053-0.926,4.579c-0.407,1.844-0.821,3.85-1.128,5.614
	c-0.31,1.283-0.52,2.73-0.823,4.098v0.238c-0.101,1.205-0.206,2.409-0.206,3.614c-0.208,2.569-0.208,5.216-0.31,7.706
	c-0.41,4.333-0.104,8.667-0.206,12.844c0,3.85,0,7.705,0.206,11.56c0.102,1.524,0.516,3.128,0.819,4.573
	c0.104,1.206,0.21,2.565,0.52,3.772c0.204,1.364,0.721,2.567,1.128,3.853c0.414,1.045,0.62,2.006,0.926,3.051
	c0.104,0.402,0.206,0.962,0.104,1.364c0,0.564-0.41,1.044-1.03,1.124c-0.615,0.241-1.335,0.402-1.951,0.402
	c-1.235,0.237-2.674,0.237-4.113,0.321c-1.543,0.237-3.087,0.398-4.734,0.64c-0.304,0.082-0.516,0.082-0.82,0.082
	c-1.441,0-2.569-0.964-2.265-2.569c0.104-0.883,0.206-1.767,0.415-2.65c0.204-2.169,0.513-4.253,0.616-6.416
	c0-0.164,0-0.245,0.103-0.327c0-1.848,0-3.534,0.308-5.457c0.206-1.846,0.102-3.852,0.206-6.023c0.105-2.085,0.105-4.248,0.31-6.5
	h-0.204C364.503,64.338,364.503,63.376,364.707,62.494"/>
<path fill="#FFFFFF" d="M411.705,51.576v1.366c-0.107,1.203-0.312,2.567-0.312,3.771v9.875c0,1.047-0.103,1.924-0.208,2.809
	c0,0.803,0.105,1.524,0.105,2.248c0,0.722,0.103,1.285,0.103,2.006c0,1.523-0.103,2.971,0,4.495
	c0.204,1.444,0.414,2.809,0.414,4.335c0.1,1.128,0.304,2.086,0.613,3.21c0.309,0.966,0.72,2.004,1.028,2.972
	c0.516,1.126,1.029,2.167,1.441,3.13c-0.103,0.404-0.103,0.641-0.206,0.799c-0.308,0.726-0.82,1.128-1.75,1.208
	c-0.615,0.079-1.229,0.241-1.846,0.241c-2.269,0-4.425,0.08-6.688,0.482c-0.309,0.079-0.616,0.16-1.028,0.16
	c-0.512,0-1.029-0.16-1.439-0.244c-1.132-0.318-1.854-1.044-1.854-1.925c-0.104-1.282,0-2.489,0.31-3.852
	c0.412-1.605,0.618-3.214,0.723-4.895c0-1.612,0.304-3.214,0.409-4.819c0.103-1.285,0.307-2.569,0.307-4.011
	c0.105-1.124,0.206-2.169,0.206-3.293c-0.206-1.045-0.206-2.006,0-3.133c0.105-0.723,0.31-1.367,0.31-2.089V61.13
	c0-1.124-0.204-2.25-0.204-3.374c0-0.882,0.204-1.848,0.204-2.806c0-1.207-0.31-2.49-0.41-3.697v-0.158
	c-0.105-1.045-0.31-2.169-0.31-3.132c-0.103-2.248-0.208-4.497-0.307-6.743c0-1.12-0.31-2.085-0.413-3.209
	c-0.309-3.854-1.134-7.864-2.468-11.558c-0.102-0.482-0.208-0.965-0.208-1.445c0-1.85,2.161-1.85,3.911-1.85h2.571
	c1.538,0,3.085-0.157,4.625-0.478c0.724-0.082,1.443-0.325,2.058-0.325c0.104,0,0.312,0.083,0.414,0.083
	c1.025,0.403,1.846,1.043,1.846,1.846c0.105,0.724,0.105,1.525,0,2.169c-1.334,14.446,2.059,16.453,9.569,27.85
	c0.821,1.287,1.848,2.492,2.567,3.776c0.413,0.643,0.722,1.204,1.237,1.848c1.852,2.484,2.571,5.702,5.143,7.709
	c0.204,0.314,0.718,0.479,1.231,0.717c0.206,0.082,0.517,0.082,0.722,0.082c0.721,0,1.437-0.24,1.746-0.799
	c0.414-0.49,0.516-1.129,0.62-1.61c0.306-0.882,0.924-7.866,0.924-9.23c0-1.285,0-2.648-0.103-4.016v-1.683
	c0-2.169,0-4.177-0.206-6.184c0-1.604-0.206-3.049-0.31-4.651c-0.206-1.366-0.306-2.729-0.306-4.179
	c-0.206-1.844-0.414-3.771-0.517-5.698c-0.104-0.882-0.104-1.925-0.203-2.888c0-0.24-0.21-0.401-0.21-0.726
	c-0.101-0.561-0.101-1.204,0.21-1.763c0.203-0.803,1.025-1.285,2.055-1.285c0.206,0,0.41,0,0.618,0.076
	c1.54,0.246,2.264,0.485,3.807,0.563c1.435,0,2.979,0.083,4.421,0.083c2.058,0.163,3.6,1.122,3.288,2.65v1.12
	c-0.104,0.886-0.206,1.769-0.511,2.653c-0.204,1.364-0.516,2.646-0.72,3.931c-0.308,1.124-0.516,2.248-0.621,3.293
	c-0.307,1.526-0.511,3.049-0.82,4.417c-0.104,0.958-0.104,1.844-0.206,2.805c-0.206,1.124-0.41,2.332-0.516,3.452
	c0,2.488-0.204,4.817-0.514,7.305v1.525c0,1.604,0.104,3.213,0,4.814c-0.309,1.689-0.309,3.533-0.309,5.225
	c0,1.762,0.309,3.607,0.309,5.374c0.104,1.203,0.206,2.406,0.206,3.612c0.308,4.577,0.617,8.992,2.059,13.482
	c0.309,0.726,0.309,1.528,0.104,2.329c-0.208,0.962-1.75,1.688-3.293,1.769c-1.647,0.079-2.676,0.237-4.421,0.237
	c-0.208,0-0.618,0-0.826,0.084c-0.408,0.079-0.72,0.079-1.027,0.079c-0.822,0-1.646-0.163-2.363-0.321
	c-1.646-0.24-2.266-1.203-2.571-2.567v-0.884c0-14.45-4.01-14.851-11.417-28.896c-0.723-1.528-2.88-5.22-3.909-6.665
	c-0.822-1.524-1.85-2.886-2.88-4.413c-0.204-0.081-0.308-0.16-0.409-0.323c-0.412-0.482-1.028-0.803-1.854-0.803
	c-0.309,0-0.72,0.082-1.028,0.161C411.907,50.373,411.598,50.932,411.705,51.576"/>
<path fill="#FFFFFF" d="M487.179,62.731v-3.208c0-0.644,0.312-1.125,0.415-1.525c0.408-0.722,1.232-1.204,2.26-1.204
	c0.21,0,0.414,0,0.72,0.08c1.134,0.244,2.369,0.646,3.602,0.806c1.543,0.318,3.087,0.479,4.627,0.479
	c1.543,0,3.188-0.16,4.834-0.563c1.134-0.239,2.366-0.479,3.496-0.479c1.751,0.075,2.677,0.801,2.677,2.165
	c0,0.803-0.103,1.604-0.103,2.485c-0.107,0.402-0.107,0.807-0.107,1.206c0,1.444-0.206,2.812-0.512,4.256v0.161
	c0,2.248-0.308,4.254-0.204,6.342c0,2.969,1.538,6.419,2.979,9.229c0.518,1.688,0.104,2.811-1.542,3.695
	c-1.13,0.721-2.471,1.444-3.599,2.166c-1.232,0.803-2.573,1.686-3.806,2.488c-4.217,2.167-8.537,4.092-13.78,4.092
	c-2.777,0-5.351-0.561-7.716-1.925c-1.025-0.481-1.848-1.045-2.468-1.846c-3.906-4.255-7.916-9.391-8.947-14.608
	c-0.514-2.172-1.336-4.255-1.848-6.424c-0.412-1.683-0.518-3.611-0.518-5.376c-0.103-2.005-0.103-4.094-0.206-6.024
	c-0.406-2.889-0.202-5.936-0.305-8.826c0-2.49,0.305-4.98,0.616-7.468c0.31-1.043,0.412-2.086,0.718-3.051
	c0.72-4.092,1.954-7.063,5.145-10.432c3.804-4.013,9.77-5.378,15.736-6.183c0.924-0.082,1.951-0.161,2.978-0.161
	c1.959,0,4.219,0.24,6.068,0.563c5.246,1.366,9.773,5.781,11.003,9.873c0.518,1.61,0.824,3.211,0.518,4.976
	c-0.615,3.291-1.543,5.781-5.964,7.145c-0.62,0.163-1.234,0.402-1.854,0.402c-0.408,0-0.824-0.079-1.232-0.323
	c-0.823-0.401-1.439-0.884-1.339-1.604c0-0.559,0-1.205,0.312-1.685c0.512-1.366,1.027-2.891,1.13-4.496
	c0.104-2.407-0.618-4.655-2.879-6.421c-0.724-0.801-1.854-1.445-3.086-1.605c-1.233-0.238-2.469-0.401-3.703-0.401
	c-4.524,0-8.949,2.405-11.211,5.378c-0.722,1.043-1.029,2.248-1.543,3.45c-0.82,2.333-1.336,4.736-1.643,7.145
	c-0.104,1.61-0.205,3.051-0.415,4.657c-0.097,1.043,0,2.165,0,3.21c-0.097,1.927-0.204,3.852-0.204,5.622
	c-0.101,1.122-0.101,2.325,0,3.366c0.204,1.85,0.414,3.695,0.926,5.46c0.206,1.367,0.308,2.648,0.516,3.855
	c0.926,5.458,4.321,16.211,13.267,16.211c0.82,0,1.75-0.075,2.777-0.157c1.128-0.241,2.262-0.402,3.497-0.801
	c3.701-1.767,5.45-5.38,5.45-8.667c0.204-0.809,0.307-1.449,0.307-2.412c0-1.768-0.307-3.611-0.616-5.381
	c-0.31-0.883-0.412-1.844-0.825-2.648c-0.717-1.684-2.981-3.206-5.653-3.206c-1.644,0-3.187,0.157-4.833,0.398
	c-0.207,0.081-0.518,0.081-0.722,0.081c-0.516,0-0.922-0.081-1.339-0.081C487.696,64.583,487.179,63.697,487.179,62.731"/>
</svg>
