<?xml version="1.0" encoding="utf-8"?>
<!-- Generator: Adobe Illustrator 16.0.0, SVG Export Plug-In . SVG Version: 6.00 Build 0)  -->
<!DOCTYPE svg PUBLIC "-//W3C//DTD SVG 1.1//EN" "http://www.w3.org/Graphics/SVG/1.1/DTD/svg11.dtd">
<svg version="1.1" id="Layer_1" xmlns="http://www.w3.org/2000/svg" xmlns:xlink="http://www.w3.org/1999/xlink" x="0px" y="0px"
	 width="300px" height="190px" viewBox="0 0 300 190" enable-background="new 0 0 300 190" xml:space="preserve">
<path d="M123.451,47.1c0.295,0.42,0.85,0.725,1.349,0.927c1.125,0.456,2.289,0.827,3.443,1.21c0.268,0.09,0.563,0.123,0.847,0.131
	c0.669,0.019,1.339,0.006,2.131,0.006v0.045c0.848-0.009,1.693-0.055,2.537-0.115c0.209-0.112,0.46-0.2,0.776-0.268
	c0.874-0.188,1.728-0.475,2.605-0.648c1.089-0.215,1.719-1.025,2.438-1.726c0.482-0.468,0.945-0.953,1.493-1.507
	c0.34-0.779,0.686-1.716,1.145-2.592c0.728-1.389,0.516-2.895,0.634-4.355c0.066-0.834,0.083-1.693-0.041-2.516
	c-0.291-1.939-0.945-3.897-2.357-5.18c-1.778-1.618-3.782-3.084-6.364-3.473c-2.72-0.41-5.376-0.515-7.833,0.912
	c-2.531,1.472-4.576,3.365-5.234,6.39c-0.247,1.139-0.68,2.238-1.003,3.362c-0.41,1.428,0.23,2.699,0.615,4.017
	C121.214,43.703,122.281,45.432,123.451,47.1 M121.564,38.672c0.312-1.105,0.64-2.209,1.002-3.299
	c0.306-0.915,0.599-1.843,1.019-2.708c0.504-1.038,1.256-1.866,2.385-2.345c1.041-0.442,1.997-1.079,3.039-1.514
	c0.542-0.225,1.189-0.266,1.79-0.274c0.973-0.016,1.947,0.063,2.919,0.108c0.268,0.013,0.586-0.042,0.793,0.08
	c1.65,0.98,3.493,1.676,4.756,3.243c0.281,0.349,0.506,0.662,0.481,1.01c0.088,0.154,0.155,0.317,0.201,0.489
	c0.135,0.167,0.241,0.357,0.315,0.56c0.074,0.025,0.151,0.052,0.235,0.081c0.185,1.169,0.453,2.428,0.561,3.7
	c0.083,0.968,0.047,1.965-0.098,2.925c-0.084,0.562-0.498,1.071-0.741,1.614c-0.242,0.534-0.377,1.133-0.696,1.616
	c-1.499,2.274-3.274,3.335-6.187,3.724c-0.006-0.061-0.011-0.123-0.018-0.184c-1.064,0.494-2.096,0.443-2.916-0.043
	c-1.193-0.326-2.389-0.652-3.588-0.977c-0.337-0.09-0.691-0.135-1.021-0.25c-0.302-0.106-0.645-0.22-0.856-0.438
	c-1.757-1.795-2.861-3.937-3.348-6.391C121.544,39.164,121.5,38.896,121.564,38.672"/>
<path d="M213.077,94.443c-0.289,0.307-0.395,0.789-0.559,1.203c-2.177,5.517-7.188,7.961-11.67,10.982
	c-0.137-0.12-0.272-0.239-0.409-0.358c1.072-1.371,2.084-2.795,3.228-4.104c3.809-4.359,5.467-9.604,6.397-15.139
	c0.128-0.764-0.218-1.604-0.345-2.409c-0.254-0.04-0.51-0.08-0.765-0.121c-0.349,0.803-0.877,1.577-1.019,2.414
	c-0.999,5.939-3.285,11.372-6.519,16.42c-0.768,1.201-1.896,2.178-2.858,3.259c-0.141-0.126-0.278-0.253-0.418-0.377
	c0.65-1.064,1.514-2.055,1.908-3.202c1.413-4.119,2.836-8.25,3.927-12.458c0.755-2.915,1.069-5.955,1.382-8.962
	c0.138-1.317-0.038-2.765-1.846-4.115c-0.187,1.41-0.49,2.373-0.407,3.303c0.499,5.563-0.524,10.917-2.211,16.166
	c-0.604,1.876-1.521,3.653-2.293,5.477c-0.26-0.072-0.521-0.145-0.781-0.217c-0.021-4.869-0.054-9.737-0.059-14.606
	c-0.006-4.966,0.075-9.93-0.04-14.892c-0.018-0.748-0.896-1.477-1.377-2.215c-0.367,0.646-1.024,1.281-1.05,1.94
	c-0.09,2.274-0.018,4.561,0.095,6.837c0.25,5.099,0.604,10.192,0.823,15.293c0.117,2.68,0.043,5.37,0.054,8.055
	c-3.773-6.779-5.549-13.916-5.11-21.551c0.05-0.861-0.206-1.739-0.322-2.61c-0.25-0.024-0.501-0.048-0.753-0.073
	c-0.303,0.67-0.854,1.331-0.868,2.007c-0.05,2.133-0.287,4.368,0.244,6.386c1.665,6.34,2.324,13.03,6.144,18.682
	c0.094,0.139,0.014,0.393,0.015,0.594c-0.143,0.09-0.287,0.178-0.432,0.267c-1.061-1.436-2.225-2.81-3.169-4.318
	c-2.865-4.585-4.418-9.695-5.869-14.839c-0.199-0.709-0.542-1.377-0.819-2.064c-0.286,0.079-0.571,0.16-0.858,0.241
	c-0.773,4.255,1.053,8.13,2.933,11.729c1.895,3.628,4.604,6.842,7.231,10.634c-2.646-1.795-4.889-3.378-7.192-4.867
	c-3.029-1.957-4.649-4.921-6.146-8.023c-0.227-0.469-0.959-0.698-1.458-1.039c-0.202,0.581-0.718,1.282-0.546,1.72
	c0.53,1.356,1.035,2.927,2.063,3.849c3.366,3.018,6.855,5.926,10.5,8.605c3.411,2.507,7.04,2.432,10.419-0.114
	c3.674-2.766,7.255-5.671,10.672-8.738c1.081-0.97,1.604-2.616,2.174-4.035c0.169-0.42-0.376-1.122-0.594-1.695
	C214.033,93.716,213.482,94.012,213.077,94.443"/>
<path d="M109.552,48.373c0.979,0,1.771-0.787,1.771-1.758s-0.793-1.756-1.771-1.756s-1.771,0.785-1.771,1.756
	S108.574,48.373,109.552,48.373"/>
<path d="M97.957,69.936c0.979,0,1.771-0.786,1.771-1.756c0-0.971-0.792-1.757-1.771-1.757c-0.979,0-1.771,0.786-1.771,1.757
	C96.186,69.149,96.979,69.936,97.957,69.936"/>
<path d="M112.769,63.002c0.979,0,1.772-0.787,1.772-1.755c0-0.972-0.793-1.757-1.772-1.757s-1.771,0.785-1.771,1.757
	C110.997,62.215,111.79,63.002,112.769,63.002"/>
<path d="M122.863,106.109c-0.958-0.196-1.895,0.413-2.094,1.362c-0.199,0.951,0.418,1.881,1.377,2.077
	c0.957,0.196,1.895-0.414,2.094-1.363C124.438,107.236,123.822,106.307,122.863,106.109"/>
<path d="M135.874,97.559c0.198-0.95-0.417-1.88-1.376-2.076c-0.957-0.197-1.895,0.414-2.094,1.363
	c-0.198,0.95,0.417,1.88,1.375,2.076C134.738,99.118,135.675,98.509,135.874,97.559"/>
<path d="M190.971,66.644c0.819,0.53,1.918,0.3,2.451-0.512c0.535-0.813,0.303-1.901-0.517-2.431c-0.82-0.53-1.917-0.301-2.452,0.513
	S190.15,66.113,190.971,66.644"/>
<path d="M200.577,55.24c0.818,0.53,1.917,0.3,2.451-0.514c0.535-0.811,0.303-1.9-0.516-2.43c-0.821-0.529-1.919-0.299-2.452,0.514
	C199.525,53.623,199.758,54.711,200.577,55.24"/>
<path d="M192.905,44.325c-0.82-0.53-1.917-0.3-2.452,0.513s-0.303,1.9,0.518,2.431c0.819,0.528,1.917,0.3,2.451-0.515
	C193.955,45.942,193.725,44.855,192.905,44.325"/>
<path d="M186.711,34.081c-0.385-1.717-1.747-2.75-3.093-3.679c-0.988-0.683-2.214-1.076-3.371-1.497
	c-2.027-0.737-4.103-1.314-6.295-1.392c-0.731-0.024-1.531,0.027-2.178-0.236c-1.965-0.803-3.9-1.684-5.789-2.642
	c-2.302-1.17-4.625-2.268-7.159-2.897c-0.656-0.163-1.466,0.014-1.653,0.442c-0.203,0.46-0.371,0.951-0.454,1.442
	c-0.178,1.023-0.327,2.052-0.418,3.084c-0.229,2.594-0.427,5.19-0.613,7.787c-0.037,0.512,0.351,0.798,0.816,0.76
	c1.514-0.123,3.026-0.287,4.543-0.322c1.556-0.039,2.519,0.967,2.553,2.463c0.019,0.898,0.06,1.799,0.121,2.695
	c0.114,1.625,0.373,3.25,0.342,4.871c-0.03,1.519-0.084,3.043-0.757,4.524c-0.495,1.095-1.059,2.043-2.035,2.761
	c-0.936,0.688-1.883,1.364-2.825,2.045c-0.754,0.545-1.481,1.13-2.274,1.617c-0.595,0.367-1.276,0.604-1.916,0.903
	c-0.476,0.222-0.931,0.498-1.424,0.673c-1.819,0.641-3.647,1.271-5.486,1.865c-2.006,0.65-4.028,1.252-6.041,1.881
	c-0.918,0.287-1.835,0.578-2.745,0.889c-1.471,0.5-2.931,1.027-4.402,1.524c-0.804,0.271-1.634,0.472-2.429,0.764
	c-0.901,0.332-1.838,0.634-2.647,1.12c-1.642,0.984-3.243,1.967-5.178,2.412c-1.084,0.25-2.238,0.623-2.858,1.722
	c-0.118,0.211-0.418,0.337-0.648,0.481c-0.606,0.389-1.271,0.706-1.821,1.156c-1.195,0.975-2.334,2.01-3.489,3.029
	c-1.038,0.916-2.063,1.844-3.1,2.76c-0.661,0.584-1.339,1.149-1.997,1.735c-0.75,0.671-1.528,1.317-2.215,2.043
	c-0.732,0.774-1.343,1.653-2.06,2.441c-0.39,0.431-0.84,0.86-1.353,1.128c-1.694,0.885-2.907,2.209-4.055,3.653
	c-0.878,1.104-1.92,2.091-2.912,3.109c-0.405,0.417-0.917,0.742-1.296,1.177c-0.801,0.912-1.525,1.887-2.321,2.805
	c-0.959,1.105-2.018,2.136-2.927,3.278c-1.13,1.423-2.195,2.899-3.197,4.408c-0.45,0.68-0.465,1.489,0.133,2.172
	c0.595,0.679,1.372,0.819,2.243,0.629c0.298-0.064,0.597-0.122,0.925-0.188c-0.389,1.496,0.08,2.255,1.491,2.202
	c0.859-0.032,1.704-0.403,2.581-0.63c0.388,0.86,0.39,0.897,1.617,0.819c1.316-0.083,2.624-0.243,3.901-0.367
	c-0.404,0.638-0.912,1.354-1.321,2.119c-0.194,0.363-0.399,0.921-0.239,1.204c0.156,0.28,0.763,0.438,1.18,0.454
	c2.018,0.076,3.777-0.654,5.218-1.936c1.367-1.214,2.569-2.6,3.85-3.905c0.169-0.171,0.386-0.3,0.567-0.463
	c0.442-0.393,0.889-0.782,1.307-1.198c0.169-0.17,0.242-0.428,0.402-0.608c0.838-0.943,1.69-1.878,2.536-2.814
	c0.724-0.803,1.359-1.703,2.188-2.386c1.995-1.645,4.018-3.272,6.148-4.747c1.999-1.385,4.102-2.646,6.247-3.814
	c4.361-2.377,9.041-4.008,13.897-5.184c0.679-0.166,1.368-0.291,2.2-0.467c-0.292,0.566-0.438,1.061-0.753,1.417
	c-0.955,1.089-1.979,2.121-2.968,3.181c-0.364,0.39-0.76,0.766-1.049,1.206c-0.357,0.54,0.148,0.964,0.312,1.448
	c0.649,1.932,1.319,3.867,1.793,5.842c0.311,1.303,0.249,2.682,0.443,4.017c0.165,1.128-0.169,2.231,0.175,3.413
	c0.313,1.074-0.049,2.339-0.175,3.516c-0.044,0.406-0.356,0.787-0.403,1.192c-0.086,0.73-0.601,1.025-1.205,1.082
	c-0.812,0.077-1.644,0.019-2.462-0.039c-0.795-0.059-1.597-0.326-2.374-0.263c-1.551,0.128-2.445,1.238-3.274,2.354
	c-0.283,0.382,0.105,0.996,0.608,0.964c0.934-0.057,1.87-0.127,2.793-0.265c2.316-0.346,4.6-0.817,6.974-0.87
	c3.585-0.078,7.167-0.22,10.705,0.42c2.483,0.447,4.935,1.051,7.404,1.567c0.231,0.048,0.495-0.04,0.778-0.068
	c-0.198-0.427-0.37-0.692-0.447-0.983c-0.373-1.394-1.525-2.215-3.004-2.094c-0.437,0.036-0.874,0.182-1.303,0.158
	c-0.782-0.039-1.558-0.168-2.335-0.26c0.011-0.065,0.02-0.133,0.029-0.199c1.2,0,2.417,0.121,3.594-0.033
	c1.218-0.163,2.052,0.176,2.676,1.136c0.112,0.169,0.207,0.357,0.352,0.492c0.137,0.125,0.333,0.188,0.505,0.28
	c0.072-0.174,0.236-0.366,0.202-0.517c-0.188-0.804-0.424-1.6-0.641-2.381c1.487,0,3.098-0.045,4.703,0.011
	c2.608,0.088,5.217,0.237,7.824,0.371c1.589,0.08,3.177,0.165,4.764,0.28c0.707,0.051,1.406,0.192,2.111,0.272
	c0.196,0.021,0.399-0.028,0.602-0.046c-0.042-0.192-0.02-0.44-0.135-0.57c-0.83-0.928-1.69-1.83-2.537-2.744
	c-0.46-0.497-0.919-0.585-1.571-0.229c-1.423,0.777-3.014,0.962-4.633,0.97c1.375-0.381,2.749-0.762,4.124-1.144
	c0.038-0.071,0.079-0.143,0.119-0.216c-0.171-0.158-0.331-0.433-0.518-0.452c-0.462-0.05-0.979-0.088-1.401,0.063
	c-1.374,0.486-2.723,0.979-4.233,0.772c-0.453-0.063-0.921-0.01-1.382-0.034c-0.299-0.017-0.642,0.003-0.888-0.128
	c-1.326-0.708-2.418-1.707-3.063-3.001c-0.865-1.73-1.656-3.514-2.256-5.342c-0.746-2.281-1.143-4.633-0.801-7.063
	c0.416-2.955,1.738-5.516,3.423-7.969c0.764-1.113,1.745-1.702,3.06-2.059c2.648-0.715,4.854-2.141,6.556-4.236
	c1.611-1.984,2.651-4.248,3.35-6.652c1.163-3.996,1.964-8.039,1.747-12.23c-0.12-2.371-0.624-4.639-1.493-6.846
	c-0.825-2.092-1.729-4.16-2.467-6.282c-0.493-1.416-0.965-2.884-0.572-4.425c0.004-0.012,0.007-0.023,0.008-0.035
	c-0.066-0.881,0.036-1.766,0.327-2.684c0.33-2.004,2.125-3.755,4.314-4.019c1.774-0.213,3.383,0.243,4.862,1.171
	c0.428,0.27,0.828,0.359,1.06-0.188C186.767,34.582,186.761,34.308,186.711,34.081 M166.988,107.821
	c-0.636,0-1.271,0.022-1.906-0.009c-0.452-0.023-1.056,0.022-1.303-0.226c-0.226-0.228-0.035-0.813-0.068-1.238
	c-0.077-0.985-0.176-1.971-0.274-3.043C164.303,105.071,165.391,106.586,166.988,107.821 M163.922,33.99
	c-2.342-0.154-4.666-0.308-7.009-0.463c-0.202-1.086-0.036-1.21,1.188-1.344c1.659-0.183,3.246-0.002,4.777,0.604
	c0.378,0.149,0.641,0.055,0.7-0.258c0.041-0.216-0.099-0.613-0.273-0.693c-0.954-0.43-1.921-0.806-3.023-0.809
	c-0.903-0.003-1.811-0.135-2.711-0.256c-0.208-0.028-0.554-0.25-0.55-0.37c0.013-0.22,0.213-0.589,0.379-0.615
	c0.569-0.088,1.191-0.177,1.729-0.038c1.218,0.316,2.397,0.767,3.594,1.166c0.152,0.05,0.302,0.17,0.448,0.164
	c0.18-0.009,0.454-0.076,0.505-0.191c0.057-0.135-0.021-0.416-0.145-0.519c-1.178-0.989-2.623-1.419-4.108-1.743
	c-0.534-0.117-1.079-0.193-1.618-0.289c-0.398-0.069-0.609-0.281-0.54-0.686c0.075-0.435,0.398-0.481,0.773-0.438
	c1.699,0.196,3.215,0.875,4.697,1.646c0.322,0.169,0.65,0.346,0.999,0.449c0.177,0.052,0.402-0.055,0.604-0.089
	c-0.066-0.184-0.082-0.417-0.211-0.542c-1.402-1.364-3.209-1.987-5.072-2.501c-0.353-0.097-0.715-0.178-1.043-0.327
	c-0.174-0.082-0.284-0.294-0.423-0.447c0.22-0.127,0.45-0.378,0.655-0.358c0.545,0.049,1.122,0.129,1.608,0.353
	c1.181,0.542,2.313,1.178,3.473,1.764c0.664,0.336,1.34,0.651,2.012,0.975c0.077-0.038,0.153-0.077,0.231-0.117
	c-0.036-0.257-0.017-0.54-0.124-0.766c-0.1-0.208-0.301-0.415-0.513-0.525c-1.657-0.858-3.318-1.708-4.999-2.523
	c-0.359-0.175-0.799-0.198-1.199-0.286c-0.772-0.167-0.835-0.281-0.53-1.106c3.975,0.896,7.436,2.717,10.605,5.285
	C165.531,30.118,164.645,31.216,163.922,33.99 M90.706,103.695c-0.361,0.269-0.95,0.257-1.433,0.373
	c0.134-0.419,0.187-0.886,0.414-1.249c1.522-2.428,3.443-4.554,5.486-6.584c4.162-4.137,8.317-8.28,12.484-12.413
	c0.432-0.43,0.921-0.807,1.424-1.242c0.854,0.718,0.886,1.475,0.128,2.58c-0.089,0.129-0.197,0.248-0.302,0.365
	c-1.5,1.658-2.992,3.324-4.506,4.973c-0.516,0.561-1.126,1.045-1.628,1.616c-0.768,0.874-1.472,1.802-2.22,2.693
	c-1.059,1.263-1.996,2.657-3.232,3.737C95.222,100.376,92.949,102.024,90.706,103.695 M94.18,105.387
	c-0.259,0.213-0.582,0.368-0.897,0.499c-0.14,0.06-0.336-0.008-0.507-0.017c0.045-0.154,0.046-0.343,0.143-0.455
	c1.248-1.427,2.532-2.824,3.762-4.265c1.464-1.715,2.852-3.488,4.335-5.185c1.083-1.238,2.249-2.413,3.41-3.584
	c1.237-1.25,2.531-2.45,3.768-3.699c1.559-1.573,3.083-3.176,4.626-4.764c0.073-0.076,0.174-0.154,0.275-0.174
	c0.998-0.215,1.998-0.417,3.098-0.645c-0.596,0.641-1.161,1.265-1.744,1.871c-1.944,2.02-3.93,4.003-5.834,6.056
	c-1.922,2.07-3.831,4.159-5.622,6.334c-1.273,1.544-2.683,2.928-4.232,4.202C97.223,102.826,95.716,104.122,94.18,105.387
	 M99.104,106.056c-0.69,0.183-1.431,0.19-2.148,0.278c-0.04-0.058-0.079-0.113-0.119-0.172c0.383-0.449,0.75-0.913,1.15-1.348
	c2.397-2.611,4.796-5.222,7.208-7.821c1.75-1.886,3.54-3.737,5.282-5.63c0.84-0.912,1.578-1.912,2.422-2.82
	c1.119-1.207,2.271-2.387,3.456-3.533c1.781-1.723,3.604-3.408,5.413-5.105c0.096-0.091,0.232-0.143,0.482-0.294
	c0.084,0.806-0.204,1.388-0.591,1.892c-0.974,1.265-2.002,2.489-3.005,3.734c-0.809,1.005-1.591,2.031-2.424,3.018
	c-0.771,0.911-1.561,1.813-2.405,2.662c-0.795,0.8-1.747,1.463-2.493,2.301c-0.723,0.811-1.255,1.774-1.9,2.652
	c-0.507,0.689-1.055,1.351-1.588,2.021c-1.326,1.674-2.61,3.379-3.994,5.007C102.598,104.373,101.06,105.54,99.104,106.056
	 M111.185,100.594c-0.933,0.976-1.769,2.037-2.643,3.064c-1.603,1.886-3.079,3.892-5.286,5.206c-0.464,0.274-0.99,0.453-1.487,0.677
	c-0.064-0.062-0.129-0.122-0.193-0.183c0.702-1.213,1.352-2.456,2.118-3.63c1.042-1.595,2.096-3.193,3.284-4.686
	c1.242-1.563,2.671-2.989,3.975-4.508c0.666-0.775,1.234-1.627,1.855-2.439c0.297-0.387,0.595-0.777,0.924-1.142
	c1.615-1.792,3.255-3.563,4.858-5.364c0.776-0.871,1.5-1.785,2.23-2.694c0.854-1.062,1.687-2.198,2.943-2.792
	c0.637-0.299,1.544-0.164,2.311-0.074c0.408,0.047,0.313,0.434,0.077,0.734c-1.041,1.334-2.057,2.686-3.096,4.02
	c-1.58,2.031-3.213,4.023-4.745,6.084C116.215,95.688,113.607,98.058,111.185,100.594 M143.878,97.908
	c-0.161-1.039-0.328-2.076-0.479-3.117c-0.234-1.613-0.493-3.225-0.654-4.845c-0.038-0.379,0.151-0.937,0.443-1.162
	c1.551-1.196,2.76-2.638,3.829-4.241c0.629-0.945,1.602-1.58,2.868-1.645c1.054-0.057,2.103-0.163,3.233-0.254
	c-0.044,0.719-0.47,1.128-0.995,1.504c-0.732,0.527-1.494,1.033-2.138,1.652c-0.46,0.445-0.755,1.051-1.106,1.596
	c-1.012,1.583-2.041,3.156-3.005,4.768c-0.268,0.445-0.324,1.008-0.488,1.516c-0.457,1.416-0.918,2.831-1.379,4.247
	C143.963,97.921,143.92,97.915,143.878,97.908 M144.389,109.319c0.098-0.791,0.175-1.412,0.261-2.103
	c0.429,0.627,0.822,1.202,1.347,1.97C145.39,109.236,144.908,109.277,144.389,109.319 M161.517,107.444
	c-0.887,0.438-1.835,0.356-2.748,0.289c-1.069-0.08-2.125-0.328-3.183-0.519c-0.424-0.074-1.67,0.532-1.762,0.924
	c-0.111,0.472,0.293,0.435,0.576,0.425c0.806-0.026,1.608-0.091,2.411-0.129c0.094-0.004,0.191,0.07,0.284,0.242
	c-0.385,0.033-0.773,0.095-1.158,0.098c-1.887,0.019-3.781-0.076-5.655,0.069c-1.204,0.095-2.155-0.149-3.005-0.925
	c-0.831-0.758-1.303-1.692-1.535-2.757c-0.847-3.891-0.074-7.6,1.41-11.214c0.834-2.026,1.955-3.905,3.365-5.619
	c1.909-2.323,4.155-4.284,6.896-5.661c0.528-0.266,1.241-0.192,2.094-0.305c-0.371,0.676-0.566,1.205-0.907,1.627
	c-0.932,1.154-1.924,2.263-2.891,3.389c-0.709,0.828-0.598,0.844,0.008,1.713c0.685,0.982,1.204,2.082,1.692,3.174
	c0.406,0.91,0.646,1.889,1,2.822c0.113,0.299,0.437,0.532,0.527,0.834c0.196,0.651,0.269,1.34,0.464,1.993
	c0.13,0.431,0.396,0.822,0.58,1.242c0.391,0.892,0.799,1.777,1.136,2.686c0.261,0.704,0.442,1.435,0.628,2.16
	c0.186,0.724,0.384,1.452,0.48,2.188C162.291,106.716,162.079,107.166,161.517,107.444 M163.188,84.035
	c-0.891,0.658-0.895,1.74-1.284,2.639c-0.077,0.179-0.072,0.393-0.15,0.57c-0.3,0.686-0.588,1.379-0.936,2.041
	c-0.688,1.316-0.422,2.67-0.239,4.029c0.092,0.691,0.124,1.388,0.181,2.083c-0.101,0.015-0.203,0.032-0.305,0.048
	c-0.681-1.852-1.259-3.746-2.071-5.543c-0.71-1.568-0.408-2.744,0.815-3.911c0.556-0.528,0.832-1.317,1.298-1.944
	c0.415-0.553,0.828-1.194,1.408-1.519c0.563-0.313,1.34-0.273,2.081-0.399C163.9,82.939,163.813,83.574,163.188,84.035
	 M180.001,32.317c-2.253,0.5-3.758,1.82-4.736,3.755c-0.75,1.482-0.92,3.089-0.968,4.711c-0.012,0.401-0.025,0.804-0.038,1.206
	c0.171,1.632,0.608,3.225,1.01,4.823c0.045,0.057,0.091,0.115,0.136,0.172c0.244,0.314,0.498,0.656,0.605,1.024
	c0.331,1.129,0.583,2.277,0.891,3.412c0.089,0.332,0.188,0.703,0.41,0.952c0.518,0.58,0.658,1.24,0.706,1.969
	c0.049,0.752,0.11,1.51,0.279,2.242c0.063,0.268,0.077,0.527,0.064,0.785c0.815,1.896,0.514,4.574-0.07,6.602
	c-0.063,2.859-0.465,5.653-1.923,8.189c-0.729,1.271-1.814,2.35-2.575,3.609c-0.533,0.877-1.302,1.334-2.151,1.811
	c-0.705,0.395-1.297,0.978-1.997,1.385c-0.298,0.171-0.751,0.073-1.12,0.15c-0.64,0.134-1.376,0.162-1.877,0.501
	c-0.939,0.634-1.988,0.526-2.993,0.657c-1.207,0.156-2.434,0.162-3.651,0.237c-0.414,0.024-0.827,0.067-1.241,0.09
	c-1.141,0.062-2.282,0.16-3.425,0.159c-0.938,0-1.877-0.137-2.816-0.193c-1.103-0.066-2.141,0.193-3.203,0.471
	c-1.145,0.299-2.363,0.332-3.549,0.496c-0.546,0.074-1.106,0.133-1.629,0.293c-2.173,0.658-4.337,1.35-6.501,2.033
	c-3.039,0.961-6.093,1.879-9.104,2.914c-0.86,0.295-1.637,0.879-2.376,1.426c-1.375,1.016-2.895,1.762-4.544,2.365
	c0.617-0.861,1.2-1.748,1.856-2.582c1.473-1.871,2.893-3.792,4.508-5.545c1.122-1.219,2.534-2.193,3.864-3.315
	c0.749,0.728,1.561,1.126,2.457,0.94c1.849-0.383,3.756-0.651,5.334-1.796c0.053-0.04,0.124-0.056,0.1-0.044
	c0.844,0.537,1.621,1.076,2.444,1.537c0.282,0.157,0.684,0.172,1.03,0.166c2.456-0.049,4.399-1.143,6.055-2.797
	c1.533,1.721,3.787,1.703,5.577,0.682c2.094-1.195,4.056-2.611,6.045-3.973c1.793-1.229,2.769-3.099,3.937-4.813
	c0.966-1.413,1.896-2.846,2.497-4.437c-0.012-0.124,0-0.259,0.033-0.397c0.241-0.989,0.6-1.953,1.011-2.897
	c0.104-0.413,0.221-0.823,0.363-1.218c-0.063-1.152-0.054-2.311,0.057-3.48c0.06-0.648,0.181-1.439-0.397-2.084
	c-0.199-0.224-0.098-0.686-0.169-1.033c-0.044-0.215-0.157-0.418-0.241-0.627c-0.066-0.002-0.134-0.004-0.2-0.006
	c-0.075,0.203-0.202,0.404-0.213,0.612c-0.087,1.829-0.076,3.665-0.255,5.486c-0.099,1.021-0.359,2.075-0.791,3.009
	c-0.978,2.109-1.978,4.229-3.22,6.197c-0.921,1.463-2.195,2.732-3.392,4.022c-1.698,1.829-3.79,3.179-6.057,4.278
	c-0.83,0.402-1.705,0.603-2.603,0.099c-0.789-0.442-0.965-0.778-0.752-1.636c0.278-1.118,1.165-1.649,2.177-2.051
	c0.894-0.355,1.791-0.697,2.685-1.054c0.183-0.073,0.347-0.188,0.521-0.283c-0.013-0.068-0.022-0.138-0.033-0.208
	c-0.456,0.025-0.911,0.031-1.363,0.079c-1.098,0.116-2.02,0.638-3.007,1.071c-1.612,0.705-2.477,2.159-3.854,3.061
	c-1.396,0.908-2.582,2.188-4.4,2.358c-0.353,0.034-0.719-0.062-1.145-0.103c0.48-1.215,1.344-1.938,2.193-2.672
	c0.839-0.726,1.683-1.444,2.531-2.16c0.552-0.465,1.12-0.912,1.673-1.376c0.552-0.464,1.104-0.931,1.633-1.421
	c0.094-0.086,0.073-0.285,0.105-0.432c-0.227-0.013-0.52-0.117-0.668-0.021c-0.668,0.439-1.287,0.944-1.938,1.407
	c-0.996,0.712-1.983,1.44-3.012,2.106c-1.491,0.967-2.993,1.925-4.536,2.813c-1.21,0.698-2.486,1.297-3.746,1.91
	c-0.234,0.113-0.544,0.07-0.812,0.127c-0.438,0.095-0.882,0.014-0.949-0.41c-0.049-0.306,0.147-0.74,0.385-0.979
	c0.469-0.474,1.038-0.861,1.576-1.27c1.25-0.95,2.518-1.879,3.755-2.842c0.292-0.227,0.499-0.554,0.745-0.837
	c-0.042-0.075-0.084-0.149-0.128-0.224c-0.197,0.041-0.431,0.031-0.587,0.132c-1.778,1.15-3.524,2.347-5.321,3.47
	c-1.036,0.646-2.167,1.152-3.222,1.773c-1.333,0.789-2.649,1.609-3.941,2.458c-0.942,0.62-2.021,0.532-3.058,0.615
	c-0.414,0.032-0.597-0.422-0.398-0.744c0.332-0.542,0.699-1.108,1.191-1.503c0.882-0.705,1.868-1.291,2.812-1.923
	c0.777-0.522,1.558-1.039,2.333-1.563c0.093-0.063,0.2-0.149,0.231-0.244c0.054-0.168,0.053-0.352,0.074-0.53
	c-0.169,0.018-0.364-0.013-0.503,0.058c-0.588,0.301-1.141,0.673-1.743,0.944c-4.175,1.888-8.239,3.97-12.162,6.308
	c-1.033,0.615-2.1,1.283-3.376,1.238c-0.527-0.019-1.07-0.303-1.545-0.566c-0.138-0.077-0.183-0.57-0.067-0.756
	c0.307-0.486,0.678-0.953,1.105-1.346c1.534-1.414,3.062-2.839,4.673-4.168c0.832-0.687,1.766-1.422,2.782-1.696
	c1.165-0.315,1.985-1.009,2.915-1.601c1.085-0.691,2.109-1.479,3.229-2.111c0.866-0.49,1.837-0.809,2.758-1.207
	c1.695-0.738,3.419-1.424,5.072-2.24c1.19-0.59,2.389-1.117,3.69-1.412c1.141-0.26,2.29-0.484,3.437-0.725
	c0.113-0.022,0.238-0.014,0.34-0.058c1.099-0.481,2.189-0.977,3.289-1.453c0.562-0.241,1.14-0.452,1.712-0.675
	c0.19-0.074,0.421-0.098,0.578-0.213c1.625-1.189,3.625-1.516,5.459-2.219c0.558-0.212,1.12-0.412,1.683-0.609
	c1.185-0.416,2.388-0.791,3.556-1.247c1.093-0.431,2.099-1.019,2.894-1.886c0.668-0.73,1.305-1.49,1.997-2.196
	c1.274-1.295,1.992-2.871,2.448-4.55c0.357-1.321,0.628-2.674,0.79-4.03c0.086-0.722-0.124-1.481-0.232-2.22
	c-0.116-0.811-0.357-1.612-0.388-2.424c-0.063-1.697-0.145-3.408,0-5.096c0.225-2.648,1.544-4.7,4.235-5.638
	c1.076-0.375,2.293-0.604,3.43-0.552c3.381,0.15,6.628,0.926,9.653,2.435c0.487,0.243,0.937,0.558,1.399,0.845
	c0.048,0.031,0.068,0.103,0.16,0.25C182.816,32.066,181.44,31.997,180.001,32.317"/>
<path d="M172.118,31.779c-1.031,0.513-1.958,0.973-2.883,1.433c-0.039-0.07-0.079-0.138-0.117-0.207
	c0.759-1.388,2.001-2.23,3.579-2.495c1.02-0.171,2.094-0.062,3.146-0.031c0.386,0.012,0.83,0.119,0.791,0.642
	c-0.038,0.518-0.359,0.808-0.905,0.803c-0.382-0.005-0.759-0.06-1.146-0.093c0.09,1.207-0.356,1.845-1.261,1.841
	C172.479,33.669,172.096,33.125,172.118,31.779"/>
<path d="M48.748,145.543c0.254,0.277,0.609,0.474,0.963,0.631c0.709,0.237,1.418,0.554,1.976,0.871
	c1.114,0.71,2.027,1.504,2.634,2.529c0.759,1.345,1.521,2.73,1.671,4.193c0.102,0.67-0.151,1.265-0.253,1.857
	c-0.304,1.067-0.659,2.057-1.063,3.083c-0.407,0.95-1.166,1.78-2.179,2.374c-2.837,1.778-6.079,3.162-9.828,3.162
	c-0.152,0-0.355-0.04-0.508-0.04c-0.658-0.037-1.418-0.037-2.177-0.118c-0.709-0.078-1.419-0.158-2.128-0.275
	c-0.913-0.079-1.824-0.198-2.685-0.436c-0.609-0.158-0.912-0.515-0.962-0.948c-0.051-0.238,0.05-0.476,0.101-0.751
	c0.252-0.911,0.506-1.819,0.761-2.769c0.153-0.396,0.153-0.711,0.202-1.069c0.05-0.512,0.151-0.987,0.254-1.422
	c0.05-0.473,0.151-0.909,0.201-1.346c0.051-0.514,0.102-0.987,0.102-1.502c0.102-0.988,0.102-2.016,0.204-3.005
	c0.151-1.027,0-2.057,0.049-3.124c0.152-1.661,0.152-3.281,0.152-4.943c0-0.79-0.152-1.579-0.201-2.371
	c-0.051-0.119-0.051-0.317-0.051-0.475c0-0.832-0.152-1.741-0.304-2.569c-0.506-1.98-1.013-3.876-1.925-5.774
	c-0.05-0.196-0.102-0.316-0.202-0.513c-0.152-0.477,0-0.87,0.658-1.07c0.455-0.155,1.014-0.275,1.519-0.316
	c1.216-0.235,2.483-0.196,3.75-0.235c0.81,0,1.671-0.119,2.533-0.158h1.063c0.354,0,0.709,0,1.064,0.039
	c0.456,0.119,0.911,0.119,1.316,0.119c0.964,0.079,1.927,0.197,2.787,0.436c1.014,0.197,1.875,0.71,2.432,1.344
	c0.557,0.475,0.962,1.068,1.368,1.661c1.267,1.661,2.128,2.847,2.229,4.862c0.052,0.831,0,1.62-0.303,2.412
	c-0.405,0.99-1.063,1.897-1.975,2.609c-0.761,0.673-1.52,1.266-2.483,1.74c-0.303,0.197-0.607,0.355-0.76,0.751V145.543z
	 M49.61,136.566c-0.102-0.2-0.153-0.396-0.204-0.515c-1.316-2.057-3.089-4.191-6.433-4.191c-0.253,0-0.456,0-0.709,0.04
	c-0.456,0.039-0.912,0.197-1.215,0.474c-1.013,0.792-1.369,1.979-1.52,3.085c-0.153,0.87,0.05,1.701,0.102,2.569
	c0.151,0.633,0.253,1.227,0.354,1.818c0.051,0.594,0.051,1.187,0.102,1.78c0,0.276,0.049,0.556,0.151,0.831
	c0.102,0.355,0.253,0.752,0.507,1.107c0.457,0.554,1.063,0.632,1.875,0.632c0.81-0.158,1.57-0.515,2.331-0.789
	C48.445,141.903,49.61,139.571,49.61,136.566 M51.18,152.146c-0.253-0.87-0.709-1.779-1.52-2.53
	c-0.254-0.198-0.455-0.398-0.658-0.634c-1.317-1.186-2.838-2.017-4.864-2.174c-1.571,0-3.446,0.038-3.85,1.503
	c-0.153,0.196-0.153,0.434-0.202,0.631c-0.051,0.792-0.203,1.541-0.254,2.334c-0.051,1.305-0.101,2.649-0.101,3.954
	c-0.101,0.396-0.152,0.791-0.101,1.187c0.101,0.83,0.151,1.661,0.354,2.491c0.102,1.029,0.759,2.056,2.127,2.333
	c0.152,0.039,0.355,0.039,0.507,0.039c0.405,0,0.81-0.079,1.215-0.118c4.762-1.225,7.448-3.204,7.6-7.434
	C51.383,153.37,51.282,152.738,51.18,152.146"/>
<path d="M85.626,163.454c-1.367,0-2.634,0.116-3.952,0.355c-0.101,0.04-0.252,0.04-0.354,0.04c-0.609,0-1.166-0.279-1.369-0.712
	c-0.1-0.277-0.252-0.514-0.252-0.751c-0.101-0.436-0.254-0.909-0.303-1.384c-0.204-0.91-0.255-1.738-0.507-2.611
	c-0.558-2.451-1.42-4.783-2.584-7.077c-0.457-0.832-1.165-1.621-2.178-2.134c-0.456-0.199-0.912-0.356-1.419-0.356
	c-0.202,0-0.405,0.039-0.607,0.078c-1.166,0.356-1.621,1.425-1.825,2.294c-0.101,0.594-0.101,1.146,0,1.739
	c0.051,0.396,0,0.752,0,1.147c0.051,0.949,0.051,1.857,0.153,2.807c0.051,0.594,0.252,1.226,0.354,1.898
	c0.202,1.305,0.658,2.649,1.063,3.955c0.102,0.236,0.102,0.474,0.102,0.671c-0.354,0.436-0.76,0.516-1.267,0.516h-0.405
	c-0.507-0.08-1.063-0.12-1.621-0.12c-0.559,0-1.165,0.04-1.723,0.159c-0.406,0.039-0.709,0.117-1.063,0.117
	c-0.71,0-1.216-0.315-1.267-0.908c0-0.198,0-0.396,0.051-0.595c0.101-0.711,0.253-1.383,0.303-2.134
	c0.051-0.633,0.254-1.346,0.305-1.978c0.253-1.066,0.404-2.253,0.456-3.321c0.152-0.79,0.152-1.62,0.152-2.452
	c0-0.711,0.101-1.343,0.152-2.015v-0.278c0.1-2.175,0.151-4.271,0.151-6.444c0.05-0.516,0.05-0.95,0-1.463
	c-0.051-0.871-0.151-1.782-0.203-2.611c0-1.027-0.152-2.016-0.354-3.005c-0.102-0.396-0.153-0.791-0.153-1.146
	c-0.05-0.871-0.05-1.74-0.102-2.611c-0.101-0.632-0.203-1.344-0.253-1.976c0-0.354-0.102-0.711,0-1.028
	c0.05-0.396,0.354-0.672,0.811-0.751c0.354-0.118,0.759-0.118,1.114-0.118c0.66,0,1.266,0.079,1.924,0.079
	c1.521,0,2.99-0.039,4.509-0.119c2.432,0,4.965,0.553,7.144,1.383c0.862,0.396,1.621,0.91,2.33,1.543
	c0.557,0.633,1.165,1.227,1.672,1.938c0.961,1.503,1.267,3.281,1.367,4.944c0.05,0.909-0.101,1.858-0.456,2.805
	c-0.71,2.335-1.723,3.876-4.052,5.497c-0.507,0.277-0.914,0.673-1.117,1.187c-0.15,0.396-0.05,0.791,0.052,1.187
	c1.115,3.994,2.837,8.068,5.37,11.665c0.405,0.434,0.76,0.87,0.912,1.463C86.488,163.335,86.235,163.454,85.626,163.454
	 M70.682,143.486c0.204,1.74,1.825,2.331,3.8,2.331c0.253,0,0.557,0,0.861-0.039c0.506-0.039,1.064-0.157,1.52-0.355
	c1.317-0.672,2.432-1.542,2.99-2.729c0.202-0.474,0.355-0.988,0.557-1.461c0.152-0.397,0.304-0.794,0.304-1.228
	c0.152-1.266,0.101-2.489-0.304-3.717c-0.354-1.028-0.81-2.097-1.774-2.926c-1.013-1.068-2.177-1.384-3.798-1.384
	c-1.672,0-3.75,0.829-4.053,2.213c-0.204,0.713-0.304,1.464-0.354,2.137c-0.102,1.146-0.102,2.213,0.1,3.321
	c0.051,0.553,0,1.065,0,1.62C70.529,142.022,70.58,142.773,70.682,143.486"/>
<path d="M93.02,162.781c1.367-2.965,2.633-5.851,3.749-8.896c0.608-1.619,1.115-3.281,1.772-4.863
	c0.609-1.582,1.064-3.201,1.42-4.824c0.354-1.029,0.658-2.096,0.91-3.124c0.204-0.592,0.305-1.227,0.507-1.82
	c0.102-0.711,0.303-1.421,0.456-2.172c0.152-0.91,0.305-1.78,0.355-2.691c0.051-0.513,0.153-1.066,0.153-1.62
	c0.05-0.75-0.153-1.424-0.254-2.176c-0.152-0.394-0.152-0.749-0.102-1.146c0.254-0.396,0.761-0.594,1.367-0.594
	c0.406,0.039,0.761,0.039,1.116,0.039c0.354,0,0.708,0,1.063-0.039c0.253,0,0.608,0,0.912-0.037c0.912,0,1.977,0.076,1.977,0.987
	c0,0.354-0.102,0.633-0.154,0.949c-0.201,0.672-0.101,1.423-0.101,2.134c0,0.514,0.101,1.028,0.255,1.502
	c0.405,2.452,0.962,4.905,1.621,7.316c0.152,0.79,0.304,1.541,0.507,2.294c0.15,0.592,0.303,1.187,0.455,1.778
	c0.152,1.227,1.266,4.112,1.772,5.339c1.064,3.281,2.129,5.614,3.902,8.699c0.607,0.868,1.165,1.82,1.721,2.769
	c0.051,0.079,0.051,0.238,0.152,0.354c0.354,0.475-0.252,1.029-0.913,1.068h-0.506c-0.557-0.039-1.115-0.08-1.721-0.158
	c-0.204-0.039-0.405-0.039-0.659-0.039c-0.203,0-0.406,0-0.659,0.039c-0.456,0-0.861,0.119-1.318,0.158
	c-1.113,0-1.52-0.158-1.772-1.185c-0.152-0.832-0.253-1.662-0.406-2.532c-0.151-0.711-0.151-1.462-0.252-2.254
	c-0.051-0.791-0.152-1.541-0.355-2.333c-0.304-1.383-1.724-1.502-3.242-1.502c-1.925,0-4.763,0.434-5.573,2.017
	c-0.204,0.277-0.253,0.632-0.305,0.909c-0.202,0.791-0.151,1.543-0.151,2.332c0.103,0.949,0.203,1.898,0.203,2.808
	c0.05,0.317,0,0.593-0.1,0.87c-0.255,0.475-0.66,0.673-1.267,0.673c-0.608,0-1.116-0.04-1.672-0.04
	c-0.153-0.04-0.303-0.04-0.507-0.04c-0.152,0-0.355,0-0.508,0.04c-0.81,0.04-1.721,0.198-2.583,0.315
	c-0.153,0.04-0.254,0.04-0.405,0.04c-0.406,0-0.76-0.118-1.064-0.474C92.765,163.337,92.867,163.018,93.02,162.781 M104.469,139.65
	c-0.102,0.475-0.204,0.989-0.254,1.423c-0.252,1.106-0.456,2.137-0.608,3.163c-0.152,0.554-0.203,1.107-0.405,1.621
	c-0.051,0.477-0.254,0.95-0.354,1.464c-0.152,0.634-0.356,1.266-0.456,1.977c-0.152,0.516-0.152,1.107-0.203,1.662
	c0,0.157,0.051,0.315,0.153,0.434c0.253,0.711,0.912,0.949,1.772,0.988c0.254,0.04,0.506,0.08,0.81,0.08
	c0.862,0,2.483-0.357,3.143-0.752c0.405-0.197,0.659-0.554,0.659-0.908c0.05-0.475,0.05-0.988,0-1.464
	c-0.151-0.554-0.304-1.107-0.458-1.622c-0.252-0.949-0.505-1.896-0.86-2.847c-0.405-0.988-0.556-1.977-0.71-3.004
	c-0.05-0.476-0.202-0.988-0.303-1.464c-0.102-0.355-0.204-0.751-0.354-1.106c-0.102-0.278-0.305-0.555-0.759-0.634
	C104.721,138.859,104.62,139.253,104.469,139.65"/>
<path d="M133.748,142.813v0.673c-0.051,0.593-0.152,1.265-0.152,1.857v4.864c0,0.516-0.051,0.948-0.102,1.384
	c0,0.396,0.051,0.751,0.051,1.107c0,0.355,0.051,0.633,0.051,0.988c0,0.75-0.051,1.463,0,2.214c0.102,0.712,0.203,1.384,0.203,2.136
	c0.051,0.556,0.151,1.027,0.304,1.581c0.151,0.476,0.354,0.987,0.508,1.464c0.252,0.555,0.505,1.067,0.708,1.542
	c-0.051,0.199-0.051,0.315-0.102,0.394c-0.153,0.357-0.405,0.556-0.862,0.595c-0.303,0.039-0.606,0.119-0.912,0.119
	c-1.114,0-2.178,0.039-3.292,0.237c-0.152,0.039-0.304,0.079-0.508,0.079c-0.253,0-0.505-0.079-0.708-0.12
	c-0.557-0.157-0.912-0.515-0.912-0.948c-0.051-0.632,0-1.227,0.152-1.897c0.203-0.791,0.305-1.583,0.355-2.411
	c0-0.794,0.151-1.583,0.202-2.374c0.051-0.633,0.153-1.266,0.153-1.976c0.05-0.554,0.101-1.068,0.101-1.622
	c-0.101-0.515-0.101-0.988,0-1.543c0.049-0.356,0.152-0.674,0.152-1.029v-2.607c0-0.554-0.103-1.108-0.103-1.662
	c0-0.435,0.103-0.91,0.103-1.382c0-0.595-0.152-1.227-0.203-1.821v-0.078c-0.05-0.515-0.152-1.068-0.152-1.543
	c-0.051-1.107-0.102-2.215-0.153-3.321c0-0.552-0.15-1.027-0.202-1.581c-0.151-1.898-0.558-3.874-1.215-5.693
	c-0.051-0.237-0.103-0.476-0.103-0.712c0-0.911,1.065-0.911,1.925-0.911h1.267c0.76,0,1.52-0.077,2.281-0.235
	c0.354-0.04,0.71-0.16,1.013-0.16c0.05,0,0.152,0.041,0.203,0.041c0.505,0.198,0.911,0.514,0.911,0.909
	c0.05,0.356,0.05,0.751,0,1.068c-0.659,7.116,1.013,8.104,4.712,13.719c0.404,0.634,0.911,1.228,1.266,1.86
	c0.202,0.316,0.354,0.593,0.607,0.91c0.912,1.224,1.268,2.809,2.533,3.797c0.102,0.155,0.354,0.236,0.607,0.354
	c0.102,0.04,0.255,0.04,0.355,0.04c0.356,0,0.71-0.118,0.862-0.394c0.203-0.241,0.253-0.556,0.305-0.793
	c0.151-0.435,0.454-3.875,0.454-4.547c0-0.633,0-1.305-0.049-1.979v-0.829c0-1.068,0-2.058-0.102-3.046
	c0-0.79-0.102-1.502-0.152-2.291c-0.101-0.673-0.151-1.345-0.151-2.059c-0.102-0.908-0.204-1.857-0.254-2.807
	c-0.05-0.435-0.05-0.948-0.101-1.423c0-0.118-0.101-0.197-0.101-0.357c-0.051-0.276-0.051-0.593,0.101-0.868
	c0.101-0.396,0.507-0.633,1.014-0.633c0.102,0,0.203,0,0.303,0.037c0.76,0.121,1.114,0.239,1.875,0.277
	c0.708,0,1.47,0.041,2.178,0.041c1.013,0.08,1.774,0.553,1.621,1.306v0.552c-0.051,0.437-0.1,0.871-0.253,1.307
	c-0.101,0.672-0.254,1.304-0.355,1.937c-0.15,0.554-0.252,1.107-0.303,1.622c-0.151,0.752-0.255,1.502-0.406,2.176
	c-0.05,0.472-0.05,0.908-0.101,1.382c-0.102,0.554-0.203,1.148-0.254,1.7c0,1.226-0.1,2.373-0.252,3.599v0.751
	c0,0.79,0.052,1.583,0,2.372c-0.152,0.832-0.152,1.74-0.152,2.573c0,0.868,0.152,1.777,0.152,2.647
	c0.052,0.593,0.102,1.186,0.102,1.779c0.15,2.255,0.303,4.43,1.013,6.642c0.151,0.357,0.151,0.753,0.051,1.147
	c-0.102,0.474-0.862,0.831-1.622,0.871c-0.81,0.039-1.317,0.117-2.179,0.117c-0.101,0-0.304,0-0.404,0.041
	c-0.203,0.039-0.354,0.039-0.506,0.039c-0.406,0-0.811-0.08-1.166-0.158c-0.811-0.118-1.116-0.593-1.266-1.265v-0.436
	c0-7.118-1.976-7.315-5.624-14.234c-0.355-0.753-1.419-2.571-1.926-3.283c-0.405-0.751-0.911-1.422-1.418-2.174
	c-0.101-0.04-0.152-0.079-0.204-0.159c-0.201-0.237-0.504-0.396-0.909-0.396c-0.154,0-0.356,0.04-0.508,0.079
	C133.85,142.221,133.697,142.496,133.748,142.813"/>
<path d="M162.216,162.188c-0.103-0.316,0.05-0.632,0.101-1.028c0.304-1.384,0.71-2.729,1.063-4.151
	c0.406-1.543,0.507-3.798,0.507-5.339c0-2.688,0-5.377-0.101-8.066c-0.051-0.515-0.202-0.988-0.253-1.502v-0.275
	c0-0.714-0.203-1.387-0.254-2.019c-0.151-0.711-0.202-1.344-0.253-1.976c-0.05-0.793-0.153-1.544-0.252-2.334
	c-0.204-1.028-0.307-2.018-0.661-2.967c-0.15-0.552-0.303-1.027-0.405-1.58c-0.102-0.396,0.103-0.751,0.405-0.989
	c0.254-0.198,0.661-0.395,0.964-0.555c1.521-0.514,2.987-0.79,4.559-0.79c3.395,0,6.231,0.356,8.867,2.137
	c0.555,0.435,1.216,0.829,1.822,1.266c2.38,1.739,3.14,4.467,3.648,6.919c0.102,0.751,0.255,1.501,0.354,2.174
	c0.051,0.356,0.051,0.753,0.152,1.108c0.151,1.028,0,2.056,0.102,3.123c0.203,1.305,0.15,2.649,0.15,4.033
	c0,2.095-0.05,4.469-0.86,6.487c-0.151,1.185-0.557,2.173-1.315,3.2c-1.318,1.938-2.535,3.48-5.321,4.311
	c-0.607,0.198-1.266,0.396-1.873,0.594c-0.861,0.196-1.622,0.354-2.533,0.354h-1.167
	C167.585,164.323,162.57,164.126,162.216,162.188 M177.818,141.826c-0.253-1.9-0.607-2.69-1.417-4.509
	c-0.862-1.622-2.737-4.941-5.524-4.941c-0.81,0-1.468,0.315-1.822,0.79c-0.406,0.435-0.508,0.948-0.607,1.423
	c0,0.592-0.051,1.146-0.103,1.699c-0.051,0.751-0.202,1.424-0.202,2.176c-0.05,0.553,0.052,1.146,0.052,1.661v2.925v0.239
	c-0.102,0.75-0.102,1.463,0,2.094c0.1,0.475,0.15,0.95,0.15,1.384c0,1.582,0.052,3.124-0.051,4.627c-0.151,1.107,0,2.254-0.1,3.32
	c0,1.108-0.052,2.217-0.052,3.363c-0.05,0.196,0,0.435-0.05,0.631c-0.152,0.397-0.152,0.872-0.051,1.306
	c0.051,0.792,0.606,1.187,1.418,1.345c0.456,0,0.913-0.039,1.368-0.079c1.113-0.197,2.128-0.595,2.938-1.266
	c1.166-1.066,2.482-2.371,2.887-3.757c0.103-0.393,0.152-0.83,0.305-1.226c0.306-1.067,0.506-2.096,0.608-3.242
	c0.202-0.87,0.405-2.017,0.405-2.887c0.05-1.106,0-2.136,0-3.52C177.92,144.434,178.071,143.089,177.818,141.826"/>
<path d="M194.028,148.191c0-1.146,0-2.334,0.1-3.439c0.152-1.503,0.152-2.887,0.052-4.271c-0.052-1.067-0.052-2.176-0.101-3.204
	c-0.102-1.504-0.203-2.966-0.762-4.39c-0.253-0.711-0.556-1.344-0.811-2.055c-0.1-0.079-0.151-0.278-0.151-0.396
	c-0.405-0.753,0.252-1.306,1.114-1.306c0.103,0,0.205,0.04,0.305,0.04c0.761,0.119,1.571,0.158,2.33,0.158
	c0.761,0,1.368-0.039,2.127-0.118c0.405-0.04,0.711-0.08,1.116-0.08c0.607,0.04,1.113,0.476,1.012,0.988
	c-0.15,0.791-0.354,1.504-0.456,2.256c-0.2,0.908-0.404,1.896-0.556,2.766c-0.152,0.632-0.256,1.345-0.405,2.019v0.117
	c-0.05,0.594-0.102,1.187-0.102,1.78c-0.103,1.266-0.103,2.569-0.152,3.796c-0.202,2.135-0.052,4.27-0.102,6.327
	c0,1.896,0,3.796,0.102,5.694c0.05,0.751,0.254,1.541,0.403,2.253c0.052,0.594,0.104,1.264,0.256,1.858
	c0.101,0.672,0.355,1.265,0.556,1.897c0.204,0.515,0.306,0.988,0.456,1.503c0.052,0.198,0.102,0.474,0.052,0.672
	c0,0.278-0.202,0.515-0.508,0.554c-0.303,0.119-0.657,0.198-0.961,0.198c-0.608,0.117-1.317,0.117-2.026,0.158
	c-0.76,0.117-1.521,0.196-2.332,0.315c-0.149,0.04-0.254,0.04-0.404,0.04c-0.71,0-1.266-0.475-1.115-1.266
	c0.051-0.435,0.102-0.87,0.204-1.306c0.101-1.068,0.253-2.095,0.304-3.16c0-0.081,0-0.121,0.051-0.161c0-0.91,0-1.741,0.151-2.688
	c0.102-0.909,0.05-1.897,0.102-2.967c0.052-1.027,0.052-2.093,0.152-3.202h-0.101C193.928,149.1,193.928,148.626,194.028,148.191"/>
<path d="M217.18,142.813v0.673c-0.053,0.593-0.153,1.265-0.153,1.857v4.864c0,0.516-0.051,0.948-0.103,1.384
	c0,0.396,0.052,0.751,0.052,1.107c0,0.355,0.051,0.633,0.051,0.988c0,0.75-0.051,1.463,0,2.214c0.101,0.712,0.204,1.384,0.204,2.136
	c0.049,0.556,0.149,1.027,0.302,1.581c0.152,0.476,0.354,0.987,0.507,1.464c0.254,0.555,0.507,1.067,0.71,1.542
	c-0.051,0.199-0.051,0.315-0.102,0.394c-0.151,0.357-0.404,0.556-0.862,0.595c-0.303,0.039-0.605,0.119-0.909,0.119
	c-1.117,0-2.18,0.039-3.294,0.237c-0.152,0.039-0.304,0.079-0.507,0.079c-0.252,0-0.507-0.079-0.709-0.12
	c-0.558-0.157-0.913-0.515-0.913-0.948c-0.051-0.632,0-1.227,0.152-1.897c0.203-0.791,0.305-1.583,0.356-2.411
	c0-0.794,0.149-1.583,0.201-2.374c0.051-0.633,0.151-1.266,0.151-1.976c0.052-0.554,0.102-1.068,0.102-1.622
	c-0.102-0.515-0.102-0.988,0-1.543c0.052-0.356,0.152-0.674,0.152-1.029v-2.607c0-0.554-0.101-1.108-0.101-1.662
	c0-0.435,0.101-0.91,0.101-1.382c0-0.595-0.152-1.227-0.202-1.821v-0.078c-0.052-0.515-0.152-1.068-0.152-1.543
	c-0.051-1.107-0.103-2.215-0.151-3.321c0-0.552-0.152-1.027-0.203-1.581c-0.152-1.898-0.559-3.874-1.216-5.693
	c-0.05-0.237-0.103-0.476-0.103-0.712c0-0.911,1.064-0.911,1.927-0.911h1.267c0.758,0,1.52-0.077,2.278-0.235
	c0.356-0.04,0.711-0.16,1.014-0.16c0.051,0,0.153,0.041,0.204,0.041c0.505,0.198,0.909,0.514,0.909,0.909
	c0.052,0.356,0.052,0.751,0,1.068c-0.657,7.116,1.014,8.104,4.714,13.719c0.404,0.634,0.91,1.228,1.265,1.86
	c0.203,0.316,0.355,0.593,0.609,0.91c0.912,1.224,1.267,2.809,2.533,3.797c0.101,0.155,0.354,0.236,0.606,0.354
	c0.102,0.04,0.255,0.04,0.355,0.04c0.355,0,0.708-0.118,0.86-0.394c0.204-0.241,0.254-0.556,0.306-0.793
	c0.15-0.435,0.455-3.875,0.455-4.547c0-0.633,0-1.305-0.051-1.979v-0.829c0-1.068,0-2.058-0.102-3.046
	c0-0.79-0.102-1.502-0.152-2.291c-0.102-0.673-0.15-1.345-0.15-2.059c-0.102-0.908-0.204-1.857-0.255-2.807
	c-0.051-0.435-0.051-0.948-0.1-1.423c0-0.118-0.104-0.197-0.104-0.357c-0.05-0.276-0.05-0.593,0.104-0.868
	c0.1-0.396,0.505-0.633,1.012-0.633c0.102,0,0.202,0,0.305,0.037c0.759,0.121,1.115,0.239,1.875,0.277
	c0.707,0,1.468,0.041,2.178,0.041c1.014,0.08,1.773,0.553,1.62,1.306v0.552c-0.052,0.437-0.102,0.871-0.252,1.307
	c-0.101,0.672-0.254,1.304-0.354,1.937c-0.151,0.554-0.254,1.107-0.306,1.622c-0.151,0.752-0.252,1.502-0.404,2.176
	c-0.051,0.472-0.051,0.908-0.102,1.382c-0.102,0.554-0.202,1.148-0.254,1.7c0,1.226-0.101,2.373-0.253,3.599v0.751
	c0,0.79,0.051,1.583,0,2.372c-0.152,0.832-0.152,1.74-0.152,2.573c0,0.868,0.152,1.777,0.152,2.647
	c0.051,0.593,0.102,1.186,0.102,1.779c0.151,2.255,0.304,4.43,1.014,6.642c0.152,0.357,0.152,0.753,0.052,1.147
	c-0.103,0.474-0.862,0.831-1.622,0.871c-0.812,0.039-1.318,0.117-2.178,0.117c-0.103,0-0.305,0-0.407,0.041
	c-0.201,0.039-0.354,0.039-0.506,0.039c-0.405,0-0.811-0.08-1.164-0.158c-0.811-0.118-1.116-0.593-1.267-1.265v-0.436
	c0-7.118-1.976-7.315-5.624-14.234c-0.356-0.753-1.419-2.571-1.926-3.283c-0.405-0.751-0.911-1.422-1.419-2.174
	c-0.101-0.04-0.151-0.079-0.201-0.159c-0.203-0.237-0.507-0.396-0.913-0.396c-0.152,0-0.354,0.04-0.507,0.079
	C217.279,142.221,217.127,142.496,217.18,142.813"/>
<path d="M254.358,148.309v-1.58c0-0.317,0.153-0.555,0.204-0.752c0.201-0.355,0.607-0.593,1.113-0.593c0.104,0,0.204,0,0.354,0.039
	c0.559,0.12,1.167,0.318,1.774,0.397c0.76,0.156,1.521,0.235,2.279,0.235c0.76,0,1.57-0.079,2.381-0.277
	c0.559-0.117,1.166-0.235,1.723-0.235c0.862,0.037,1.318,0.395,1.318,1.066c0,0.396-0.051,0.79-0.051,1.225
	c-0.053,0.198-0.053,0.397-0.053,0.594c0,0.712-0.102,1.385-0.252,2.097v0.079c0,1.107-0.151,2.096-0.101,3.124
	c0,1.463,0.758,3.162,1.468,4.546c0.255,0.832,0.051,1.385-0.76,1.82c-0.557,0.355-1.217,0.712-1.772,1.067
	c-0.607,0.396-1.268,0.83-1.875,1.226c-2.077,1.067-4.205,2.016-6.788,2.016c-1.368,0-2.636-0.276-3.801-0.948
	c-0.505-0.237-0.91-0.515-1.216-0.909c-1.924-2.096-3.899-4.626-4.407-7.196c-0.253-1.069-0.658-2.096-0.91-3.164
	c-0.203-0.829-0.255-1.779-0.255-2.648c-0.051-0.987-0.051-2.017-0.102-2.968c-0.2-1.423-0.1-2.924-0.15-4.348
	c0-1.227,0.15-2.453,0.304-3.679c0.152-0.514,0.203-1.027,0.354-1.503c0.354-2.016,0.963-3.479,2.534-5.139
	c1.874-1.977,4.813-2.649,7.752-3.046c0.455-0.04,0.961-0.079,1.467-0.079c0.965,0,2.078,0.118,2.989,0.277
	c2.584,0.673,4.814,2.848,5.42,4.863c0.255,0.793,0.406,1.582,0.255,2.451c-0.303,1.621-0.76,2.848-2.938,3.52
	c-0.306,0.08-0.608,0.198-0.913,0.198c-0.201,0-0.406-0.039-0.607-0.159c-0.405-0.197-0.709-0.436-0.659-0.79
	c0-0.275,0-0.594,0.153-0.83c0.252-0.673,0.506-1.424,0.557-2.215c0.051-1.186-0.305-2.293-1.418-3.163
	c-0.356-0.395-0.913-0.712-1.521-0.791c-0.607-0.117-1.216-0.197-1.824-0.197c-2.229,0-4.408,1.185-5.522,2.649
	c-0.355,0.514-0.507,1.107-0.76,1.699c-0.404,1.149-0.658,2.333-0.81,3.52c-0.051,0.793-0.101,1.503-0.204,2.294
	c-0.048,0.514,0,1.066,0,1.581c-0.048,0.949-0.101,1.897-0.101,2.77c-0.05,0.553-0.05,1.146,0,1.658
	c0.101,0.911,0.204,1.82,0.456,2.689c0.102,0.674,0.151,1.305,0.254,1.899c0.456,2.688,2.129,7.985,6.535,7.985
	c0.404,0,0.862-0.037,1.368-0.077c0.556-0.119,1.114-0.198,1.723-0.395c1.823-0.87,2.685-2.65,2.685-4.27
	c0.101-0.398,0.151-0.714,0.151-1.188c0-0.87-0.151-1.778-0.304-2.65c-0.152-0.435-0.203-0.908-0.406-1.305
	c-0.354-0.829-1.469-1.579-2.785-1.579c-0.81,0-1.569,0.077-2.381,0.196c-0.102,0.04-0.255,0.04-0.355,0.04
	c-0.254,0-0.454-0.04-0.659-0.04C254.613,149.221,254.358,148.784,254.358,148.309"/>
</svg>
