<?xml version="1.0" encoding="UTF-8"?>
<!--Generator: Apple Native CoreSVG 175.5-->
<!DOCTYPE svg
PUBLIC "-//W3C//DTD SVG 1.1//EN"
       "http://www.w3.org/Graphics/SVG/1.1/DTD/svg11.dtd">
<svg version="1.1" xmlns="http://www.w3.org/2000/svg" xmlns:xlink="http://www.w3.org/1999/xlink" width="19.3447" height="16.5457">
 <g>
  <rect height="16.5457" opacity="0" width="19.3447" x="0" y="0"/>
  <path d="M0.568947 1.1416L18.7623 1.1416C19.0847 1.1416 19.3447 0.895022 19.3447 0.565919C19.3447 0.246583 19.0847 0 18.7623 0L0.568947 0C0.246583 0 0 0.246583 0 0.565919C0 0.895022 0.246583 1.1416 0.568947 1.1416ZM0.568947 6.26485L18.7623 6.26485C19.0847 6.26485 19.3447 6.01826 19.3447 5.68916C19.3447 5.36982 19.0847 5.12324 18.7623 5.12324L0.568947 5.12324C0.246583 5.12324 0 5.36982 0 5.68916C0 6.01826 0.246583 6.26485 0.568947 6.26485ZM0.568947 11.3881L18.7623 11.3881C19.0847 11.3881 19.3447 11.1348 19.3447 10.8154C19.3447 10.4931 19.0847 10.2465 18.7623 10.2465L0.568947 10.2465C0.246583 10.2465 0 10.4931 0 10.8154C0 11.1348 0.246583 11.3881 0.568947 11.3881ZM0.568947 16.5046L18.7623 16.5046C19.0847 16.5046 19.3447 16.258 19.3447 15.9387C19.3447 15.6163 19.0847 15.363 18.7623 15.363L0.568947 15.363C0.246583 15.363 0 15.6163 0 15.9387C0 16.258 0.246583 16.5046 0.568947 16.5046Z" fill="#000000" fill-opacity="0.85"/>
 </g>
</svg>
