<?xml version="1.0" encoding="utf-8"?>
<!-- Generator: Adobe Illustrator 16.0.0, SVG Export Plug-In . SVG Version: 6.00 Build 0)  -->
<!DOCTYPE svg PUBLIC "-//W3C//DTD SVG 1.1//EN" "http://www.w3.org/Graphics/SVG/1.1/DTD/svg11.dtd">
<svg version="1.1" xmlns="http://www.w3.org/2000/svg" xmlns:xlink="http://www.w3.org/1999/xlink" x="0px" y="0px" width="554px"
	 height="170px" viewBox="0 0 554 170" enable-background="new 0 0 554 170" xml:space="preserve">
<g id="Layer_1" display="none">
	<g display="inline">
		<g>
			<path fill="#22262B" d="M249.064,128.469c-0.633-0.535-1.228-1.105-1.808-1.693c-1.564-1.57-2.037-3.485-1.549-5.601
				c0.557-2.401,2.075-4.005,4.372-4.897c0.252-0.098,0.488-0.258,0.732-0.389c-0.008-0.062-0.016-0.131-0.023-0.189
				c-0.191-0.094-0.374-0.215-0.58-0.26c-3.197-0.748-6.629,0.861-8.109,3.775c-0.176,0.893-0.557,1.717-0.633,2.631
				c-0.062,0.711-0.023,1.428,0.038,2.137c0.022,0.244,0.045,0.504,0.076,0.779c1.121,3.699,4.555,5.783,8.544,5.119
				c0.229-0.039,0.45-0.177,0.671-0.27c0.007-0.074,0.016-0.152,0.023-0.228c-0.252-0.131-0.511-0.261-0.763-0.39
				C249.72,128.818,249.346,128.697,249.064,128.469z"/>
		</g>
		<g>
			<path fill="#22262B" d="M325.489,115.667c-0.329,0.047-0.825-0.062-0.9,0.366c0,0.015,0,0.021,0,0.029
				c1.009,0.283,1.908,0.849,2.587,1.625c2.434,1.924,3.286,5.25,1.84,8.24c-0.771,1.586-2.039,2.646-3.648,3.317
				c-0.29,0.123-0.564,0.261-0.953,0.442c0.038,0.039,0.063,0.068,0.093,0.107c1.472,0.251,2.792,0.479,4.233,0.223
				c2.335-0.703,3.988-2.185,4.799-4.58c0.822-2.434,0.525-4.76-0.947-6.813C330.874,116.208,328.439,115.232,325.489,115.667z"/>
		</g>
		<g>
			<path fill="#22262B" d="M354.148,89.654c-0.838-4.273-1.998-8.623-1.854-12.901c0.406-11.634-1.211-23.054-4.155-34.298
				c-1.457-5.576-3.861-11.1-6.813-16.211c-3.563-6.179-9.338-10.939-16.235-14.364c-10.642-5.288-21.72-9.384-34.299-9.59
				c-9.116-0.152-17.729,1.511-26.601,3.189c-16.135,3.053-25.228,13.038-34.352,23.398c-1.488,1.692-7.759,23.817-7.804,26.067
				c-0.145,6.332,0.122,12.596-1.724,18.919c-1.244,4.256-0.237,9.024-0.237,13.565c-0.167,0.014-0.336,0.021-0.503,0.036
				c0.816,9.399,0.908,18.904,2.785,28.136c0.816,4.035,0.839,8.107,1.823,12.047c2.121,8.49,13.274,22.539,21.887,27.752
				c5.981,3.623,12.381,6.187,19.048,8.063c0.809,0.502,1.618,0.998,2.525,1.388c1.235,0.534,2.532,0.756,3.914,0.846
				c1.465,0.103,2.937,0.103,4.387,0.261c1.207,0.138,2.373,0.403,3.578,0.551c0.084,0.007,0.176,0.015,0.26,0.029
				c2.67,0.403,5.363,0.741,8.069,1.028c7.606,0.824,14.634-1.752,21.63-3.537c9.368-2.397,18.033-6.295,25.135-12.514
				c8.507-7.445,12.588-17.011,15.287-26.744c1.496-5.41,3.138-11.146,2.429-17.104C351.602,101.66,355.361,95.848,354.148,89.654z
				 M287.689,138.35c-0.152,0.073-0.338,0.119-0.535,0.129c-0.039,0.028-0.084,0.06-0.129,0.092
				c-0.344,0.084-0.68,0.183-1.018,0.312c-0.083-0.06-0.152-0.151-0.188-0.222c-0.152-0.266-0.152-0.596-0.161-0.891
				c0-0.068-0.015-0.139-0.03-0.191c0.114-0.383,0.229-0.719,0.281-0.938c0.23-0.945,0.451-1.9,0.679-2.848
				c0.397-1.615,1.047-2.867,1.947-4.111c0.022,0,0.054,0.01,0.073,0.01c0.451,1.121,1.076,2.158,1.52,3.304
				c0.307,0.808,0.383,1.663,0.609,2.493c0.162,0.58,1.022,2.15,0.535,2.686C290.085,138.044,288.895,138.104,287.689,138.35z
				 M283.303,139.934c0.016,0.023,0.03,0.039,0.045,0.063c-0.037,0.021-0.082,0.045-0.121,0.067
				C283.249,140.018,283.271,139.973,283.303,139.934z M285.782,142.292c3.181-1.479,6.294-0.962,8.97,0.694
				c3.28,2.035,6.378,4.287,9.415,6.56c1.687,1.269,3.472,2.168,5.75,2.488c2.787,0.389,4.931,1.81,6.735,3.44
				c0.459,0.409,0.896,0.838,1.328,1.273c-1.465,0.531-2.98,1.014-4.545,1.441c-0.26-0.078-0.521-0.139-0.785-0.168
				c-5.065-0.688-8.301-3.389-11.812-5.951c-1.776-1.297-3.769-2.418-5.759-3.494c-3.609-1.946-7.309-1.717-10.908,0.168
				c-2.296,1.197-4.447,2.586-6.736,3.806c-2.634,1.411-5.402,2.703-8.638,2.519c-3.585-0.197-6.492,0.658-8.986,2.261
				c-1.121-0.468-2.228-0.954-3.326-1.459c1.297-1.479,2.769-2.861,4.554-4.058c2.655-1.779,5.501-2.893,9.033-2.709
				c3.334,0.168,5.729-1.647,8.299-3.099C280.762,144.656,283.271,143.458,285.782,142.292z M279.207,162.631
				c4.736-4.303,13.593-4.99,18.451-1.382c-5.76,0.831-11.532,1.334-17.477,1.388C279.854,162.646,279.533,162.637,279.207,162.631z
				 M302.152,160.546c-1.48-1.067-2.961-2.135-4.494-3.142c-3.965-2.594-8.352-2.709-12.737-0.758
				c-2.808,1.254-5.409,2.842-8.02,4.371c-0.756,0.442-1.534,0.826-2.327,1.121c-2.159-0.389-4.203-0.959-6.103-1.594
				c-1.534-0.511-3.06-1.052-4.57-1.617c1.473-0.525,3.082-0.83,4.837-0.861c3.364-0.053,6.202-1.027,8.797-2.746
				c1.21-0.799,2.488-1.557,3.814-2.219c7.155-3.57,12.157-3.213,17.91,1.607c2.465,2.061,5.213,3.624,8.262,4.823
				C305.736,159.906,303.945,160.234,302.152,160.546z M348.213,109.626c-0.602,10.757-4.033,20.896-9.617,30.499
				c-4.402,7.566-10.666,12.572-18.623,15.844c0.375-0.32,0.719-0.654,1.022-1.014c-0.374-0.396-0.747-0.792-1.13-1.189
				c-2.233-2.306-4.706-4.51-8.42-5.08c-3.486-0.541-6.227-1.953-8.659-3.978c-1.815-1.511-3.669-3.021-5.699-4.332
				c-0.763-0.487-1.519-0.899-2.272-1.235c-4.47-5.935-4.47-14.104-5.014-21.246c-0.029-0.418-0.068-0.846-0.099-1.267
				c0.338,0.565,0.741,1.069,1.237,1.511c0.151,0.139,0.289,0.297,0.424,0.442c0.068,0.075,0.162,0.151,0.187,0.245
				c0.326,1.326,0.777,2.631,0.944,3.988c0.191,1.564,0.787,3.021,1.16,4.541c0.228,0.914,0.512,1.822,0.703,2.746
				c0.144,0.709,0.58,1.166,1.111,1.563c0.152,0.112,0.383,0.157,0.58,0.167c0.364,0.021,0.557-0.152,0.512-0.52
				c-0.1-0.754-0.207-1.512-0.397-2.242c-0.206-0.816-0.511-1.61-0.769-2.411c-0.039-0.114-0.084-0.236-0.107-0.351
				c-0.146-0.604-0.329-1.176-0.59-1.74c-0.418-0.938-0.737-1.916-1.043-2.898c-0.129-0.42-0.1-0.893-0.152-1.457
				c0.557,0.352,1.063,0.663,1.563,0.984c0.207,0.129,0.398,0.313,0.619,0.389c0.242,0.076,0.365,0.214,0.459,0.443
				c0.363,0.961,0.752,1.906,0.891,2.943c0.063,0.45,0.367,0.861,0.535,1.305c0.289,0.771,0.547,1.549,0.836,2.318
				c0.394,1.038,0.733,2.1,1.19,3.104c0.3,0.657,0.87,1.075,1.656,1.069c0.368,0,0.565-0.261,0.565-0.633
				c0.006-0.625-0.184-1.199-0.42-1.771c-0.138-0.32-0.186-0.68-0.299-1.008c-0.305-0.848-0.634-1.687-0.943-2.531
				c-0.236-0.635-0.452-1.27-0.68-1.893c-0.191-0.521-0.373-1.039-0.574-1.564c0.01-0.008,0.055-0.055,0.068-0.047
				c0.87,0.367,1.73,0.74,2.602,1.107c0.855,0.357,1.382,0.975,1.572,1.898c0.168,0.802,0.375,1.602,0.596,2.388
				c0.123,0.413,0.291,0.817,0.496,1.19c0.519,0.953,0.764,2.046,1.511,2.877c0.235,0.257,0.428,0.557,0.625,0.837
				c0.206,0.29,0.442,0.481,0.825,0.422c0.35-0.054,0.563-0.323,0.64-0.604c0.177-0.609,0.245-1.229-0.235-1.791
				c-0.418-0.48-0.742-1.031-0.88-1.681c-0.051-0.251-0.212-0.481-0.341-0.717c-0.354-0.655-0.643-1.328-0.779-2.067
				c-0.074-0.41-0.229-0.815-0.365-1.312c0.457,0.129,0.822,0.229,1.189,0.351c0.212,0.068,0.413,0.213,0.625,0.237
				c1.189,0.128,1.563,1.067,1.984,1.967c0.596,1.28,1.144,2.595,1.785,3.853c0.547,1.068,1.305,1.971,2.549,2.267
				c0.234,0.056,0.517-0.015,0.753-0.099c0.106-0.038,0.206-0.266,0.2-0.403c-0.023-0.345-0.063-0.696-0.17-1.022
				c-0.205-0.619-0.459-1.199-0.951-1.687c-0.354-0.351-0.551-0.854-0.816-1.289c-0.17-0.282-0.344-0.56-0.511-0.839
				c-0.29-0.467-0.574-0.932-0.787-1.473c0.449,0.222,0.905,0.428,1.343,0.664c0.999,0.547,2.114,0.662,3.211,0.809
				c0.473,0.061,0.895-0.094,1.19-0.504c0.374-0.504,0.177-1.105-0.435-1.244c-0.422-0.091-0.854-0.145-1.281-0.214
				c-0.184-0.029-0.375-0.054-0.535-0.121c-0.359-0.153-0.7-0.19-1.083-0.085c-0.161,0.047-0.364,0-0.526-0.061
				c-0.854-0.344-1.691-0.726-2.547-1.068c-1.053-0.411-2.091-0.885-3.176-1.184c-1.495-0.41-2.912-1.006-4.34-1.586
				c-0.572-0.229-1.168-0.396-1.754-0.588c-0.825-0.273-1.604-0.58-2.242-1.229c-0.49-0.502-1.131-0.823-1.854-0.915
				c-0.618-0.076-1.131-0.39-1.549-0.831c-0.497-0.52-1.032-0.938-1.756-1.1c-0.222-0.047-0.442-0.229-0.608-0.396
				c-0.635-0.619-1.244-1.259-1.863-1.894c-0.547-0.557-0.867-1.242-1.088-1.981c-0.117-0.392-0.191-0.802-0.354-1.175
				c-0.106-0.254-0.274-0.559-0.502-0.656c-0.009,0-0.009-0.008-0.015-0.008c-0.49-5.975-0.97-11.954-1.039-17.936
				c0.076,0.123,0.154,0.243,0.223,0.373c0.525,0.983,1.402,1.571,2.326,2.129c0.311,0.183,0.58,0.457,0.846,0.709
				c0.078,0.068,0.139,0.26,0.093,0.328c-0.221,0.404-0.048,0.809-0.022,1.213c0.06,1.113,0.266,2.197,0.619,3.266
				c0.427,1.281,0.762,2.594,1.188,3.875c0.174,0.519,0.474,1,0.769,1.473c0.33,0.52,1.308,0.609,1.75,0.191
				c0.084-0.076,0.151-0.215,0.144-0.321c-0.021-0.381-0.021-0.776-0.138-1.144c-0.266-0.885-0.58-1.756-0.885-2.625
				c-0.104-0.305-0.207-0.619-0.336-0.916c-0.396-0.885-0.771-1.771-0.898-2.746c-0.03-0.235-0.114-0.457-0.207-0.838
				c1.146,0.746,2.158,1.418,3.15,2.066c-0.054,1.1,0.236,2.036,0.68,2.943c0.261,0.543,0.32,1.131,0.443,1.71
				c0.273,1.28,0.48,2.593,1.149,3.753c0.162,0.281,0.329,0.564,0.474,0.861c0.367,0.748,1.086,0.647,1.627,0.273
				c0.151-0.105,0.273-0.242,0.418-0.373c-0.045-1.174-0.449-2.258-0.916-3.303c-0.55-1.229-0.93-2.495-1.149-3.906
				c0.67,0.282,1.294,0.543,1.922,0.816c0.09,0.037,0.159,0.169,0.204,0.273c0.438,1,0.854,2,1.307,2.99
				c0.418,0.939,0.87,1.861,1.318,2.785c0.245,0.495,0.648,0.848,1.13,1.105c0.664,0.357,1.274,0.008,1.259-0.725
				c-0.009-0.268-0.023-0.551-0.121-0.787c-0.32-0.777-0.625-1.563-1.166-2.234c-0.649-0.801-1.063-1.738-1.55-2.791
				c0.502,0.1,0.905,0.152,1.288,0.259c0.123,0.038,0.223,0.206,0.307,0.337c0.189,0.288,0.35,0.604,0.541,0.885
				c0.569,0.854,1.135,1.709,1.729,2.54c0.557,0.785,1.137,1.563,1.739,2.317c0.246,0.307,0.597,0.467,1.009,0.558
				c0.664,0.154,1.053-0.61,0.899-1.099c-0.299-0.945-0.924-1.678-1.459-2.473c-0.395-0.586-0.861-1.129-1.363-1.785
				c0.496,0.123,0.945,0.17,1.343,0.338c0.86,0.365,1.737,0.479,2.655,0.273c0.174-0.037,0.357-0.1,0.518-0.184
				c0.574-0.299,0.604-0.954,0.068-1.336c-0.084-0.061-0.176-0.112-0.26-0.166c-0.58-0.359-0.58-0.359-0.893-0.969
				c-0.305-0.008-0.648,0-0.992-0.017c-0.496-0.022-0.982-0.075-1.48-0.101c-1.691-0.092-3.348-0.381-5.004-0.725
				c-1.357-0.281-2.639-0.756-3.896-1.305c-0.206-0.091-0.421-0.197-0.58-0.344c-0.924-0.868-2.045-1.448-3.088-2.145
				c-0.757-0.494-1.598-0.906-2.246-1.518c-0.852-0.803-1.967-1.289-2.65-2.281c-0.147-0.206-0.408-0.352-0.636-0.465
				c-0.879-0.428-1.577-1.008-2.015-1.908c-0.145-0.313-0.381-0.587-0.61-0.846c-0.305-0.338-0.64-0.635-0.86-0.848
				c0.029-1.19,0.074-2.242,0.074-3.287c0-0.557-0.099-1.106-0.099-1.664c-0.006-1.129,0.015-2.265,0.045-3.395
				c0.048-1.534,0.067-3.066-0.104-4.6c0.007-0.32,0.007-0.634,0.016-0.954c0.113,0.091,0.223,0.167,0.296,0.26
				c0.731,0.839,1.45,1.685,2.19,2.509c0.175,0.199,0.252,0.39,0.252,0.656c0,0.352,0.021,0.703,0.09,1.045
				c0.177,0.855,0.27,1.702,0.244,2.579c-0.008,0.312,0.139,0.634,0.236,0.938c0.262,0.756,0.521,1.511,0.803,2.258
				c0.211,0.572,0.434,1.152,0.724,1.688c0.2,0.373,0.589,0.572,1.017,0.633c0.358,0.045,0.526-0.1,0.596-0.459
				c0.104-0.547-0.033-1.066-0.206-1.57c-0.23-0.641-0.513-1.26-0.763-1.891c-0.146-0.367-0.27-0.732-0.39-1.106
				c-0.19-0.587-0.368-1.175-0.544-1.77c-0.051-0.191-0.09-0.389-0.129-0.587c0.039-0.022,0.078-0.054,0.113-0.077
				c0.428,0.435,0.871,0.846,1.269,1.296c0.64,0.732,1.279,1.45,2.104,1.977c0.084,0.055,0.177,0.13,0.205,0.214
				c0.314,0.847,0.748,1.632,0.977,2.519c0.221,0.854,0.535,1.677,0.834,2.51c0.09,0.267,0.257,0.502,0.409,0.748
				c0.222,0.365,0.437,0.746,0.696,1.09c0.287,0.391,0.602,0.771,0.961,1.105c0.182,0.176,0.457,0.274,0.707,0.336
				c0.742,0.184,1.199-0.268,0.97-0.992c-0.183-0.596-0.312-1.213-0.822-1.686c-0.305-0.281-0.457-0.725-0.688-1.091
				c-0.447-0.739-0.905-1.474-1.349-2.213c-0.2-0.327-0.358-0.679-0.589-1.106c0.496,0.063,0.861,0.162,1.205,0.397
				c0.335,0.229,0.702,0.503,1.085,0.571c0.655,0.106,1.005,0.55,1.289,1.029c0.502,0.871,0.944,1.771,1.388,2.678
				c0.215,0.443,0.299,0.947,0.541,1.373c0.252,0.443,0.564,0.861,0.93,1.213c0.468,0.443,1.131,0.457,1.65,0.092
				c0.104-0.076,0.213-0.273,0.188-0.396c-0.09-0.549-0.174-1.105-0.373-1.625c-0.145-0.365-0.403-0.74-0.715-0.977
				c-0.648-0.479-1.105-1.1-1.488-1.785c-0.162-0.281-0.314-0.564-0.518-0.938c0.776,0.221,1.461,0.396,2.135,0.625
				c0.885,0.306,1.746,0.184,2.602-0.084c0.251-0.076,0.335-0.273,0.305-0.541c-0.067-0.61-0.099-0.647-0.688-0.832
				c-0.113-0.037-0.236-0.076-0.342-0.146c-0.711-0.479-1.504-0.549-2.319-0.435c-0.235,0.031-0.428-0.022-0.647-0.077
				c-0.826-0.197-1.588-0.541-2.365-0.847c-0.32-0.129-0.688-0.151-1.008-0.281c-0.396-0.16-0.822-0.313-1.138-0.588
				c-0.54-0.473-1.165-0.771-1.774-1.106c-0.541-0.297-1.047-0.64-1.564-0.976c-0.412-0.266-0.831-0.519-1.236-0.809
				c-0.258-0.19-0.563-0.381-0.709-0.649c-0.261-0.473-0.654-0.785-1.015-1.144c-0.338-0.327-0.634-0.693-0.953-1.03
				c-0.354-0.374-0.673-0.801-1.086-1.083c-0.493-0.344-0.846-0.771-1.142-1.266c-0.094-0.162-0.168-0.344-0.301-0.466
				c-0.769-0.679-1.135-1.602-1.532-2.51c-0.104-0.244-0.197-0.465-0.425-0.647c-0.069-0.054-0.117-0.115-0.152-0.176
				c0-0.502,0.006-0.999,0.006-1.502c0-0.694-0.006-1.381-0.006-2.075c0.006-0.091,0.016-0.182,0.029-0.275
				c0.258-1.456,0.144-2.914,0.061-4.37c-0.055-1.007-0.152-2.015-0.222-3.021c-0.007-0.305-0.015-0.61-0.021-0.907
				c0.015-0.207,0.029-0.405,0.035-0.611c0.384,0.054,0.526,0.221,0.625,0.55c0.271,0.861,0.574,1.709,0.918,2.54
				c0.168,0.404,0.429,0.787,0.685,1.144c0.33,0.459,0.429,0.985,0.414,1.519c-0.039,1.96,0.396,3.845,0.869,5.722
				c0.107,0.435,0.266,0.824,0.809,0.885c0.496,0.062,0.771-0.13,0.74-0.626c-0.039-0.617-0.138-1.227-0.222-1.837
				c-0.083-0.603-0.182-1.206-0.221-1.824c0.876,0.61,1.588,1.313,1.83,2.38c0.266,1.183,0.563,2.358,0.831,3.548
				c0.131,0.58,0.236,1.167,0.299,1.763c0.074,0.777,0.641,1.175,1.495,1.075c0.373-0.037,0.618-0.266,0.579-0.649
				c-0.063-0.632-0.161-1.266-0.305-1.883c-0.132-0.556-0.354-1.099-0.473-1.694c0.379,0.45,0.777,0.892,1.143,1.366
				c0.199,0.251,0.403,0.442,0.717,0.541c0.375,0.114,0.719,0.305,1.082,0.443c0.23,0.083,0.477,0.167,0.713,0.189
				c0.769,0.069,1.189-0.32,1.357-1.259c-0.3-0.418-0.771-0.595-1.238-0.738c-0.424-0.13-0.799-0.314-1.098-0.649
				c-0.107-0.115-0.26-0.206-0.402-0.275c-0.443-0.214-0.896-0.411-1.146-0.885c-0.061-0.113-0.212-0.229-0.344-0.251
				c-0.87-0.145-1.127-1.015-1.73-1.48c-0.551-0.42-0.886-1.114-1.313-1.687c-0.06-0.083-0.113-0.183-0.188-0.244
				c-0.771-0.595-1.238-1.419-1.726-2.228c-0.427-0.703-0.925-1.357-1.405-2.021c-0.389-0.535-0.693-1.106-0.936-1.708
				c-0.412-0.993-0.78-1.984-1.037-3.029c-0.094-0.374-0.284-0.695-0.635-0.939c-0.383-0.275-0.48-0.748-0.58-1.19
				c-0.077-0.313-0.137-0.632-0.161-0.954c-0.029-0.381-0.068-0.748,0.084-1.144c0.222-0.587,0.103-1.183-0.242-1.733
				c-0.045-0.076-0.084-0.16-0.112-0.251c-0.02-0.472-0.039-0.946-0.055-1.419c0.021-0.45,0.055-0.907,0.074-1.357
				c0.009-0.076,0.023-0.152,0.048-0.314c0.479,0.58,0.831,1.146,1.082,1.763c0.099,0.253,0.267,0.42,0.474,0.603
				c0.364,0.314,0.639,0.74,0.914,1.153c0.403,0.617,0.786,1.251,1.366,1.739c0.144,0.123,0.222,0.336,0.281,0.526
				c0.222,0.771,0.407,1.549,0.634,2.32c0.236,0.785,0.512,1.564,0.786,2.334c0.055,0.145,0.222,0.26,0.345,0.381
				c0.083,0.084,0.182,0.153,0.266,0.236c0.358,0.383,0.855,0.314,1.106-0.145c0.19-0.342,0.222-0.701,0.151-1.075
				c-0.038-0.221-0.084-0.435-0.129-0.679c0.543,0.037,0.932,0.214,1.211,0.686c0.39,0.649,1.412,0.885,2.14,0.396
				c0.144-0.099,0.29-0.32,0.306-0.487c0.035-0.762-0.442-1.404-1.199-1.603c-0.351-0.091-0.648-0.206-0.892-0.495
				c-0.116-0.138-0.29-0.253-0.458-0.307c-0.598-0.175-0.863-0.664-1.145-1.144c-0.217-0.374-0.374-0.809-0.979-0.588
				c-0.106,0.039-0.344-0.221-0.495-0.374c-0.207-0.199-0.381-0.42-0.572-0.625c-0.688-0.732-1.426-1.42-1.928-2.304
				c-0.19-0.336-0.383-0.68-0.604-0.993c-0.673-0.954-1.022-2.06-1.525-3.098c-0.116-0.236-0.206-0.519-0.397-0.679
				c-0.495-0.418-0.516-0.999-0.457-1.518c0.068-0.541,0.1-1.06,0.029-1.587c-0.037-0.305-0.082-0.618-0.074-0.922
				c0.007-0.236,0.016-0.512,0.139-0.71c0.236-0.403,0.257-0.807,0.167-1.242c-0.048-0.245-0.077-0.489-0.116-0.732
				c-0.061-0.42-0.32-0.618-0.732-0.519c-0.441,0.106-0.875,0.229-1.31,0.352c-0.271,0.076-0.389,0.229-0.389,0.541
				c0.006,0.718-0.056,1.426,0.202,2.12c0.078,0.199,0.033,0.451,0.039,0.68c0.016,0.595,0.01,1.19,0.216,1.769
				c0.067,0.191,0.075,0.496-0.039,0.641c-0.87,1.129-1.466,2.434-2.29,3.585c-0.365,0.512-0.837,0.954-1.334,1.352
				c-1.067,0.854-1.932,1.914-2.867,2.892c-0.525,0.548-1.105,1.028-1.656,1.556c-0.344,0.32-0.673,0.662-1.014,0.984
				c-0.407,0.381-0.787,0.801-1.245,1.099c-0.496,0.328-0.832,0.777-1.243,1.274c0.137,0.258,0.29,0.541,0.45,0.824
				c0.038,0.069,0.107,0.145,0.176,0.16c0.458,0.099,0.908,0.214,1.373,0.251c0.451,0.031,0.771-0.236,0.983-0.625
				c0.078-0.145,0.146-0.313,0.26-0.413c0.557-0.442,0.68-1.06,0.742-1.7c0.021-0.253,0.129-0.383,0.305-0.55
				c0.748-0.701,1.473-1.434,2.198-2.167c0.241-0.244,0.472-0.511,0.792-0.74c-0.123,0.344-0.223,0.693-0.383,1.015
				c-0.236,0.487-0.139,0.915,0.177,1.328c0.099,0.128,0.245,0.236,0.306,0.381c0.137,0.32,0.383,0.549,0.692,0.495
				c0.329-0.06,0.673-0.251,0.771-0.64c0.107-0.413,0.229-0.833,0.268-1.259c0.068-0.771,0.099-1.549,0.122-2.328
				c0.016-0.571,0.19-1.014,0.604-1.471c0.625-0.672,1.089-1.496,1.614-2.251c0.055-0.076,0.107-0.16,0.177-0.244
				c0.023,2.258,0.046,4.517,0.068,6.781c-0.029,0.008-0.068,0.008-0.099,0.017c-0.429,0.091-0.557,0.266-0.641,0.701
				c-0.054,0.259-0.115,0.549-0.27,0.74c-0.442,0.534-0.709,1.144-0.905,1.8c-0.063,0.214-0.162,0.381-0.397,0.504
				c-0.488,0.268-0.847,0.656-0.664,1.296c-0.358,0.322-0.738,0.612-1.062,0.954c-0.435,0.458-0.838,0.954-1.228,1.45
				c-0.695,0.893-1.356,1.8-2.054,2.692c-0.222,0.29-0.493,0.534-0.747,0.809c-0.464,0.497-0.916,1.008-1.388,1.488
				c-0.281,0.29-0.526,0.617-0.954,0.755c-0.206,0.062-0.374,0.313-0.527,0.504c-0.152,0.191-0.282,0.404-0.396,0.617
				c-0.321,0.595-0.718,1.062-1.419,1.251c-0.237,0.062-0.42,0.366-0.603,0.58c-0.236,0.275-0.435,0.587-0.679,0.863
				c-0.274,0.313-0.29,0.686-0.008,0.983c0.519,0.534,1.404,0.542,1.923,0.015c0.19-0.19,0.389-0.381,0.519-0.61
				c0.351-0.642,0.801-1.19,1.35-1.671c0.283-0.244,0.549-0.502,0.582-0.915c0.006-0.069,0.066-0.145,0.12-0.207
				c0.442-0.487,0.894-0.969,1.342-1.448c0.054-0.054,0.123-0.084,0.222-0.153c0,0.106,0.023,0.183-0.007,0.221
				c-0.625,0.893-0.831,1.938-1.082,2.968c-0.146,0.587-0.245,1.159-0.245,1.761c0,0.946,1,1.694,1.893,1.404
				c0.151-0.052,0.325-0.205,0.396-0.35c0.151-0.359,0.27-0.732,0.344-1.114c0.112-0.565,0.215-1.138,0.25-1.708
				c0.039-0.588,0.017-1.183-0.021-1.77c-0.054-0.816-0.161-1.625-0.2-2.441c-0.006-0.199,0.1-0.428,0.206-0.61
				c0.925-1.472,2.091-2.746,3.31-4.15c0.02,0.251,0.049,0.411,0.039,0.571c-0.073,1.106-0.127,2.22-0.25,3.326
				c-0.084,0.748-0.306,1.488-0.42,2.235c-0.076,0.481-0.131,0.993-0.063,1.473c0.048,0.283,0.314,0.573,0.55,0.779
				c0.267,0.229,0.58,0.136,0.793-0.161c0.093-0.129,0.187-0.281,0.229-0.434c0.518-1.854,0.771-3.739,0.777-5.662
				c0.01-0.732,0.113-1.471,0.168-2.204c0.023-0.329,0.067-0.671-0.007-0.978c-0.122-0.495,0.054-0.868,0.275-1.281
				c0.227-0.435,0.379-0.908,0.562-1.365c0.133-0.321,0.254-0.649,0.545-0.907c0.051,5.293,0.104,10.587,0.158,15.874
				c-0.061,0.062-0.123,0.13-0.197,0.184c-0.177,0.13-0.283,0.352-0.437,0.519c-0.09,0.106-0.174,0.244-0.296,0.29
				c-0.625,0.251-0.969,0.77-1.17,1.365c-0.258,0.764-0.686,1.389-1.266,1.938c-0.357,0.336-0.662,0.732-1.014,1.076
				c-0.477,0.458-0.969,0.885-1.45,1.335c-0.437,0.403-0.907,0.777-1.282,1.236c-0.58,0.716-1.289,1.25-2.026,1.785
				c-0.918,0.664-1.779,1.395-2.688,2.076c-0.374,0.28-0.793,0.51-1.212,0.725c-0.473,0.244-0.977,0.435-1.449,0.671
				c-0.397,0.198-0.794,0.358-1.244,0.313c-0.679-0.062-1.137,0.297-1.526,0.776c-0.45,0.558-0.862,1.138-1.571,1.427
				c-0.153,0.063-0.268,0.358-0.29,0.559c-0.023,0.289,0.274,0.647,0.542,0.67c0.916,0.076,1.831,0.031,2.571-0.608
				c0.365-0.321,0.778-0.497,1.289-0.664c-0.282,0.487-0.526,0.923-0.77,1.351c-0.374,0.656-0.771,1.304-1.122,1.968
				c-0.274,0.519-0.206,0.985,0.138,1.305c0.504,0.479,1.266,0.382,1.632-0.206c0.862-1.396,1.465-2.906,1.747-4.509
				c0.183-1.054,0.809-1.586,1.747-1.821c0.404-0.107,0.709-0.306,1.022-0.535c0.314-0.229,0.61-0.48,0.909-0.717
				c0.036,0.047,0.089,0.083,0.083,0.1c-0.397,0.983-0.795,1.969-1.207,2.951c-0.137,0.338-0.359,0.656-0.442,1
				c-0.1,0.412-0.114,0.848-0.1,1.274c0.008,0.272,0.183,0.487,0.481,0.569c0.305,0.094,0.52-0.006,0.717-0.229
				c0.383-0.426,0.771-0.854,1.146-1.287c0.104-0.123,0.205-0.262,0.274-0.414c0.442-1.06,0.899-2.119,1.121-3.256
				c0.045-0.222,0.045-0.451,0.045-0.681c0.015-0.578,0.039-1.151,0.024-1.731c-0.016-0.427,0.152-0.746,0.463-1.015
				c0.625-0.534,1.259-1.067,1.854-1.633c0.481-0.45,0.915-0.937,1.373-1.418c0.17-0.175,0.338-0.342,0.559-0.58
				c-0.16,0.656-0.344,1.221-0.426,1.809c-0.178,1.266-0.572,2.471-0.964,3.676c-0.174,0.551-0.409,1.076-0.602,1.617
				c-0.113,0.328-0.2,0.672-0.274,1.008c-0.078,0.351,0.023,0.656,0.319,0.869c0.305,0.221,0.619,0.176,0.93-0.009
				c0.452-0.259,0.796-0.571,0.993-1.106c0.374-1.027,0.657-2.064,0.84-3.143c0.251-1.472,0.586-2.936,0.87-4.401
				c0.09-0.481,0.129-0.969,0.158-1.458c0.039-0.625,0.114-1.198,0.604-1.677c0.228-0.23,0.389-0.536,0.58-0.87
				c0.029,2.8,0.053,5.599,0.084,8.399c-0.031,0.862-0.07,1.724-0.1,2.586c-0.01,0.099-0.02,0.199-0.02,0.298
				c-0.006,0.189-0.015,0.389-0.015,0.58c-0.03,0.756-0.067,1.502-0.099,2.258c-0.206,0.564-0.487,1.1-0.664,1.672
				c-0.197,0.633-0.764,0.944-1.121,1.434c-1.021,1.389-2.503,2.258-3.807,3.303c-0.847,0.68-1.914,1.092-2.694,1.9
				c-0.083,0.082-0.206,0.145-0.326,0.175c-0.811,0.198-1.444,0.688-2.015,1.251c-0.259,0.253-0.557,0.389-0.885,0.525
				c-0.931,0.392-1.854,0.795-2.777,1.197c-0.267,0.115-0.519,0.215-0.824,0.178c-0.229-0.022-0.504,0.037-0.709,0.151
				c-0.778,0.429-1.625,0.671-2.456,0.983c-0.939,0.352-1.854,0.755-2.655,1.39c-0.748,0.58-1.647,0.815-2.54,1.074
				c-0.214,0.062-0.428,0.146-0.595,0.282c-0.213,0.16-0.099,0.404-0.076,0.635c0.022,0.266-0.199,0.587,0.137,0.777
				c0.222,0.121,0.497,0.166,0.74,0.252c0.496,0.16,0.893-0.039,1.228-0.383c0.283-0.289,0.595-0.473,1.007-0.557
				c0.268-0.054,0.504-0.26,0.749-0.396c0.122-0.067,0.229-0.151,0.427-0.16c-0.214,0.298-0.427,0.595-0.633,0.9
				c-0.359,0.541-0.724,1.084-1.061,1.647c-0.122,0.196-0.206,0.442-0.221,0.672c-0.046,0.479,0.206,0.755,0.687,0.708
				c1.152-0.105,1.938-0.434,2.396-1.837c0.374-1.153,0.763-2.297,1.144-3.449c0.985-0.243,1.847-0.93,2.976-0.794
				c-0.214,0.535-0.466,1.038-0.901,1.42c-0.496,0.434-0.755,1.008-1.022,1.579c-0.183,0.411-0.404,0.81-0.526,1.244
				c-0.115,0.39-0.176,0.808-0.161,1.205c0.023,0.448,0.435,0.687,0.908,0.587c0.854-0.184,1.51-0.648,1.838-1.479
				c0.313-0.779,0.587-1.564,0.863-2.358c0.19-0.556,0.297-1.136,0.595-1.662c0.153-0.274,0.213-0.634,0.229-0.954
				c0.015-0.496,0.267-0.738,0.709-0.877c0.526-0.16,1.045-0.344,1.647-0.549c-0.198,0.57-0.32,1.098-0.557,1.557
				c-0.458,0.876-0.61,1.822-0.786,2.775c-0.038,0.199-0.007,0.412,0.038,0.609c0.1,0.459,0.511,0.703,0.969,0.635
				c0.527-0.076,0.856-0.297,0.91-0.885c0.021-0.246,0.167-0.513,0.326-0.711c0.52-0.633,0.664-1.396,0.81-2.158
				c0.212-1.1,0.38-2.213,0.572-3.35c0.678-0.251,1.221-0.701,1.725-1.22c0.229-0.238,0.58-0.374,0.885-0.535
				c0.268-0.146,0.549-0.259,0.816-0.39c0.069,0.215,0.051,1.298-0.063,1.633c-0.174,0.525-0.344,1.061-0.586,1.557
				c-0.422,0.84-0.645,1.725-0.787,2.641c-0.061,0.404-0.092,0.815-0.092,1.221c-0.008,0.626,0.511,1.066,1.13,0.932
				c0.335-0.076,0.647-0.253,0.96-0.404c0.199-0.1,0.396-0.229,0.564-0.383c0.152-0.145,0.328-0.318,0.383-0.519
				c0.183-0.647,0.373-1.306,0.463-1.978c0.094-0.729,0.152-1.479,0.078-2.211c-0.055-0.525,0.084-1.015,0.074-1.525
				c-0.006-0.534-0.015-1.067,0-1.604c0.01-0.144,0.033-0.373,0.123-0.426c0.438-0.261,0.328-0.609,0.221-1.008
				c0.644-0.672,1.289-1.344,1.938-2.008c0.033,0.031,0.063,0.055,0.084,0.076c-0.006,0.084-0.006,0.178-0.015,0.262
				c-0.006,0.152,0.031,0.273,0.093,0.374c0.028,0.792,0.073,1.593,0.06,2.387c-0.016,0.74-0.006,1.474,0.077,2.213
				c0.075,0.687,0.007,1.396,0.007,2.099c0,0.16-0.016,0.344,0.039,0.488c0.122,0.35,0.196,0.709,0.25,1.067
				c0.055,2.937,0.084,5.866,0.078,8.795c-0.29,0.953-0.938,1.701-1.73,2.403c-0.319,0.283-0.629,0.603-0.899,0.931
				c-0.489,0.563-0.993,1.076-1.726,1.342c-0.397,0.146-0.748,0.429-1.112,0.642c-0.599,0.353-1.185,0.727-1.794,1.054
				c-0.438,0.229-0.9,0.405-1.357,0.587c-0.748,0.298-1.44,0.672-2.06,1.184c-0.313,0.26-0.657,0.412-1.061,0.473
				c-0.832,0.123-1.542,0.519-2.229,0.992c-0.289,0.199-0.663,0.367-1.014,0.39c-0.519,0.028-0.954,0.221-1.396,0.435
				c-0.771,0.366-1.542,0.664-2.411,0.701c-0.297,0.018-0.61,0.107-0.87,0.253c-0.847,0.479-1.747,0.647-2.701,0.571
				c-0.655-0.053-1.25,0.169-1.823,0.436c-0.167,0.075-0.328,0.274-0.381,0.449c-0.1,0.299-0.29,0.436-0.564,0.504
				c-0.412,0.115-0.801,0.29-1.259,0.26c-0.382-0.022-0.473,0.129-0.58,0.535c-0.076,0.289-0.282,0.594,0.016,0.815
				c0.511,0.373,1.029,0.784,1.739,0.58c0.199-0.056,0.382-0.146,0.58-0.207c0.526-0.185,1.052-0.382,1.587-0.533
				c0.19-0.054,0.404-0.024,0.686-0.03c-0.099,0.151-0.152,0.26-0.221,0.336c-0.458,0.473-0.748,1.053-1.06,1.617
				c-0.168,0.307-0.358,0.596-0.534,0.9c-0.328,0.556-0.519,1.142-0.488,1.806c0.023,0.413,0.16,0.728,0.587,0.831
				c0.435,0.107,0.771-0.083,1.015-0.424c0.237-0.338,0.442-0.688,0.679-1.023c0.473-0.672,0.953-1.326,1.426-2
				c0.504-0.718,0.748-1.556,1.023-2.371c0.091-0.274,0.19-0.436,0.465-0.488c0.519-0.114,1.038-0.244,1.556-0.359
				c0.48-0.105,0.969-0.189,1.373-0.51c0.107-0.085,0.245-0.122,0.512-0.252c-0.58,1.015-0.816,2.037-1.503,2.836
				c-0.511,0.596-0.877,1.298-1.121,2.046c-0.138,0.421-0.214,0.879-0.229,1.321c-0.023,0.557,0.48,0.869,0.969,0.601
				c0.58-0.312,1.145-0.647,1.663-1.052c0.236-0.184,0.343-0.541,0.503-0.822c0.451-0.816,0.61-1.74,0.87-2.619
				c0.213-0.707,0.488-1.387,0.724-2.09c0.1-0.29,0.199-0.587,0.214-0.885c0.016-0.344,0.161-0.549,0.45-0.672
				c0.359-0.146,0.718-0.342,1.091-0.389c0.763-0.084,1.442-0.306,1.978-0.886c0.099-0.112,0.251-0.175,0.478-0.319
				c-0.068,0.258-0.089,0.412-0.143,0.563c-0.23,0.642-0.489,1.267-0.703,1.907c-0.221,0.688-0.755,1.16-1.113,1.748
				c-0.374,0.609-0.801,1.205-1.053,1.859c-0.183,0.481-0.183,1.053-0.152,1.58c0.03,0.549,0.519,0.977,1.045,1.061
				c0.465,0.074,0.976-0.207,1.273-0.702c0.246-0.403,0.497-0.802,0.727-1.214c0.159-0.281,0.32-0.563,0.434-0.861
				c0.404-1.052,0.792-2.105,0.924-3.242c0.03-0.297,0.188-0.587,0.236-0.885c0.139-0.87,0.261-1.746,0.365-2.624
				c0.023-0.151-0.045-0.319-0.069-0.487c1.298-0.717,2.597-1.441,3.959-2.197c0.033,0.496-0.051,0.955-0.119,1.412
				c-0.138,0.914-0.274,1.821-0.413,2.738c-0.045,0.305-0.099,0.609-0.152,0.907c-0.26,1.372-0.534,2.739-0.776,4.118
				c-0.078,0.441-0.123,0.918,0.099,1.336c0.104,0.213,0.275,0.404,0.448,0.564c0.187,0.168,0.39,0.139,0.619-0.009
				c0.625-0.389,0.978-0.924,1.181-1.647c0.407-1.389,0.422-2.791,0.383-4.219c-0.028-1.166,0.129-2.334,0.168-3.51
				c0.023-0.625,0.191-1.258-0.029-1.892c-0.107-0.298,0-0.548,0.26-0.816c0.602-0.608,1.289-1.06,2.061-1.411
				c0.158-0.076,0.312-0.166,0.474-0.268c-0.009,0.682-0.015,1.359-0.039,2.038c-0.106,4.34-0.274,8.795-1.372,13.013
				c-0.915,3.52-2.602,6.691-4.99,9.377c-0.641,0.389-1.283,0.786-1.923,1.182c-3.166,1.955-6.438,3.617-10.619,3.305
				c-4.013-0.305-7.11,1.169-9.643,3.652c-0.878,0.865-1.809,1.688-2.625,2.588c-0.564,0.625-1.106,1.268-1.625,1.916
				c-5.867-2.983-11.245-6.646-15.723-11.393c-4.043-4.285-6.79-9.344-8.178-14.859c-1.792-7.109-3.882-14.188-3.89-21.551
				c0-7.65,0-15.312,0-22.962c0-5.667,0.29-11.352-0.069-17.004c-0.61-9.688,1.945-19.018,4.158-28.317
				c1.007-4.234,3.654-8.416,6.538-12.015c6.721-8.377,16.676-14.319,28.646-17.173c7.995-1.898,16.151-3.875,24.542-3.417
				c9.74,0.526,19.416,2.09,27.953,6.432c10.426,5.293,20.648,11.046,22.838,22.809c3.717,4.113,2.648,9.376,4.287,13.778
				c2.373,6.37,1.137,12.832,3.043,19.217c1.978,6.629,0.442,14.076,0.442,21.163C348.291,96.021,348.596,102.836,348.213,109.626z
				 M269.921,130.255c-0.054,0.151-0.107,0.296-0.161,0.448c-0.038-0.016-0.069-0.023-0.107-0.039
				c0.054-0.152,0.1-0.305,0.153-0.448C269.844,130.23,269.883,130.246,269.921,130.255z M276.062,128.461
				c-0.328,0.557-0.656,1.115-0.976,1.671c-0.046-0.428,0.389-1.221,0.862-1.748C275.978,128.406,276.024,128.43,276.062,128.461z"
				/>
		</g>
		<g>
			<polygon fill="#22262B" points="308.889,86.1 308.934,86.1 308.912,86.061 			"/>
		</g>
		<g>
			<path fill="#22262B" d="M251.407,38.679c-0.29-0.091-0.657-0.107-0.947-0.015c-2.105,0.662-3.631,2.036-4.516,4.035
				c-1.823,4.128,0.496,8.49,4.059,9.833c0.602,0.23,1.136,0.268,1.739,0.031c2.7-1.084,4.707-3.739,4.684-6.843
				C256.487,42.554,254.389,39.602,251.407,38.679z M253.703,47.567c-0.634,1.547-2.098,2.852-3.861,2.135
				c-0.907-0.366-1.418-1.09-1.7-1.938c-0.656-1.129-0.832-2.57-0.214-3.966c0.526-1.19,1.442-2.006,2.692-2.404
				c0.168-0.053,0.39-0.045,0.565,0.007c1.778,0.55,3.028,2.313,2.99,4.196C254.183,46.308,254.008,46.979,253.703,47.567z"/>
		</g>
		<g>
			<path fill="#22262B" d="M328.396,45.62c0.06-3.157-2.037-6.11-5.021-7.032c-0.29-0.093-0.654-0.108-0.943-0.017
				c-2.105,0.664-3.634,2.038-4.52,4.037c-1.82,4.126,0.497,8.49,4.061,9.833c0.603,0.229,1.137,0.268,1.737,0.031
				C326.413,51.38,328.41,48.725,328.396,45.62z M323.359,49.588c-0.357,0.145-0.67,0.121-1.036-0.015
				c-2.12-0.801-3.503-3.402-2.419-5.859c0.26-0.58,0.609-1.076,1.046-1.472c0.228-0.443,0.595-0.802,1.075-0.984
				c0.062-0.039,0.129-0.078,0.197-0.107c0.9-0.411,1.86-0.077,2.494,0.634c0.521,0.587,0.855,1.212,1.021,1.854
				c0.268,0.579,0.414,1.22,0.404,1.876C326.159,47.36,324.969,48.947,323.359,49.588z"/>
		</g>
		<g>
			<path fill="#22262B" d="M294.363,24.055c-0.305-0.961-0.551-1.854-1.182-2.663c-0.551-0.71-1.412-1.251-2.061-1.915
				c-1.102-0.671-2.404-1.06-3.854-1.06c-3.64,0.015-6.591,2.555-7.229,6.012c0.099,1.311,0.129,2.624,0.631,3.86
				c0.329,0.809,0.718,1.594,1.085,2.388c1.389,1.556,3.424,2.54,5.689,2.495c4.22-0.093,7.219-3.609,7.219-7.309
				c0-0.404-0.033-0.809-0.094-1.198C294.501,24.466,294.426,24.26,294.363,24.055z M290.527,28.929
				c-0.984,1.305-2.512,2.114-4.303,1.732c-3.039-0.649-4.205-3.86-3.158-6.614c0.596-1.573,3.043-3.663,4.683-2.899
				c0.069-0.009,0.146-0.024,0.216-0.024c0.738-0.022,1.479,0.229,2.09,0.626c0.989,0.64,1.447,1.761,1.579,2.906
				c0.099,0.381,0.152,0.777,0.152,1.183C291.801,26.983,291.328,28.097,290.527,28.929z"/>
		</g>
		<g>
			<path fill="#22262B" d="M245.616,91.37c0.046-0.13,0.061-0.306,0.061-0.563c-0.007-2.129,0-4.266,0-6.394c0,0,0,0-0.007,0
				c0-1.908,0-3.814,0-5.721c0-0.428-0.038-0.855-0.061-1.281c-0.008-0.207-0.077-0.352-0.198-0.443
				c-0.778,0.015-1.549,0.084-2.304,0.259c-2.761,0.839-4.745,3.243-5.18,6.164c-0.358,2.412,0.534,4.425,2.189,6.149
				c0.268,0.282,0.557,0.532,0.847,0.763c0.877,0.373,1.792,0.924,2.731,1.016C244.342,91.393,244.983,91.294,245.616,91.37z
				 M243.335,88.014c-0.954-0.009-1.754-0.383-2.411-1.062c-0.839-0.87-1.29-1.898-1.106-3.12c0.245-1.632,1.442-2.953,3.075-3.234
				c0.176-0.031,0.351-0.054,0.526-0.068c0.183-0.017,0.282,0.083,0.297,0.266c0.016,0.214,0.031,0.435,0.031,0.649
				c0,0.969,0,1.93,0,2.899l0,0c0,1.084,0,2.159,0,3.243C243.747,87.953,243.701,88.014,243.335,88.014z"/>
		</g>
		<g>
			<path fill="#22262B" d="M333.048,76.837c-0.434-0.145-0.86-0.305-1.295-0.428c-0.786-0.221-1.571-0.113-2.374-0.069
				c-0.068,0.13-0.093,0.322-0.093,0.619c0.01,2.127,0,4.264,0,6.393c0,0,0,0,0.01,0c0,1.906,0,3.813,0,5.722
				c0,0.428,0.038,0.854,0.06,1.281c0.01,0.166,0.063,0.305,0.146,0.396c0.596,0,1.205-0.015,1.809-0.067
				c3.045-0.68,5.264-3.197,5.729-6.31c0.358-2.41-0.536-4.423-2.192-6.147C334.301,77.639,333.706,77.181,333.048,76.837z
				 M335.146,83.94c-0.246,1.632-1.44,2.953-3.073,3.234c-0.177,0.031-0.353,0.055-0.526,0.068
				c-0.186,0.016-0.283-0.083-0.299-0.266c-0.016-0.215-0.03-0.437-0.03-0.648c0-0.969,0-1.931,0-2.899l0,0c0-1.084,0-2.159,0-3.243
				c0-0.366,0.046-0.427,0.413-0.427c0.953,0.007,1.755,0.381,2.41,1.062C334.881,81.688,335.329,82.719,335.146,83.94z"/>
		</g>
	</g>
	<g display="inline">
		<path fill="#22262B" d="M28.687,108.719l-3.952-13.023c-0.519,1.586-1.236,3.701-2.174,6.316
			c-0.938,2.616-1.571,4.723-1.922,6.295l-0.366-0.047c-0.816,0-2.266,0.152-4.341,0.459c-3.715-12.84-7.248-23.994-10.619-33.46
			l5.5-0.703c2.892,9.986,5.798,19.209,8.704,27.663L23.469,91.4l-5.638-16.188c0.587-0.123,1.511-0.221,2.761-0.305
			c1.251-0.083,2.105-0.184,2.556-0.305l2.975,9.771l3.021-9.252c0.32-0.062,0.9-0.1,1.747-0.123
			c0.847-0.022,1.412-0.062,1.686-0.121L27.39,88.326l4.569,13.775l9.116-26.89l3.205-0.344l-8.727,25.006
			c-1.091,3.167-1.884,5.981-2.388,8.431C31.875,108.336,30.387,108.473,28.687,108.719z"/>
		<path fill="#22262B" d="M57.271,75.259h5.157l-0.045,14.708l0.091,18.614c-0.534,0.045-1.374,0.06-2.525,0.045
			c-1.152-0.017-2.113,0.03-2.884,0.138l0.297-18.797L57.271,75.259z"/>
		<path fill="#22262B" d="M77.426,79.438l-2.136-2.792l5.02-1.815l17.188,24.503V75.441c0.862-0.091,1.732-0.137,2.616-0.137h0.413
			v1.954l-0.183,18.049c0,6.424,0.175,10.711,0.526,12.869l-2.953,0.932L80.096,83.26v1.504l0.229,23.733l-3.25,0.229L77.426,79.438
			z"/>
		<path fill="#22262B" d="M113.38,78.325l2.182-3.112l17.278,0.137l3.776-0.091l-2.388,3.112l-6.935-0.137
			c-0.03,0.503-0.045,1.35-0.045,2.547l0.183,27.708c-1.534,0-3.341,0.093-5.432,0.273l0.183-30.438h-8.802V78.325z"/>
		<path fill="#22262B" d="M165.927,105.284l-1.526,3.435l-15.456-0.138l0.229-17.097l-0.092-16.097h16.57l-1.679,3.205l-9.521-0.184
			l-0.206,11.595h11.184l-1.594,3.205c-0.923-0.062-2.479-0.093-4.662-0.093l-4.936,0.047c-0.031,0.335-0.046,0.906-0.046,1.725
			l0.252,10.436c1.846,0.121,3.906,0.184,6.179,0.184C162.097,105.514,163.867,105.438,165.927,105.284z"/>
		<path fill="#22262B" d="M179.216,108.9v-7.773l-0.229-25.868l9.681-0.435c3.089,0,5.5,0.686,7.232,2.067
			c1.724,1.38,2.594,3.28,2.594,5.707c0,2.304-0.702,4.202-2.113,5.69c-1.412,1.494-3.655,2.746-6.729,3.761
			c5.073,6.835,8.75,11.618,11.023,14.342l-4.615,2.754l-11.733-15.799l0.229,15.229C182.435,108.641,180.65,108.748,179.216,108.9z
			 M184.373,92.146l3.914-2.455c0.663,0.428,1.495,0.647,2.479,0.679c1.922-1.197,2.884-3.036,2.884-5.522
			c0-2.105-0.656-3.845-1.968-5.218c-1.312-1.374-3.082-2.06-5.31-2.06c-0.984,0-1.656,0.015-1.999,0.045V92.146L184.373,92.146z"/>
		<path fill="#22262B" d="M396.189,108.719l-15.547-0.138l0.047-9.955l-0.183-23.505l5.271-0.252l0.07,20.46
			c0,5.805,0.051,9.153,0.157,10.048c1.863,0.092,3.854,0.137,5.959,0.137c2.845,0,4.646-0.029,5.386-0.092L396.189,108.719z"/>
		<path fill="#22262B" d="M407.048,93.514c0-6.035,1.897-10.68,5.688-13.953c3.802-3.272,7.348-4.914,10.65-4.914
			c3.969,0,7.238,1.512,9.795,4.524c2.563,3.014,3.846,6.942,3.846,11.779c0,5.424-1.829,9.834-5.501,13.221
			c-3.669,3.388-7.293,5.081-10.886,5.081c-3.41,0-6.531-1.313-9.354-3.943C408.459,102.668,407.048,98.738,407.048,93.514z
			 M424.272,105.033c1.105,0,2.129-0.139,3.059-0.413c0.93-0.272,1.771-0.671,2.526-1.188c0.754-0.52,1.401-1.679,1.968-3.455
			c0.556-1.777,0.837-3.692,0.837-5.738c0-4.713-1.127-8.451-3.385-11.213c-2.261-2.762-5.305-4.15-9.141-4.15
			c-1.199,0-2.425,0.162-3.691,0.481c-1.266,0.32-2.229,0.961-2.883,1.922c-0.658,0.961-1.237,2.22-1.726,3.776
			c-0.487,1.557-0.739,3.334-0.739,5.331c0,4.334,1.319,7.858,3.95,10.582C417.68,103.676,420.764,105.033,424.272,105.033z"/>
		<path fill="#22262B" d="M459.997,108.626l-9.506-0.183l0.183-16.297l-0.138-16.889l9.773-0.138c5.331,0,9.541,1.335,12.64,4.013
			c3.092,2.677,4.641,6.255,4.641,10.741c0,4.913-1.725,9.284-5.173,13.13C468.976,106.841,464.835,108.719,459.997,108.626z
			 M456.092,78.05c-0.167,0.954-0.251,5.562-0.251,13.824l0.251,13.067c1.908,0.351,3.692,0.525,5.34,0.525
			c2.046,0,4.15-0.396,6.311-1.183c2.158-0.786,3.585-2.183,4.287-4.173c0.693-1.99,1.044-3.981,1.044-5.967
			c0-4.807-1.389-8.695-4.171-11.67c-2.787-2.975-6.433-4.462-10.949-4.462C457.031,78.013,456.412,78.027,456.092,78.05z"/>
		<path fill="#22262B" d="M515.159,90.416v13.755c-4.407,3.38-8.307,5.073-11.686,5.073c-3.868,0-7.202-1.479-10.002-4.447
			c-2.808-2.96-4.203-6.835-4.203-11.627c0-5.438,2.036-9.886,6.117-13.343c4.072-3.455,7.735-5.18,10.978-5.18
			c3.121,0,6.12,0.978,8.979,2.931l-3.34,3.951c-2.365-1.832-5.218-2.754-8.566-2.754c-4.228,0-6.973,1.229-8.23,3.693
			c-1.259,2.463-1.884,5.126-1.884,7.986c0,4.258,1.373,7.78,4.126,10.56c2.754,2.775,6.02,4.172,9.811,4.172
			c0.571,0,1.555-0.129,2.932-0.389l0.138-11.299h-7.499l3.157-3.182L515.159,90.416z"/>
		<path fill="#22262B" d="M546.247,105.284l-1.525,3.435l-15.455-0.138l0.229-17.097l-0.09-16.097h16.566l-1.687,3.205l-9.521-0.184
			l-0.206,11.595h11.187l-1.594,3.205c-0.925-0.062-2.481-0.093-4.661-0.093l-4.938,0.047c-0.03,0.335-0.045,0.906-0.045,1.725
			l0.251,10.436c1.845,0.121,3.905,0.184,6.178,0.184C542.416,105.514,544.188,105.438,546.247,105.284z"/>
	</g>
</g>
<g id="Layer_2">
	<path d="M293.009,20.354c1.427,0.132,2.855,0.24,4.276,0.403c6.18,0.708,12.053,2.525,17.699,5.072
		c2.838,1.28,5.657,2.637,8.355,4.187c5.677,3.261,9.5,8.166,12.225,14.065c2.39,5.169,3.841,10.593,4.926,16.146
		c1.123,5.753,1.89,11.559,1.75,17.417c-0.112,4.554,0.379,8.986,1.416,13.396c0.603,2.556,0.135,5.07-0.458,7.567
		c-0.521,2.193-1.238,4.392-0.978,6.659c0.564,4.896-0.49,9.553-1.785,14.201c-1.367,4.905-3.056,9.671-5.705,14.054
		c-4.002,6.627-9.747,11.253-16.629,14.593c-4.393,2.129-9.059,3.445-13.768,4.619c-2.901,0.722-5.82,1.402-8.757,1.938
		c-2.805,0.511-5.629,0.163-8.439-0.181c-3.684-0.448-7.378-0.801-11.049-1.305c-1.201-0.166-2.368-0.633-3.526-1.036
		c-0.973-0.34-1.884-0.866-2.864-1.172c-4.027-1.258-7.916-2.834-11.645-4.814c-3.182-1.689-5.978-3.873-8.505-6.424
		c-3.08-3.113-5.798-6.509-8.135-10.212c-2.087-3.311-3.537-6.831-3.986-10.763c-0.365-3.195-0.973-6.362-1.377-9.554
		c-0.398-3.146-0.716-6.3-0.993-9.458c-0.258-2.96-0.442-5.928-0.598-8.896c-0.035-0.664,0.281-1.345,0.267-2.016
		c-0.032-1.583-0.187-3.163-0.254-4.746c-0.085-1.937-0.01-3.858,0.543-5.741c0.973-3.31,1.362-6.73,1.232-10.141
		c-0.186-4.855,0.949-9.43,2.34-13.984c1.106-3.619,2.253-7.226,3.456-10.813c0.251-0.748,0.739-1.46,1.263-2.063
		c3.079-3.532,6.249-6.976,9.855-9.992c5.486-4.59,11.732-7.49,18.799-8.618c3.813-0.609,7.613-1.281,11.431-1.833
		c1.81-0.261,3.65-0.308,5.477-0.457c0.191-0.016,0.381-0.065,0.572-0.099H293.009z M279.646,123.499l0.391-0.104
		c-0.012-0.039-0.021-0.077-0.033-0.117c-0.118,0.073-0.236,0.148-0.352,0.222c0.013,0.092,0.025,0.183,0.038,0.271
		c0.024-0.005,0.049-0.014,0.073-0.021C279.725,123.666,279.686,123.583,279.646,123.499 M291.445,113.762
		c-0.019,0.045-0.058,0.088-0.054,0.129c0.292,3.18,0.502,6.372,0.908,9.537c0.338,2.645,1.177,5.163,2.652,7.426
		c0.223,0.342,0.494,0.689,0.822,0.924c1.964,1.413,4.019,2.711,5.918,4.211c2.205,1.74,4.575,2.969,7.365,3.48
		c1.213,0.222,2.475,0.665,3.494,1.34c1.369,0.904,2.538,2.116,3.76,3.233c0.217,0.199,0.264,0.585,0.435,0.989
		c-0.148-0.019-0.097,0.002-0.054-0.008c0.094-0.027,0.185-0.069,0.274-0.106c4.682-2.071,8.742-4.979,11.838-9.088
		c3.567-4.736,5.945-10.09,7.805-15.689c2.398-7.227,2.602-14.693,2.428-22.196c-0.109-4.81-0.062-9.611,0.286-14.41
		c0.234-3.198,0.119-6.369-0.644-9.522c-0.499-2.059-0.793-4.178-1.023-6.287c-0.306-2.829-0.277-5.711-1.204-8.436
		c-0.7-2.058-1.06-4.166-1.362-6.3c-0.295-2.081-0.848-4.074-2.266-5.721c-0.122-0.142-0.199-0.346-0.235-0.534
		c-0.928-4.546-3.383-8.151-6.902-11.063c-4.586-3.793-9.815-6.51-15.278-8.762c-4.658-1.919-9.592-2.775-14.582-3.283
		c-3.354-0.339-6.714-0.561-10.086-0.242c-5.739,0.543-11.341,1.812-16.865,3.386c-7.735,2.202-14.501,6.08-19.838,12.208
		c-2.553,2.931-4.809,6.085-5.922,9.866c-0.774,2.632-1.344,5.327-1.95,8.006c-1.149,5.085-2.018,10.206-1.738,15.454
		c0.063,1.163,0.144,2.327,0.142,3.49c-0.008,3.245-0.079,6.491-0.086,9.737c-0.016,6.692-0.014,13.388,0.004,20.083
		c0.003,1.062,0.1,2.128,0.204,3.188c0.413,4.181,1.513,8.221,2.522,12.281c0.708,2.845,1.559,5.623,2.988,8.204
		c2.662,4.805,6.557,8.42,11.047,11.44c1.859,1.251,3.828,2.338,5.673,3.452c1.221-1.249,2.307-2.365,3.4-3.476
		c2.184-2.217,4.789-3.396,7.944-3.157c2.052,0.156,4.013-0.212,5.835-1.124c2.246-1.122,4.665-2.086,5.949-4.467
		c0.853-1.584,1.699-3.197,2.303-4.883c0.975-2.729,1.166-5.617,1.287-8.491c0.06-1.451,0.009-2.906,0.009-4.575
		c-0.719,0.529-1.413,0.924-1.934,1.479c-0.225,0.239-0.087,0.818-0.116,1.241c-0.014,0.197-0.038,0.395-0.047,0.593
		c-0.046,1.186-0.084,2.371-0.131,3.558c-0.047,1.26,0.012,2.556-0.661,3.683c-0.194,0.327-0.671,0.489-1.017,0.726
		c-0.212-0.416-0.435-0.827-0.623-1.253c-0.043-0.095,0.024-0.241,0.047-0.363c0.202-1.069,0.424-2.137,0.604-3.211
		c0.227-1.354,0.42-2.715,0.657-4.262c-0.803,0.446-1.397,0.844-2.047,1.119c-0.846,0.361-1.403,0.836-1.276,1.854
		c0.033,0.284-0.067,0.587-0.121,0.881c-0.351,1.929-0.776,3.833-1.925,5.488c-0.317,0.457-0.694,0.717-1.247,0.558
		c-0.534-0.155-0.665-0.572-0.688-1.097c-0.053-1.2,0.739-2.002,1.268-2.941c0.5-0.889,0.908-1.829,1.362-2.757
		c-0.882,0.308-1.644,0.53-2.364,0.848c-0.347,0.15-0.771,0.427-0.889,0.745c-0.448,1.23-0.803,2.495-1.163,3.755
		c-0.299,1.046-0.924,1.796-1.919,2.213c-0.224,0.096-0.583,0.157-0.738,0.042c-0.16-0.118-0.26-0.514-0.187-0.713
		c0.299-0.826,0.647-1.636,1.03-2.426c0.34-0.704,0.751-1.375,1.161-2.114c-0.864,0.229-1.547,0.453-2.246,0.579
		c-0.535,0.097-0.734,0.401-0.981,0.855c-0.766,1.401-1.617,2.762-2.491,4.102c-0.12,0.186-0.578,0.255-0.843,0.201
		c-0.157-0.032-0.364-0.434-0.335-0.638c0.077-0.524,0.205-1.067,0.438-1.54c0.363-0.739,0.828-1.428,1.371-2.341
		c-0.8,0.27-1.387,0.545-2.003,0.649c-0.447,0.077-0.951-0.014-1.392-0.152c-0.181-0.057-0.352-0.432-0.364-0.667
		c-0.019-0.373,0.195-0.591,0.635-0.658c0.442-0.066,1.008-0.194,1.254-0.503c0.52-0.656,1.162-0.755,1.894-0.815
		c0.609-0.051,1.229-0.123,1.813-0.297c1.272-0.376,2.533-0.801,3.782-1.25c1.222-0.436,2.468-0.834,3.62-1.409
		c1.922-0.958,3.873-1.909,5.629-3.124c1.208-0.835,2.135-2.092,3.125-3.213c0.207-0.235,0.207-0.705,0.197-1.065
		c-0.078-2.571-0.193-5.141-0.277-7.712c-0.05-1.606-0.061-3.217-0.104-4.824c-0.011-0.368-0.084-0.731-0.135-1.164
		c-1.383,1.006-1.892,2.23-1.879,3.803c0.012,1.423-0.211,2.849-0.342,4.274c-0.072,0.793-0.595,1.208-1.279,1.486
		c-0.887,0.363-1.427,0.057-1.303-0.877c0.125-0.968,0.383-1.933,0.682-2.866c0.262-0.814,0.691-1.578,0.449-2.663
		c-0.939,0.651-1.805,1.242-2.656,1.853c-0.08,0.056-0.092,0.221-0.113,0.342c-0.295,1.595-0.439,3.217-1.293,4.683
		c-0.285,0.489-0.522,0.764-1.05,0.675c-0.602-0.101-0.626-0.604-0.533-1.044c0.159-0.746,0.396-1.478,0.615-2.21
		c0.11-0.365,0.253-0.719,0.432-1.215c-0.574,0.188-1.007,0.29-1.398,0.476c-0.194,0.094-0.383,0.319-0.455,0.527
		c-0.472,1.351-0.849,2.736-1.396,4.056c-0.205,0.489-0.719,0.936-1.203,1.197c-0.711,0.388-1.208,0.038-0.986-0.72
		c0.292-0.997,0.816-1.929,1.284-2.867c0.188-0.378,0.491-0.702,0.782-1.106c-1.343-0.147-2.405,0.484-2.76,1.549
		c-0.219,0.656-0.426,1.317-0.649,1.973c-0.213,0.626-0.604,1.103-1.28,1.214c-0.339,0.056-0.702-0.024-1.053-0.043
		c0.046-0.369,0.002-0.781,0.156-1.098c0.283-0.579,0.682-1.104,1.032-1.649l-0.129-0.142c-0.5,0.288-0.972,0.656-1.507,0.84
		c-0.423,0.142-0.933,0.107-1.384,0.035c-0.116-0.021-0.194-0.487-0.224-0.754c-0.064-0.574,0.433-0.563,0.785-0.699
		c0.507-0.195,1.023-0.37,1.514-0.601c1.205-0.563,2.38-1.191,3.6-1.72c0.783-0.341,1.633-0.526,2.438-0.823
		c2.502-0.927,4.602-2.554,6.792-4.014c0.923-0.616,1.773-1.354,2.587-2.109c1.148-1.073,1.966-2.341,1.983-3.997
		c0.03-2.526,0.082-5.052,0.117-7.576c0.012-0.867,0.001-1.733,0.001-2.757c-0.772,0.675-0.907,1.333-1.04,2.071
		c-0.414,2.333-0.924,4.655-1.455,6.966c-0.085,0.367-0.42,0.73-0.732,0.97c-0.197,0.15-0.635,0.173-0.852,0.052
		c-0.172-0.095-0.265-0.514-0.227-0.761c0.072-0.459,0.277-0.895,0.408-1.346c0.463-1.602,0.918-3.205,1.376-4.806
		c-0.067-0.03-0.134-0.058-0.202-0.086c-0.537,0.538-1.011,1.174-1.627,1.592c-1.27,0.864-1.688,1.973-1.703,3.501
		c-0.014,1.689-0.74,3.223-2.047,4.387c-0.15,0.133-0.461,0.199-0.647,0.142c-0.145-0.045-0.314-0.346-0.296-0.513
		c0.051-0.508,0.132-1.026,0.304-1.504c0.306-0.857,0.687-1.69,1.088-2.658c-0.595,0.366-1.002,0.75-1.48,0.886
		c-1.023,0.292-1.417,0.968-1.686,1.941c-0.305,1.107-0.807,2.167-1.278,3.222c-0.208,0.462-0.645,0.61-1.13,0.373
		c-0.509-0.249-0.523-0.691-0.359-1.145c0.101-0.276,0.275-0.525,0.422-0.785c0.334-0.589,0.672-1.176,1.008-1.766
		c-0.416,0.049-0.678,0.288-0.987,0.384c-0.621,0.195-1.264,0.34-1.907,0.439c-0.145,0.021-0.444-0.211-0.472-0.364
		c-0.037-0.192,0.079-0.474,0.222-0.629c0.397-0.434,0.829-0.842,1.276-1.226c0.255-0.218,0.556-0.499,0.858-0.528
		c1.494-0.146,2.75-0.835,3.858-1.742c1.914-1.564,3.773-3.198,5.601-4.864c0.853-0.777,1.692-1.599,2.058-2.774
		c0.092-0.295,0.41-0.549,0.679-0.752c0.581-0.443,0.921-0.925,0.901-1.73c-0.068-3.024-0.06-6.049-0.08-9.073
		c-0.004-0.912,0-1.824,0-2.736c-0.098-0.009-0.196-0.018-0.296-0.027c-0.294,0.804-0.73,1.588-0.849,2.417
		c-0.177,1.243-0.073,2.523-0.193,3.777c-0.108,1.154-0.322,2.303-0.564,3.438c-0.064,0.294-0.414,0.528-0.635,0.788
		c-0.231-0.338-0.625-0.663-0.656-1.018c-0.051-0.6,0.141-1.219,0.214-1.833c0.147-1.258,0.282-2.52,0.423-3.779
		c-0.08-0.027-0.16-0.055-0.24-0.083c-0.625,0.754-1.219,1.537-1.883,2.254c-0.746,0.802-0.806,1.703-0.752,2.742
		c0.067,1.271-0.075,2.558-0.186,3.833c-0.046,0.52-0.313,0.973-0.963,0.889c-0.648-0.085-1.029-0.476-1.08-1.129
		c-0.021-0.292,0.009-0.599,0.08-0.883c0.251-1.003,0.53-1.999,0.818-3.067c-0.408,0.472-0.798,0.887-1.146,1.334
		c-0.665,0.849-1.298,1.722-1.963,2.569c-0.115,0.146-0.339,0.326-0.484,0.304c-0.406-0.061-0.832-0.166-1.174-0.376
		c-0.085-0.052,0.024-0.665,0.21-0.863c0.512-0.548,1.138-0.987,1.67-1.518c0.62-0.618,1.2-1.275,1.779-1.933
		c0.963-1.097,2.018-2.134,2.84-3.332c0.828-1.21,1.98-2.124,2.735-3.432c0.432-0.747,0.884-1.556,1.376-2.303
		c0.582-0.891,1.043-1.866,0.854-3.041c-0.125-0.775-0.036-1.583-0.042-2.377c-0.003-0.318-0.001-0.637-0.001-0.955
		c-0.525,0.495-0.847,1.029-1.254,1.487c-0.506,0.57-0.728,1.187-0.732,1.954c-0.008,0.761-0.12,1.53-0.278,2.275
		c-0.054,0.251-0.36,0.525-0.614,0.624c-0.142,0.055-0.438-0.205-0.623-0.371c-0.618-0.551-0.508-1.217-0.265-1.95
		c-0.837,0.724-1.591,1.493-2.336,2.268c-0.063,0.067-0.087,0.175-0.127,0.264c-0.29,0.612-0.56,1.236-0.88,1.833
		c-0.301,0.567-0.867,0.47-1.318,0.32c-0.35-0.115-0.782-0.412-0.877-0.721c-0.073-0.241,0.256-0.689,0.512-0.935
		c0.963-0.926,2.029-1.751,2.948-2.717c1.968-2.07,4.323-3.82,5.554-6.515c0.16-0.351,0.25-0.775,0.23-1.158
		c-0.053-1.059-0.205-2.113-0.266-3.17c-0.034-0.588,1.188-1.25,1.703-0.95c0.097,0.057,0.217,0.176,0.222,0.273
		c0.034,0.532,0.056,1.065,0.044,1.599c-0.022,1.126-0.072,2.252-0.098,3.38c-0.002,0.111,0.09,0.228,0.146,0.337
		c0.334,0.63,0.629,1.286,1.014,1.884c0.838,1.305,1.666,2.624,2.613,3.847c0.423,0.544,1.291,0.76,1.666,1.318
		c0.633,0.945,1.474,1.48,2.461,1.905c0.608,0.261,0.874,0.935,0.614,1.403c-0.268,0.476-1.046,0.569-1.581,0.171
		c-0.155-0.115-0.251-0.313-0.407-0.427c-0.212-0.158-0.456-0.271-0.794-0.465c0.025,0.394,0.098,0.629,0.041,0.829
		c-0.086,0.311-0.192,0.752-0.416,0.85c-0.2,0.087-0.617-0.157-0.854-0.357c-0.207-0.177-0.328-0.483-0.43-0.754
		c-0.654-1.738-0.877-3.643-2.266-5.083c-0.756-0.784-1.309-1.762-1.955-2.652c-0.08,0.01-0.16,0.021-0.243,0.031
		c0.085,0.861,0.171,1.721,0.252,2.582c0.042,0.451,0.062,0.905,0.112,1.356c0.086,0.752-0.063,1.697,0.338,2.209
		c0.664,0.85,0.857,1.815,1.225,2.74c0.891,2.238,2.375,4.078,3.813,5.976c1.447,1.917,3.186,3.385,5.359,4.38
		c0.216,0.099,0.511,0.493,0.457,0.624c-0.123,0.302-0.393,0.645-0.684,0.752c-0.281,0.103-0.713,0.02-0.992-0.136
		c-0.764-0.425-1.48-0.93-2.134-1.351c0.123,0.608,0.298,1.353,0.422,2.106c0.105,0.647-0.212,0.921-0.852,0.813
		c-0.604-0.104-0.748-0.537-0.853-1.061c-0.287-1.431-0.585-2.86-0.928-4.278c-0.18-0.729-0.666-1.253-1.436-1.735
		c0.121,0.946,0.231,1.702,0.313,2.461c0.039,0.369,0.237,0.85-0.357,0.956c-0.525,0.095-0.786-0.26-0.861-0.718
		c-0.258-1.584-0.484-3.173-0.735-4.76c-0.054-0.336-0.115-0.683-0.247-0.994c-0.404-0.951-0.841-1.89-1.275-2.829
		c-0.111-0.239-0.262-0.463-0.392-0.693c-0.086,0.026-0.169,0.052-0.253,0.078c0.06,0.921,0.16,1.843,0.167,2.766
		c0.019,2.276-0.01,4.553-0.009,6.83c0,0.263,0.016,0.554,0.126,0.784c0.843,1.749,2.007,3.237,3.364,4.646
		c1.663,1.722,3.33,3.372,5.512,4.417c0.177,0.085,0.323,0.232,0.495,0.325c1.505,0.813,3.052,1.456,4.791,1.598
		c0.669,0.054,1.327,0.335,1.962,0.584c0.154,0.059,0.277,0.401,0.271,0.609c-0.005,0.152-0.234,0.415-0.382,0.429
		c-0.628,0.056-1.271,0.101-1.896,0.03c-0.552-0.064-1.085-0.288-1.625-0.44c-0.044,0.051-0.088,0.101-0.133,0.153
		c0.479,0.615,0.897,1.293,1.452,1.827c0.536,0.513,0.888,1.074,0.939,1.788c0.021,0.3-0.083,0.826-0.25,0.879
		c-0.325,0.104-0.847,0.079-1.082-0.127c-0.412-0.36-0.722-0.871-0.984-1.366c-0.462-0.871-0.858-1.779-1.28-2.674
		c-0.576-1.224-1.872-1.258-2.892-1.792c0.362,0.821,0.806,1.557,1.239,2.296c0.46,0.786,0.949,1.558,1.338,2.375
		c0.118,0.246,0.036,0.841-0.116,0.906c-0.282,0.125-0.695,0.022-1.028-0.072c-0.188-0.054-0.341-0.274-0.489-0.437
		c-1.026-1.13-1.57-2.502-1.983-3.944c-0.332-1.169-0.719-2.306-1.813-3.037c-0.323-0.214-0.567-0.551-0.824-0.85
		c-0.311-0.36-0.598-0.74-0.895-1.11l-0.24,0.203c0.075,0.279,0.134,0.567,0.231,0.843c0.44,1.259,0.935,2.503,1.312,3.78
		c0.103,0.351-0.021,1.063-0.231,1.151c-0.508,0.213-0.912-0.185-1.133-0.688c-0.08-0.183-0.158-0.362-0.245-0.54
		c-0.891-1.812-1.146-3.773-1.328-5.742c-0.134-1.448-1.416-1.989-2.146-2.985c-0.073,0.564-0.02,1.077-0.018,1.59
		c0.01,2.824,0.004,5.649,0.009,8.473c0.001,0.345-0.108,0.839,0.071,1.008c0.973,0.904,1.35,2.354,2.684,2.918
		c0.178,0.077,0.34,0.203,0.494,0.322c1.594,1.204,3.153,2.455,4.782,3.607c1.063,0.749,2.169,1.485,3.355,1.997
		c2.09,0.901,4.35,1.187,6.604,1.253c1.011,0.029,1.769,0.342,2.467,0.995c0.466,0.436,0.433,0.998-0.179,1.119
		c-0.679,0.134-1.406,0.075-2.105,0.021c-0.401-0.03-0.79-0.219-1.186-0.334c0.065,0.327,0.232,0.525,0.376,0.742
		c0.52,0.781,1.081,1.542,1.519,2.369c0.14,0.269-0.052,0.711-0.092,1.075c-0.365-0.046-0.751-0.038-1.089-0.158
		c-0.206-0.073-0.361-0.332-0.501-0.532c-0.941-1.337-1.891-2.667-2.796-4.027c-0.338-0.511-0.725-0.753-1.478-0.642
		c0.441,0.75,0.873,1.407,1.229,2.103c0.39,0.762,0.811,1.533,1.028,2.352c0.181,0.685-0.401,1.077-0.982,0.705
		c-0.397-0.252-0.772-0.64-0.985-1.055c-0.621-1.21-1.235-2.436-1.695-3.712c-0.355-0.989-1.065-1.327-2.17-1.628
		c0.342,1.07,0.639,1.999,0.936,2.927c0.257,0.798,0.514,1.596,0.773,2.394c0.162,0.502-0.141,0.76-0.528,0.912
		c-0.425,0.167-0.855,0.149-1.077-0.34c-0.356-0.786-0.768-1.561-1.006-2.383c-0.474-1.633-0.845-3.297-1.267-4.946
		c-0.032-0.133-0.103-0.294-0.205-0.363c-0.702-0.476-1.419-0.933-2.131-1.394l-0.168,0.119c0.258,0.79,0.512,1.582,0.775,2.373
		c0.39,1.173,0.82,2.334,1.149,3.522c0.075,0.271-0.162,0.895-0.301,0.908c-0.386,0.037-0.833-0.091-1.183-0.287
		c-0.223-0.126-0.365-0.473-0.454-0.749c-0.74-2.302-1.693-4.554-1.688-7.04c0-0.216-0.107-0.501-0.268-0.635
		c-0.814-0.681-1.662-1.321-2.504-1.983c0,0.104-0.008,0.251,0,0.397c0.142,2.844,0.232,5.695,0.445,8.534
		c0.172,2.291,0.131,4.608,1.102,6.805c0.633,1.437,1.607,2.554,2.851,3.318c1.19,0.732,2.235,1.808,3.727,2.001
		c0.13,0.017,0.234,0.179,0.364,0.249c0.749,0.414,1.471,0.903,2.26,1.208c2.191,0.845,4.442,1.54,6.612,2.434
		c1.656,0.681,3.323,1.219,5.099,1.433c0.415,0.05,0.909,0.104,0.854,0.699c-0.053,0.565-0.459,0.86-0.988,0.762
		c-0.94-0.174-1.865-0.425-2.79-0.671c-0.279-0.077-0.532-0.248-0.798-0.378c-0.045,0.059-0.09,0.117-0.136,0.176
		c0.582,0.913,1.187,1.814,1.737,2.745c0.297,0.504,0.581,1.04,0.73,1.597c0.207,0.773-0.153,1.067-0.933,0.826
		c-0.894-0.276-1.434-0.959-1.828-1.751c-0.507-1.017-1.041-2.035-1.416-3.104c-0.515-1.468-1.698-1.764-3.052-2.037
		c0.315,1.672,0.931,3.142,1.792,4.499c0.342,0.539,0.452,1.03,0.223,1.602c-0.218,0.545-0.741,0.657-1.1,0.191
		c-0.466-0.605-0.96-1.225-1.251-1.916c-0.556-1.315-0.957-2.694-1.458-4.032c-0.159-0.429-0.331-0.972-0.671-1.189
		c-0.809-0.518-1.72-0.872-2.778-1.384c0.173,0.503,0.259,0.756,0.347,1.008c0.645,1.818,1.318,3.628,1.91,5.464
		c0.111,0.347,0.024,1.037-0.195,1.155c-0.484,0.262-1.001-0.025-1.339-0.492c-0.087-0.119-0.159-0.255-0.208-0.393
		c-0.728-2.021-1.563-4.013-2.137-6.077c-0.417-1.508-1.242-2.448-2.72-2.988c-0.038,1.149,0.494,2.112,0.822,3.135
		c0.548,1.716,1.055,3.449,1.532,5.189c0.075,0.274-0.097,0.618-0.154,0.931c-0.33-0.127-0.698-0.196-0.978-0.396
		c-0.223-0.161-0.41-0.456-0.48-0.727c-0.563-2.127-1.11-4.259-1.625-6.398C293.214,116.55,293.097,114.811,291.445,113.762
		 M264.341,145.263c0.83,0.362,1.536,0.709,2.272,0.97c0.257,0.093,0.642,0.071,0.875-0.063c1.968-1.119,4.089-1.682,6.332-1.558
		c2.333,0.129,4.471-0.415,6.487-1.503c2.309-1.245,4.56-2.604,6.896-3.793c2.904-1.476,5.885-1.552,8.723,0.162
		c2.475,1.494,4.864,3.129,7.275,4.729c1.661,1.101,3.416,1.953,5.33,2.557c2.063,0.653,3.835-0.058,5.743-0.799
		c-1.786-1.862-3.689-3.353-6.201-3.746c-1.939-0.304-3.615-1.087-5.191-2.227c-2.447-1.771-4.913-3.52-7.438-5.17
		c-2.395-1.563-4.955-1.764-7.548-0.444c-2.468,1.256-4.949,2.492-7.363,3.847c-1.838,1.029-3.715,1.59-5.853,1.577
		C270.345,139.781,267.237,142.215,264.341,145.263 M305.757,148.282c-0.737-0.342-1.271-0.59-1.805-0.837
		c-2.184-0.997-4.04-2.478-5.922-3.932c-3.328-2.577-7.014-3.12-10.908-1.549c-1.848,0.746-3.656,1.654-5.339,2.719
		c-2.461,1.56-5.066,2.38-7.971,2.435c-1.071,0.02-2.138,0.319-3.207,0.491c-0.001,0.102-0.002,0.203-0.003,0.306
		c2.117,0.672,4.25,1.299,6.347,2.027c1.584,0.553,2.909,0.219,4.319-0.634c2.153-1.303,4.364-2.553,6.667-3.563
		c3.532-1.55,6.998-1.234,10.217,0.994c0.978,0.674,1.943,1.367,2.93,2.03c0.208,0.141,0.503,0.274,0.729,0.239
		C303.055,148.811,304.289,148.559,305.757,148.282 M297.679,149.661c-3.877-3.091-11.683-2.091-14.666,1.117
		C287.952,150.776,292.78,150.381,297.679,149.661 M290.546,123.888c-1.124,1.421-2.483,5.29-2.463,6.72
		c0.012,0.784,0.117,0.813,0.887,0.661c0.987-0.196,1.992-0.337,2.994-0.406c0.79-0.052,0.904-0.124,0.674-0.906
		c-0.195-0.663-0.396-1.325-0.625-1.977C291.552,126.661,291.071,125.349,290.546,123.888"/>
	<path d="M7.895,75.102c0.388-0.959,1.109-1.302,2.122-1.25c1.063,0.055,2.131-0.005,3.197,0.021
		c0.958,0.024,1.565,0.539,1.644,1.475c0.306,3.679,1.47,7.087,2.999,10.428c2.254,4.926,4.367,9.917,6.534,14.885
		c0.247,0.567,0.511,1.091,1.237,1.107c0.769,0.019,1.05-0.528,1.308-1.116c1.463-3.357,2.922-6.717,4.404-10.066
		c0.294-0.664,0.275-1.262-0.017-1.921c-1.789-4.051-3.554-8.114-5.325-12.174c-0.702-1.608-0.041-2.619,1.718-2.625
		c1.065-0.004,2.132-0.016,3.197,0.004c1.037,0.02,1.536,0.462,1.708,1.484c0.218,1.293,0.419,2.589,0.631,3.884
		c0.427,2.607,1.72,4.892,2.743,7.271c2.012,4.683,4.071,9.348,6.11,14.021c0.059,0.136,0.118,0.271,0.178,0.406
		c0.218,0.484,0.542,0.826,1.118,0.833c0.606,0.011,0.96-0.328,1.186-0.845c0.962-2.2,1.922-4.398,2.883-6.599
		c1.675-3.833,3.331-7.673,5.034-11.49c0.964-2.159,1.304-4.455,1.657-6.755c0.042-0.27,0.067-0.541,0.118-0.808
		c0.175-0.929,0.676-1.379,1.632-1.4c1.164-0.025,2.33-0.024,3.494-0.002c1.453,0.028,2.125,1.101,1.538,2.448
		c-2.006,4.605-4.023,9.206-6.035,13.808c-2.883,6.599-5.781,13.19-8.631,19.805c-0.461,1.066-1.136,1.481-2.281,1.474
		c-2.927-0.016-2.731,0.032-3.829-2.495c-1.321-3.041-2.666-6.072-3.979-9.118c-0.327-0.757-0.733-1.355-1.654-1.35
		c-0.926,0.003-1.317,0.63-1.64,1.376c-1.477,3.406-2.992,6.795-4.44,10.212c-0.422,0.992-1.073,1.428-2.119,1.363
		c-0.396-0.025-0.797-0.038-1.189,0.002c-1.222,0.12-1.887-0.452-2.368-1.56c-4.885-11.26-9.809-22.504-14.724-33.749
		C8.014,76,7.947,75.926,7.895,75.846V75.102z"/>
	<path d="M109.026,86.353c0-3.717-0.001-7.436,0-11.154c0-1.075,0.224-1.292,1.315-1.293c2.206-0.001,4.411-0.002,6.617,0.001
		c0.513,0,1.184-0.139,1.346,0.476c0.112,0.426-0.067,1-0.277,1.428c-1.008,2.063-2.158,4.062-3.076,6.164
		c-0.411,0.94-0.54,2.064-0.553,3.108c-0.056,4.708,0.036,9.419-0.051,14.128c-0.041,2.205,0.469,4.218,1.465,6.134
		c0.731,1.402,1.567,2.753,2.292,4.158c0.194,0.376,0.331,0.95,0.173,1.284c-0.134,0.282-0.723,0.484-1.116,0.49
		c-2.378,0.044-4.758,0.006-7.137,0.032c-0.67,0.008-1.019-0.331-1.357-0.841c-5.161-7.781-10.333-15.557-15.507-23.331
		c-0.333-0.501-0.602-1.176-1.4-0.959c-0.828,0.225-0.741,0.932-0.74,1.583c0.003,3.718,0.088,7.439-0.029,11.153
		c-0.078,2.469,0.516,4.705,1.653,6.835c0.687,1.289,1.467,2.527,2.142,3.821c0.184,0.353,0.294,0.898,0.144,1.218
		c-0.127,0.274-0.677,0.486-1.042,0.489c-3.692,0.034-7.384,0.028-11.077,0.016c-1.105-0.003-1.507-0.739-0.93-1.684
		c1.331-2.18,2.632-4.379,3.362-6.845c0.256-0.866,0.404-1.797,0.411-2.699c0.041-4.535-0.073-9.074,0.053-13.607
		c0.076-2.708-0.647-5.128-1.899-7.449c-0.599-1.111-1.243-2.198-1.89-3.282c-0.263-0.441-0.589-0.935-0.186-1.35
		c0.276-0.284,0.804-0.444,1.223-0.451c2.279-0.042,4.561,0.007,6.839-0.036c0.742-0.014,1.174,0.267,1.571,0.866
		c5.141,7.765,10.301,15.515,15.458,23.271c0.137,0.206,0.231,0.483,0.423,0.601c0.311,0.191,0.731,0.442,1.023,0.364
		c0.298-0.082,0.539-0.505,0.725-0.824c0.097-0.17,0.029-0.438,0.029-0.66C109.026,93.789,109.026,90.071,109.026,86.353"/>
	<path d="M396.963,92.589c-0.096-10.628,8.823-19.322,19.396-19.197c10.494,0.124,18.975,8.7,18.971,19.421
		c-0.006,10.376-8.708,18.987-19.191,18.991C405.553,111.812,396.963,103.204,396.963,92.589 M403.175,92.529
		c-0.03,7.077,5.759,12.993,12.738,13.022c7.289,0.029,13.16-5.698,13.195-12.872c0.037-7.136-5.768-13.037-12.857-13.067
		C409.063,79.581,403.205,85.369,403.175,92.529"/>
	<path d="M195.669,73.906c2.676,0,5.356-0.096,8.026,0.021c5.427,0.236,10.113,5.016,10.346,10.433
		c0.201,4.654-1.722,8.18-5.678,10.611c-1.132,0.696-1.306,1.602-0.469,2.664c3.032,3.856,6.067,7.71,9.112,11.556
		c0.355,0.45,0.65,0.896,0.395,1.482c-0.267,0.613-0.821,0.63-1.386,0.629c-2.378-0.006-4.757,0.003-7.136-0.004
		c-1.333-0.005-1.726-0.598-1.257-1.849c0.148-0.394,0.268-0.797,0.394-1.2c0.31-0.995,0.139-1.834-0.552-2.681
		c-2.178-2.668-4.289-5.39-6.41-8.104c-0.472-0.604-1.035-1-1.807-1.019c-0.742-0.02-1.49-0.044-2.226,0.027
		c-1.226,0.118-1.811,0.909-1.931,2.131c-0.298,3.023,0.545,5.729,2.11,8.262c0.533,0.864,1.055,1.735,1.583,2.601
		c0.591,0.972,0.157,1.819-0.977,1.824c-3.494,0.018-6.988,0.019-10.483,0c-1.211-0.005-1.675-0.932-1.09-1.992
		c1.028-1.86,2.109-3.699,2.977-5.635c0.429-0.957,0.585-2.104,0.599-3.169c0.06-4.98-0.036-9.965,0.054-14.944
		c0.039-2.16-0.462-4.114-1.474-5.971c-0.626-1.152-1.29-2.285-1.966-3.409c-0.315-0.523-0.645-1.018-0.321-1.65
		c0.347-0.678,0.984-0.656,1.612-0.656h7.954V73.906z M195.106,85.069c0,1.336,0,2.673,0,4.012c0,1.604,0.488,2.1,2.064,2.1
		c1.833,0,3.666,0.002,5.498,0c3.235-0.002,5.839-2.323,6.149-5.479c0.301-3.053-1.869-6.021-5.034-6.412
		c-2.391-0.295-4.84-0.164-7.263-0.15c-0.836,0.003-1.4,0.735-1.41,1.619C195.096,82.196,195.106,83.633,195.106,85.069"/>
	<path d="M448.155,111.3c-2.155,0-4.312,0.006-6.467-0.002c-1.769-0.007-2.467-1.26-1.572-2.801
		c1.254-2.163,2.504-4.333,3.017-6.824c0.079-0.385,0.1-0.785,0.101-1.178c0.008-5.18-0.018-10.359,0.018-15.538
		c0.013-1.907-0.687-3.581-1.485-5.231c-0.526-1.09-1.149-2.135-1.736-3.195c-0.748-1.354-0.072-2.647,1.455-2.654
		c3.988-0.018,7.985-0.147,11.964,0.059c7.192,0.372,12.609,3.915,16.144,10.089c5.063,8.846,1.396,20.441-7.749,25.137
		c-2.783,1.428-5.723,2.17-8.856,2.142C451.376,111.288,449.766,111.3,448.155,111.3 M448.537,92.582
		c0,3.894-0.002,7.785,0.003,11.677c0,1.021,0.579,1.789,1.501,1.773c1.901-0.032,3.841,0.024,5.694-0.32
		c5.878-1.09,10.385-6.163,10.833-11.957c0.47-6.105-3.047-11.614-8.746-13.791c-2.381-0.91-4.846-0.883-7.324-0.858
		c-1.345,0.013-1.959,0.621-1.96,1.951C448.536,84.899,448.537,88.74,448.537,92.582"/>
	<path d="M167.004,111.3c-3.766,0-7.533-0.007-11.3,0.005c-0.736,0.002-1.385-0.113-1.786-0.812
		c-0.415-0.721-0.192-1.364,0.204-2.019c1.206-1.992,2.373-4.01,2.959-6.29c0.152-0.594,0.228-1.221,0.231-1.833
		c0.019-4.586-0.105-9.176,0.053-13.756c0.099-2.875-0.69-5.414-2.019-7.864c-0.413-0.763-0.854-1.509-1.28-2.264
		c-0.726-1.29-0.022-2.59,1.463-2.593c7.657-0.018,15.314-0.015,22.971,0c1.262,0.002,1.853,0.628,1.875,1.895
		c0.023,1.362,0.009,2.726,0.003,4.089c-0.003,0.776-0.269,1.425-1.03,1.738c-0.751,0.309-1.373,0.066-1.954-0.481
		c-1.433-1.35-3.148-2.004-5.125-1.994c-2.578,0.015-5.154,0.002-7.732,0.004c-1.317,0.001-1.952,0.639-1.955,1.956
		c-0.003,1.81-0.005,3.619,0.001,5.428c0.003,1.269,0.602,1.87,1.864,1.872c3.544,0.003,7.088,0,10.631,0.003
		c1.717,0,2.227,0.506,2.228,2.199c0,0.397,0.001,0.795,0,1.19c-0.006,1.29-0.606,1.903-1.915,1.906
		c-3.618,0.007-7.236,0.002-10.854,0.004c-0.247,0-0.503-0.011-0.738,0.047c-0.704,0.174-1.209,0.815-1.213,1.595
		c-0.013,3.024-0.014,6.049,0,9.072c0.005,0.869,0.593,1.615,1.433,1.619c3.194,0.02,6.39,0.027,9.581-0.094
		c1.472-0.055,2.738-0.825,3.8-1.847c0.582-0.562,1.219-0.743,1.963-0.454c0.749,0.29,1.001,0.926,1.011,1.666
		c0.017,1.388,0.025,2.777-0.001,4.163c-0.024,1.241-0.66,1.841-1.921,1.844C174.637,111.305,170.822,111.3,167.004,111.3"/>
	<path d="M526.402,111.3c-3.767,0-7.533-0.007-11.3,0.005c-0.735,0.002-1.405-0.104-1.783-0.813
		c-0.379-0.706-0.197-1.354,0.21-2.022c1.184-1.945,2.316-3.925,2.916-6.148c0.158-0.59,0.253-1.217,0.256-1.827
		c0.021-5.007-0.021-10.014,0.029-15.019c0.017-1.629-0.282-3.159-0.97-4.604c-0.68-1.429-1.43-2.826-2.198-4.209
		c-0.36-0.651-0.561-1.271-0.183-1.96c0.385-0.699,1.035-0.84,1.772-0.84c7.484,0.006,14.969,0,22.452,0.006
		c1.622,0.001,2.148,0.531,2.155,2.13c0.003,1.314-0.006,2.628,0,3.942c0.003,0.766-0.29,1.358-1.019,1.657
		c-0.718,0.294-1.337,0.101-1.895-0.433c-1.469-1.399-3.226-2.058-5.256-2.042c-2.552,0.02-5.104,0.002-7.657,0.006
		c-1.291,0.001-1.948,0.601-1.971,1.887c-0.033,1.834-0.032,3.669-0.001,5.501c0.021,1.3,0.646,1.866,1.961,1.868
		c3.52,0.001,7.038-0.002,10.557,0.001c1.717,0,2.255,0.549,2.256,2.274c0,0.322,0.001,0.644-0.001,0.966
		c-0.002,1.47-0.594,2.058-2.086,2.058c-3.619,0.002-7.237-0.025-10.854,0.03c-0.501,0.007-1.072,0.324-1.461,0.668
		c-0.263,0.231-0.358,0.762-0.363,1.16c-0.028,2.874-0.035,5.751-0.005,8.625c0.014,1.283,0.684,1.887,1.968,1.891
		c2.603,0.006,5.205,0.002,7.807,0.002c1.944,0.001,3.646-0.638,5.058-1.979c0.585-0.555,1.221-0.756,1.962-0.456
		c0.767,0.31,1.014,0.947,1.005,1.737c-0.016,1.313,0,2.628-0.006,3.941c-0.009,1.412-0.578,1.992-1.981,1.995
		C533.984,111.303,530.193,111.3,526.402,111.3"/>
	<path d="M507.674,101.873c0.001,1.661-0.034,3.323,0.017,4.982c0.021,0.653-0.213,1.057-0.721,1.416
		c-2.416,1.713-5.117,2.712-8.028,3.09c-8.031,1.041-15.496-2.827-19.344-9.969c-6.029-11.186,1.157-25.575,13.715-27.5
		c3.727-0.571,7.302-0.125,10.749,1.373c1.707,0.742,2.201,2.168,1.355,3.834c-0.415,0.817-0.818,1.64-1.271,2.435
		c-0.633,1.114-2.091,1.237-2.746,0.141c-1.594-2.66-4.019-3.081-6.765-2.66c-6.229,0.952-10.729,5.257-11.755,11.447
		c-1.422,8.574,5.573,16.226,13.771,15.699c1.268-0.082,2.542-0.399,3.768-0.764c1.458-0.433,2.095-1.727,1.775-3.227
		c-0.527-2.48-1.751-4.551-3.602-6.272c-0.188-0.175-0.249-0.483-0.368-0.729c0.252-0.11,0.5-0.312,0.754-0.314
		c2.304-0.023,4.61-0.031,6.915-0.007c1.179,0.014,1.762,0.623,1.775,1.818C507.686,98.401,507.673,100.137,507.674,101.873"/>
	<path d="M136.02,73.905c4.064,0,8.128,0,12.191,0.001c1.144,0,1.527,0.371,1.53,1.495c0.006,2.157,0.007,4.313,0,6.469
		c-0.004,1.328-0.775,1.821-2.005,1.28c-2.356-1.036-4.706-2.083-7.06-3.123c-1.257-0.556-2.037-0.055-2.038,1.318
		c-0.002,6.765-0.045,13.533,0.043,20.298c0.014,1.11,0.476,2.277,0.968,3.304c0.703,1.467,1.612,2.837,2.46,4.232
		c0.302,0.495,0.508,0.96,0.195,1.519c-0.299,0.536-0.796,0.604-1.34,0.604c-3.296-0.006-6.592-0.006-9.887,0.001
		c-0.578,0-1.086-0.098-1.375-0.672c-0.275-0.543-0.043-0.983,0.231-1.454c0.959-1.645,1.99-3.26,2.788-4.981
		c0.443-0.952,0.657-2.092,0.667-3.148c0.059-6.421,0.029-12.841,0.029-19.258c0-0.198,0.006-0.396-0.001-0.595
		c-0.042-1.178-0.834-1.691-1.916-1.217c-2.334,1.023-4.66,2.063-6.988,3.095c-1.498,0.662-2.228,0.196-2.229-1.427
		c-0.002-2.056-0.005-4.114,0.001-6.171c0.004-1.19,0.379-1.567,1.543-1.567C127.892,73.905,131.956,73.905,136.02,73.905"/>
	<path d="M379.601,111.3c-3.989,0-7.98,0-11.972,0c-0.549,0-1.11,0.034-1.426-0.559c-0.312-0.586,0.019-1.039,0.305-1.511
		c1.423-2.352,2.837-4.713,3.445-7.441c0.105-0.479,0.132-0.981,0.132-1.474c0.01-4.859-0.038-9.718,0.029-14.575
		c0.025-1.914-0.352-3.693-1.203-5.373c-0.782-1.545-1.639-3.05-2.487-4.56c-0.255-0.451-0.559-0.941-0.169-1.359
		c0.275-0.296,0.785-0.517,1.195-0.521c3.543-0.04,7.088-0.039,10.631-0.001c0.385,0.004,0.959,0.222,1.1,0.51
		c0.163,0.334,0.057,0.91-0.128,1.285c-1.001,2.041-2.154,4.012-3.063,6.091c-0.43,0.985-0.593,2.158-0.601,3.248
		c-0.054,6.468-0.027,12.938-0.026,19.408c0,1.274,0.309,1.588,1.563,1.59c1.287,0.001,2.583-0.081,3.865,0.018
		c2.604,0.195,4.934-0.605,7.168-1.802c1.069-0.572,2.116-1.188,3.159-1.805c0.459-0.27,0.894-0.561,1.446-0.27
		c0.562,0.294,0.553,0.813,0.55,1.35c-0.01,2.082-0.003,4.163-0.003,6.247c0,1.252-0.253,1.501-1.539,1.501
		C387.581,111.302,383.59,111.3,379.601,111.3"/>
	<path d="M70.868,73.865c1.659,0,3.32,0.004,4.98-0.003c0.546-0.002,1.046,0.079,1.342,0.605c0.304,0.542,0.155,1.031-0.151,1.531
		c-1.342,2.2-2.649,4.421-3.301,6.945c-0.153,0.592-0.233,1.22-0.236,1.831c-0.018,4.905,0.032,9.814-0.032,14.72
		c-0.022,1.836,0.344,3.546,1.143,5.161c0.744,1.507,1.574,2.974,2.394,4.44c0.279,0.498,0.501,0.973,0.216,1.531
		c-0.306,0.603-0.853,0.677-1.452,0.675c-3.271-0.008-6.542-0.007-9.811-0.001c-0.566,0.001-1.105-0.044-1.418-0.604
		c-0.319-0.571-0.101-1.065,0.176-1.603c1.041-2.019,2.112-4.027,3.015-6.109c0.37-0.852,0.47-1.875,0.479-2.823
		c0.046-4.784-0.032-9.567,0.046-14.349c0.035-2.128-0.472-4.068-1.424-5.919c-0.679-1.319-1.41-2.612-2.149-3.899
		c-0.292-0.509-0.439-0.995-0.141-1.535c0.295-0.531,0.801-0.599,1.344-0.598C67.548,73.869,69.208,73.865,70.868,73.865"/>
	<path d="M289.386,45.503c-3.893-0.08-5.779-2.692-5.84-6.928c-0.033-2.296,2.396-5.005,5.823-5.05
		c3.229-0.042,5.999,2.775,6.004,6.079C295.38,42.883,292.708,45.504,289.386,45.503 M285.68,39.746
		c0.002,2.15,1.517,3.787,3.526,3.809c1.9,0.021,3.91-2.004,3.825-4.005c-0.129-3.032-1.349-3.855-3.929-3.903
		C287.369,35.614,285.678,37.689,285.68,39.746"/>
	<path d="M264.328,55.612c-0.106,2.541-1.236,4.301-3.338,5.457c-0.692,0.381-1.385,0.431-2.132,0.108
		c-2.129-0.923-3.613-3.178-3.602-5.53c0.012-2.391,1.489-4.585,3.659-5.482c0.666-0.275,1.288-0.262,1.927,0.055
		C263.13,51.352,264.227,53.226,264.328,55.612 M257.089,56.043c0.217,0.499,0.495,1.428,0.998,2.212
		c0.621,0.968,1.91,1.152,2.812,0.483c1.134-0.838,1.648-2.028,1.559-3.419c-0.086-1.333-0.768-2.354-1.99-2.899
		c-0.372-0.166-0.94-0.163-1.315,0C257.799,53.009,257.176,54.132,257.089,56.043"/>
	<path d="M322.788,55.018c0.06,2.905-1.333,5.152-3.578,6.062c-0.516,0.21-1.244,0.208-1.772,0.018
		c-2.246-0.808-3.704-3.146-3.654-5.669c0.045-2.451,1.627-4.696,3.906-5.414c0.447-0.141,1.054-0.092,1.486,0.097
		C321.519,51.125,322.66,52.991,322.788,55.018 M321.007,55.213c-0.142-0.426-0.308-1.126-0.603-1.767
		c-0.875-1.902-2.368-2.082-3.714-0.484c-0.095,0.113-0.209,0.211-0.302,0.326c-1.443,1.793-0.831,4.517,1.265,5.437
		c0.356,0.157,0.9,0.166,1.252,0.007C320.265,58.115,320.916,56.98,321.007,55.213"/>
	<path d="M323.509,92.249v-2.357c0-2.824,0.014-5.646-0.011-8.472c-0.004-0.578,0.117-0.816,0.76-0.85
		c2.635-0.134,5.319,2.29,5.609,5.129c0.258,2.535-1.139,5.099-3.46,6.125c-0.81,0.356-1.734,0.446-2.607,0.659
		C323.704,92.405,323.606,92.327,323.509,92.249 M325.177,83.475V89.4c1.837,0.063,3.211-1.39,3.117-3.222
		C328.215,84.605,326.727,83.294,325.177,83.475"/>
	<path d="M255.521,92.75c-3.537,0.545-6.218-2.342-6.309-5.378c-0.1-3.362,2.471-6.188,5.676-6.211
		c0.357-0.004,0.637,0.021,0.636,0.492C255.517,85.34,255.521,89.023,255.521,92.75 M253.998,84.088
		c-1.671-0.064-2.955,1.057-3.198,2.647c-0.208,1.367,0.835,2.901,2.227,3.274c0.848,0.229,0.967,0.146,0.971-0.7
		c0.003-0.868,0-1.733,0-2.6V84.088z"/>
	<path d="M259.806,112.749c-0.457,0.221-0.803,0.393-1.152,0.558c-3.205,1.521-4.27,5.522-2.043,7.989
		c0.777,0.861,1.813,1.489,2.734,2.219c0.11,0.089,0.237,0.156,0.364,0.238c-1.08,1.013-4.137,0.421-5.792-1.026
		c-2.523-2.21-2.11-6.204-0.687-8.155C254.719,112.533,258.021,111.592,259.806,112.749"/>
	<path d="M319.694,112.802c2.298-0.832,4.928,0.045,6.433,2.052c1.614,2.152,1.634,5.078,0.046,7.287
		c-1.416,1.974-3.948,2.714-6.612,1.826c2.658-0.976,4.299-2.707,4.302-5.5C323.866,115.69,322.066,114.058,319.694,112.802"/>
</g>
</svg>
